<?xml version="1.0" encoding="UTF-8" standalone="no"?>
<svg
   xmlns:dc="http://purl.org/dc/elements/1.1/"
   xmlns:cc="http://creativecommons.org/ns#"
   xmlns:rdf="http://www.w3.org/1999/02/22-rdf-syntax-ns#"
   xmlns:svg="http://www.w3.org/2000/svg"
   xmlns="http://www.w3.org/2000/svg"
   xmlns:sodipodi="http://sodipodi.sourceforge.net/DTD/sodipodi-0.dtd"
   xmlns:inkscape="http://www.inkscape.org/namespaces/inkscape"
   width="200"
   height="200"
   version="1.1"
   viewBox="0 0 52.917 52.917"
   id="svg158"
   sodipodi:docname="Icon_svg.svg"
   inkscape:version="0.92.4 (5da689c313, 2019-01-14)">
  <metadata
     id="metadata164">
    <rdf:RDF>
      <cc:Work
         rdf:about="">
        <dc:format>image/svg+xml</dc:format>
        <dc:type
           rdf:resource="http://purl.org/dc/dcmitype/StillImage" />
        <dc:title></dc:title>
      </cc:Work>
    </rdf:RDF>
  </metadata>
  <defs
     id="defs162" />
  <sodipodi:namedview
     pagecolor="#ffffff"
     bordercolor="#666666"
     borderopacity="1"
     objecttolerance="10"
     gridtolerance="10"
     guidetolerance="10"
     inkscape:pageopacity="0"
     inkscape:pageshadow="2"
     inkscape:window-width="2285"
     inkscape:window-height="1138"
     id="namedview160"
     showgrid="false"
     inkscape:zoom="0.59"
     inkscape:cx="-90.908971"
     inkscape:cy="620.00935"
     inkscape:window-x="128"
     inkscape:window-y="164"
     inkscape:window-maximized="0"
     inkscape:current-layer="svg158" />
  <g
     id="g18"
     transform="translate(-20.040076,-230.9389)">
    <path
       style="fill:#cc6698"
       inkscape:connector-curvature="0"
       id="path2"
       d="M 66.095,-33.823 A 26.458,26.458 0 0 1 39.637,-7.365 26.458,26.458 0 0 1 13.179,-33.823 26.458,26.458 0 0 1 39.637,-60.281 26.458,26.458 0 0 1 66.095,-33.823 Z" />
    <g
       id="g16"
       transform="translate(1.9156e-5,0.32263)">
      <path
         style="fill:#ffffff"
         inkscape:connector-curvature="0"
         id="path4"
         d="m 22.132,-18.16 c -0.48818,-0.05045 -0.97749,-0.16427 -1.2059,-0.28092 -0.43252,-0.22078 -0.8868,-0.82936 -1.0851,-1.454 -0.39515,-1.2447 -0.09243,-2.7607 0.78153,-3.9165 0.90932,-1.2024 2.858,-2.6388 5.3679,-3.9568 0.34025,-0.1788 0.62517,-0.35842 0.633,-0.39918 0.01614,-0.09283 -0.5099,-0.51272 -1.5853,-1.261 -2.7765,-1.932 -3.5283,-2.5163 -4.5284,-3.5195 -1.2123,-1.216 -1.8157,-2.1616 -2.1284,-3.3354 -0.2454,-0.92143 -0.05247,-2.0298 0.58186,-3.3391 0.5128,-1.0587 1.2639,-2.0863 2.3108,-3.1615 1.7277,-1.7744 3.8209,-3.2374 6.6465,-4.6456 3.4877,-1.738 6.0814,-2.5277 8.8639,-2.6987 2.6165,-0.16064 5.0644,0.4073 6.5647,1.5234 1.2234,0.91013 1.7795,2.0467 1.7841,3.6464 0.0024,1.0777 -0.21957,1.9978 -0.74932,3.0967 -0.84801,1.7591 -2.283,3.3167 -4.0855,4.4345 -1.3796,0.85552 -3.3209,1.5023 -5.4459,1.8143 -0.81572,0.11988 -2.716,0.11866 -3.3761,-0.0019 -1.1282,-0.20625 -1.9755,-0.62965 -2.6786,-1.3387 -0.39434,-0.39757 -0.60907,-0.78852 -0.61282,-1.1151 -0.004,-0.33339 0.1005,-0.31361 0.54287,0.10252 0.82101,0.77233 1.9086,1.1304 3.4328,1.1302 2.1688,-3.63e-4 4.8199,-0.81612 6.7606,-2.0804 1.7361,-1.131 3.0817,-2.6282 3.6739,-4.0881 0.45012,-1.1096 0.4898,-2.061 0.11947,-2.8697 -0.0775,-0.16952 -0.23733,-0.3786 -0.44338,-0.58126 -1.328,-1.3045 -4.4593,-1.6028 -7.8497,-0.74771 -1.537,0.38748 -2.8321,0.87719 -4.5003,1.701 -5.345,2.6396 -8.2554,5.4836 -8.523,8.3286 -0.07871,0.83562 0.05812,1.5293 0.4523,2.2912 0.52697,1.019 1.3207,1.8232 3.378,3.4225 1.4961,1.1631 1.906,1.5038 2.4653,2.0496 0.46348,0.45222 0.46457,0.45294 0.60043,0.38465 0.07467,-0.03633 1.0499,-0.57028 2.1668,-1.1838 1.824,-1.002 2.0436,-1.1353 2.158,-1.3102 0.06983,-0.10696 0.37618,-0.44213 0.68006,-0.74456 1.1408,-1.1352 2.3635,-1.7364 3.2108,-1.5788 0.41799,0.0775 0.63861,0.24742 0.84353,0.64918 l 0.1667,0.32693 0.0024,0.82537 c 0.0016,0.45395 0.01615,0.83748 0.02825,0.85221 0.01615,0.01615 0.13158,-0.02825 0.25913,-0.09768 0.26397,-0.14127 0.46675,-0.13481 0.78149,0.02422 0.22401,0.11422 0.33218,0.26074 0.33218,0.44858 0,0.0783 -0.16024,0.74335 -0.3564,1.4782 -0.57262,2.1476 -0.78718,3.1618 -0.78718,3.7214 0,0.31321 0.05933,0.54473 0.14006,0.54473 0.20746,0 0.69076,-0.97931 2.6001,-5.2683 1.3287,-2.9847 1.5323,-3.4799 1.7162,-4.1743 0.10171,-0.38384 0.19979,-0.65778 0.24903,-0.69471 0.17517,-0.13158 0.5769,-0.20988 1.2024,-0.2345 0.72063,-0.02825 0.96934,0.01615 1.1429,0.19979 l 0.11221,0.11947 -0.21997,0.70275 c -0.28455,0.90839 -0.32088,1.103 -0.32048,1.7175 3.63e-4,0.89854 0.14853,1.5422 0.53129,2.3083 0.23047,0.4611 0.18607,0.50534 1.1178,-1.1176 0.63744,-1.1104 1.2784,-2.3316 1.5201,-2.8963 0.09525,-0.2228 0.2454,-0.68365 0.3338,-1.0243 0.22724,-0.87852 0.27123,-0.98718 0.4397,-1.0857 0.38788,-0.22684 1.7921,-0.3015 2.1429,-0.11463 0.22078,0.11786 0.23168,0.24298 0.0666,0.75808 -0.25226,0.78763 -0.34308,1.1925 -0.37093,1.6569 -0.03229,0.55361 0.08194,1.4529 0.24136,1.8752 0.14409,0.38304 0.66824,1.4261 0.75009,1.4934 0.04843,0.04036 0.17356,0.0081 0.51151,-0.134 2.519,-1.0503 5.3923,-0.89721 7.3007,0.38909 0.3907,0.26356 0.99582,0.8474 1.2556,1.2121 0.49302,0.69189 0.7463,1.4399 0.75009,2.2154 0.0024,0.57564 -0.05207,0.84874 -0.25912,1.2848 -0.20706,0.43688 -0.79715,1.0233 -1.2668,1.2594 -0.64777,0.32572 -0.97527,0.19697 -0.43858,-0.17194 0.89891,-0.61839 1.3247,-1.4366 1.1921,-2.2909 -0.16508,-1.0646 -0.92998,-2.0179 -2.0867,-2.6011 -1.3229,-0.66698 -3.5697,-0.89394 -5.2274,-0.52802 -0.53266,0.11786 -1.1439,0.31846 -1.2093,0.39716 -0.03633,0.04157 -0.01614,0.16589 0.06579,0.42033 0.17073,0.53827 0.22966,0.95533 0.20383,1.4484 -0.02018,0.38425 -0.04601,0.49084 -0.19858,0.81192 -0.48733,1.0261 -1.5604,1.8626 -3.0149,2.3498 -0.62432,0.20908 -1.0719,0.18203 -1.3643,-0.08274 -0.2341,-0.2119 -0.34268,-0.67546 -0.26922,-1.1479 0.16306,-1.0488 0.76684,-2.0705 1.8661,-3.1585 0.30917,-0.30595 0.562,-0.58703 0.562,-0.6246 0,-0.03633 -0.13804,-0.35559 -0.30675,-0.7063 -0.31119,-0.64777 -0.52071,-1.283 -0.71005,-2.1547 -0.07628,-0.35156 -0.12593,-0.48729 -0.18203,-0.49803 -0.0561,-0.0081 -0.17921,0.18163 -0.45698,0.71417 -0.50324,0.96534 -1.1059,1.9934 -1.6931,2.8884 l -0.47914,0.73019 0.11019,0.29424 c 0.28052,0.74965 0.34712,1.0766 0.35156,1.7234 0.004,0.55809 -0.0081,0.65706 -0.12714,1.0005 -0.24661,0.71639 -0.77084,1.3271 -1.4937,1.7407 -0.48818,0.27931 -1.1283,0.54767 -1.5955,0.66896 -0.4766,0.12351 -1.3974,0.17638 -1.6908,0.09647 -0.25267,-0.06862 -0.4927,-0.33016 -0.4927,-0.53702 0,-0.4123 0.11019,-0.5746 1.5936,-2.3502 1.1929,-1.4279 1.5689,-1.9403 1.525,-2.0786 -0.01615,-0.0553 -0.18002,-0.40362 -0.36124,-0.77378 -0.4012,-0.82 -0.64479,-1.577 -0.88022,-2.7369 -0.05288,-0.26114 -0.18002,-0.07346 -0.54239,0.80115 -0.84644,2.0431 -1.609,3.6503 -2.6351,5.5539 -0.79114,1.4678 -0.9724,1.7573 -1.3574,2.1681 -0.54267,0.57904 -0.99872,0.745 -1.4353,0.52229 -0.5457,-0.2785 -0.75453,-0.99259 -0.70061,-2.3961 0.02422,-0.63582 0.01615,-0.798 -0.03229,-0.798 -0.03229,0 -0.17719,0.27325 -0.31886,0.60745 -0.57661,1.3608 -1.118,2.3902 -1.4529,2.7627 -0.31563,0.35075 -0.61883,0.48887 -1.075,0.48887 -0.52039,0 -0.75288,-0.09324 -1.0608,-0.4259 -0.43688,-0.47187 -0.83017,-1.3592 -1.0426,-2.3522 -0.20302,-0.94936 -0.10615,-2.5438 0.22845,-3.7489 0.18082,-0.65153 0.18809,-0.71461 0.08718,-0.71461 -0.04642,0 -0.4722,0.2224 -0.94637,0.49432 -1.264,0.72478 -1.4049,0.81043 -1.4282,0.86863 -0.01211,0.02825 0.05045,0.24338 0.13764,0.47644 0.27083,0.7216 0.33339,1.1498 0.33016,2.2578 -0.0024,0.82028 -0.02018,1.0549 -0.10777,1.4649 -0.42288,1.9641 -1.4598,3.4835 -3.1048,4.5497 -0.50513,0.32734 -0.76067,0.45561 -1.3361,0.67038 -0.83372,0.31119 -1.8934,0.45274 -2.7374,0.36568 z" />
      <g
         style="fill:#cc6698"
         id="g14">
        <path
           style="stroke:#fdfdfd;stroke-width:0.47913"
           inkscape:connector-curvature="0"
           id="path6"
           d="m 23.885,-20.476 c 1.5636,-0.35559 3.1049,-1.7881 3.7033,-3.4419 0.19132,-0.52919 0.28254,-0.96978 0.31765,-1.5352 0.0444,-0.71853 -0.12189,-1.8131 -0.28011,-1.8435 -0.15983,-0.03229 -2.1864,1.2841 -3.0936,2.007 -0.2785,0.22159 -0.66012,0.5486 -0.84841,0.72624 -1.2496,1.1788 -1.8587,2.9186 -1.3119,3.747 0.25186,0.38183 0.79437,0.50376 1.5131,0.34025 z" />
        <path
           inkscape:connector-curvature="0"
           id="path8"
           d="m 42.782,-24.542 c 0.26962,-0.13764 0.85447,-0.61552 1.1148,-0.91114 0.2789,-0.31684 0.54009,-0.83312 0.6066,-1.1993 0.09687,-0.53318 -0.03229,-0.49868 -0.54093,0.14369 -0.42945,0.54324 -0.68547,0.84208 -1.2895,1.5052 -0.38748,0.42518 -0.43337,0.5553 -0.19697,0.5553 0.06741,0 0.20504,-0.04198 0.30595,-0.09364 z" />
        <path
           style="stroke:#fdfdfd;stroke-width:0.47913"
           inkscape:connector-curvature="0"
           id="path10"
           d="m 33.687,-24.578 c 0.22078,-0.15459 0.33339,-0.3229 0.66218,-0.98968 0.35034,-0.71062 1.1691,-2.7729 1.5696,-3.9543 0.32572,-0.96102 0.57334,-1.883 0.60725,-2.2615 0.02422,-0.27446 0.01615,-0.3237 -0.07386,-0.41831 -0.25993,-0.27325 -0.91856,-0.01211 -1.5224,0.60228 -0.50691,0.51627 -1.2949,1.9072 -1.5954,2.816 -0.52144,1.577 -0.53254,3.6063 -0.02018,4.152 0.14692,0.15741 0.21352,0.1667 0.37537,0.05368 z" />
        <path
           inkscape:connector-curvature="0"
           id="path12"
           d="m 48.901,-26.018 c 0.62012,-0.29908 1.1248,-0.84389 1.2967,-1.4001 0.15782,-0.5103 0.11866,-1.4842 -0.06135,-1.5434 -0.08557,-0.02825 -0.50634,0.38465 -0.83586,0.82056 -0.44697,0.59094 -0.89277,1.5904 -0.89277,2.0015 0,0.31604 0.05933,0.33057 0.49343,0.12149 z" />
      </g>
    </g>
  </g>
  <g
     id="g30"
     transform="translate(-129.93982,-338.0669)">
    <g
       id="g28">
      <circle
         style="fill:#f7df1e"
         id="circle20"
         r="26.458"
         cy="73.305"
         cx="213.39999" />
      <g
         style="fill:#282828"
         id="g26"
         transform="matrix(2.9094,0,0,2.9094,-272.58,-297.47)">
        <path
           inkscape:connector-curvature="0"
           id="path22"
           d="m 169.5,123.24 c 0.15179,-10e-4 0.30655,0.004 0.41858,0.015 0.67083,0.0681 1.204,0.33096 1.6144,0.79582 0.10757,0.12185 0.29083,0.37725 0.34003,0.47335 l 0.0233,0.0455 -0.62994,0.40514 c -0.34671,0.22273 -0.63585,0.40728 -0.64285,0.40928 -0.007,0.002 -0.039,-0.0385 -0.0718,-0.0904 -0.1923,-0.3046 -0.39138,-0.47497 -0.65784,-0.56327 -0.1077,-0.0358 -0.14327,-0.04 -0.3452,-0.0408 -0.25252,-0.001 -0.31935,0.0118 -0.47594,0.0925 -0.35007,0.18044 -0.48717,0.63507 -0.30386,1.0082 0.12802,0.26059 0.36856,0.41718 1.17,0.76068 1.0131,0.43423 1.444,0.68721 1.8257,1.0723 0.3915,0.39491 0.57746,0.81892 0.63046,1.4361 0.0277,0.3232 -0.0119,0.69909 -0.10387,0.9803 -0.29876,0.91307 -1.1346,1.4781 -2.3373,1.5803 -0.16764,0.015 -0.49198,0.0177 -0.63097,0.006 -0.19428,-0.0161 -0.38259,-0.0417 -0.54777,-0.0739 -0.92943,-0.18119 -1.6763,-0.69473 -2.1327,-1.4666 -0.0497,-0.0841 -0.0856,-0.15778 -0.0796,-0.16278 0.006,-0.005 0.29537,-0.17388 0.64234,-0.37466 0.34697,-0.20077 0.64543,-0.37494 0.66353,-0.38654 0.0304,-0.0196 0.0346,-0.0178 0.0558,0.0233 0.0467,0.0904 0.25253,0.35174 0.36793,0.46715 0.25007,0.25007 0.52806,0.40186 0.87282,0.47646 0.19516,0.0418 0.63618,0.0386 0.81442,-0.006 0.33733,-0.0847 0.56499,-0.24294 0.68006,-0.47284 0.0673,-0.13445 0.0885,-0.24467 0.078,-0.40204 -0.0148,-0.22061 -0.088,-0.3773 -0.24701,-0.52814 -0.19497,-0.18496 -0.38444,-0.28541 -1.2201,-0.64647 -0.65128,-0.2814 -0.96789,-0.4501 -1.2687,-0.67593 -0.48524,-0.36432 -0.781,-0.81851 -0.89297,-1.3715 -0.28774,-1.421 0.54254,-2.5734 1.9901,-2.7631 0.10042,-0.0132 0.24922,-0.0209 0.40101,-0.0222 z" />
        <path
           inkscape:connector-curvature="0"
           id="path24"
           d="m 163.94,123.33 h 1.6516 v 3.0257 c 0,3.2165 0.001,3.1442 -0.0693,3.4928 -0.0611,0.30132 -0.21723,0.66148 -0.39171,0.90382 -0.10622,0.14753 -0.32012,0.35439 -0.47129,0.45579 -0.30073,0.20172 -0.65849,0.33075 -1.0826,0.39015 -0.2005,0.0279 -0.59571,0.0395 -0.78186,0.0227 -0.39504,-0.0356 -0.7216,-0.12359 -1.0413,-0.2806 -0.39668,-0.19485 -0.71139,-0.47338 -0.971,-0.85938 -0.12213,-0.18153 -0.21572,-0.36035 -0.19792,-0.37775 0.017,-0.0166 1.3308,-0.81167 1.3338,-0.80667 0.18608,0.32379 0.26625,0.43814 0.40514,0.57619 0.1352,0.13438 0.2696,0.21168 0.44338,0.25528 0.14065,0.0353 0.4937,0.0226 0.63511,-0.0227 0.26662,-0.0857 0.42524,-0.28237 0.50384,-0.62477 0.0221,-0.0943 0.0249,-0.41626 0.0289,-3.128 z" />
      </g>
    </g>
  </g>
  <g
     id="g38"
     transform="translate(-115.66658,-149.1019)">
    <g
       id="g36">
      <circle
         style="fill:#eb4a4b"
         id="circle32"
         r="26.458"
         cy="-115.66"
         cx="262.98999" />
      <path
         style="fill:#ffffff;stroke-width:0.089171"
         inkscape:connector-curvature="0"
         id="path34"
         d="m 261.68,-93.192 c -2.0717,-0.14963 -3.7676,-0.61831 -4.0916,-1.1308 -0.0771,-0.12194 -0.14841,-0.58081 -0.18343,-1.1804 -0.0315,-0.53948 -0.0942,-1.4423 -0.13919,-2.0063 -0.045,-0.564 -0.13095,-1.7076 -0.19088,-2.5413 -0.10812,-1.503 -0.11175,-1.5204 -0.43237,-2.0509 -0.17785,-0.29426 -0.45206,-0.76175 -0.60933,-1.0388 l -0.28596,-0.50384 0.55877,0.17406 c 1.9829,0.61768 3.6377,0.82531 6.5778,0.82531 2.9331,0 4.6513,-0.21002 6.4872,-0.79296 0.35557,-0.11288 0.64648,-0.18616 0.64648,-0.16281 0,0.0233 -0.24754,0.47053 -0.55007,0.99371 l -0.55009,0.95124 -0.0669,1.0254 c -0.0368,0.564 -0.11095,1.8079 -0.16479,2.7643 -0.20669,3.6699 -0.18543,3.4874 -0.43303,3.7169 -0.27799,0.25762 -1.3821,0.61266 -2.4349,0.78292 -0.79927,0.12928 -3.3018,0.23471 -4.1378,0.17434 z m -0.22292,-9.9875 c -1.8906,-0.12349 -3.6721,-0.42689 -5.0357,-0.85755 -0.96647,-0.30526 -1.2941,-0.54165 -1.2978,-0.93635 -9.5e-4,-0.1371 -0.0396,-0.63048 -0.085,-1.0964 -0.13439,-1.3765 -0.26368,-2.7429 -0.35856,-3.7897 -0.0489,-0.53949 -0.1122,-1.1295 -0.14076,-1.3111 l -0.0517,-0.3302 0.29693,0.0861 c 0.56941,0.16526 1.3465,-0.16166 2.174,-0.91458 0.28588,-0.26012 0.49219,-0.39964 0.45846,-0.31004 -0.20667,0.54908 -0.50751,1.752 -0.50751,2.0293 0,0.37104 0.17595,0.56859 0.43361,0.48681 0.28384,-0.0901 0.40513,-0.36593 0.90357,-2.0548 0.26054,-0.8828 0.60721,-1.9527 0.77039,-2.3776 0.37563,-0.97812 0.47135,-1.674 0.2594,-1.8859 -0.40187,-0.40189 -0.73723,-0.0913 -1.1102,1.0282 -0.22489,0.67502 -0.379,0.96258 -0.7697,1.4362 -0.50858,0.61657 -1.2661,1.2702 -1.6343,1.4102 -1.0384,0.39482 -0.95222,-1.5667 0.16717,-3.8022 0.61392,-1.226 1.2595,-2.0831 1.8522,-2.459 0.68501,-0.43442 0.97254,-0.35459 1.4695,0.40804 0.46623,0.71545 0.95764,0.64945 0.95764,-0.12862 0,-0.3522 -0.0512,-0.47871 -0.32167,-0.79469 -0.65337,-0.76333 -1.529,-0.93815 -2.4474,-0.48864 -1.0338,0.50601 -2.3202,2.138 -2.9932,3.7972 -0.16411,0.40463 -0.29905,0.68871 -0.29987,0.6313 -6.8e-4,-0.0574 -0.0807,-0.79976 -0.17774,-1.6497 -0.0969,-0.84989 -0.29861,-2.6889 -0.44821,-4.0866 -0.14959,-1.3978 -0.32843,-3.0423 -0.3974,-3.6545 -0.069,-0.61224 -0.11432,-1.1243 -0.10076,-1.1379 0.0136,-0.0136 0.19761,0.0363 0.40892,0.11084 0.8332,0.29397 2.5329,0.55562 4.9939,0.76876 1.8283,0.15834 7.6399,0.13031 9.5836,-0.0463 2.425,-0.22023 3.9009,-0.47187 4.8055,-0.81931 0.15442,-0.0593 0.16231,-0.0261 0.10971,0.46234 -0.0312,0.28943 -0.1346,1.2485 -0.22985,2.1313 -0.0952,0.88279 -0.25671,2.3875 -0.35882,3.3439 -0.10211,0.95635 -0.26422,2.4611 -0.36027,3.3439 -0.0961,0.88278 -0.19779,1.8258 -0.22611,2.0955 -0.0504,0.48039 -0.0655,0.50254 -0.73546,1.0804 -0.71345,0.61538 -1.3232,1.0596 -1.4544,1.0596 -0.1726,0 -0.0463,-0.22104 0.54219,-0.94844 1.0015,-1.2381 1.2111,-1.8834 0.7502,-2.3106 -0.47982,-0.44468 -1.5117,-0.20618 -2.1271,0.49162 l -0.17834,0.20224 -0.0446,-0.34481 c -0.0404,-0.31257 -0.0692,-0.34479 -0.30856,-0.34479 -0.32179,0 -0.56867,0.32766 -0.79928,1.0609 -0.12849,0.40851 -0.25734,0.59036 -0.70594,0.99631 -0.67352,0.6095 -1.2807,1.0192 -1.5105,1.0192 -0.14366,0 -0.16254,-0.0413 -0.1122,-0.24521 0.0724,-0.29282 1.5073,-3.885 2.0589,-5.1538 0.23472,-0.53997 0.37018,-0.96966 0.34094,-1.0815 -0.0944,-0.36122 -0.63495,-0.42494 -0.89742,-0.10574 -0.0767,0.0933 -2.1998,5.4023 -2.4629,6.1587 -0.0579,0.16641 -0.67921,0.51675 -0.91646,0.51675 -0.24667,0 -0.11186,-0.72298 0.35205,-1.888 0.33039,-0.82976 0.39769,-1.0851 0.33174,-1.2585 -0.20374,-0.53585 -0.70111,-0.31972 -0.9801,0.42591 -0.59016,1.5773 -1.4293,2.6315 -2.0947,2.6315 -0.33449,0 -0.0757,-1.0833 0.51598,-2.16 0.17727,-0.32262 0.32233,-0.6659 0.32233,-0.76283 0,-0.25439 -0.21193,-0.39282 -0.5515,-0.36022 -0.27451,0.0264 -0.32219,0.0825 -0.66751,0.78633 -0.46437,0.94649 -0.92108,2.32 -0.92108,2.77 0,1.0726 1.4528,1.158 2.3845,0.14024 l 0.3377,-0.36887 -9.4e-4,0.38686 c -9.5e-4,0.30439 0.0455,0.42474 0.21833,0.56467 0.26272,0.21273 0.55953,0.1748 1.183,-0.15117 0.50727,-0.26523 0.48271,-0.26327 0.54018,-0.0435 0.1236,0.47265 1.0093,0.41233 1.7534,-0.11944 0.22317,-0.1595 0.45152,-0.31767 0.50745,-0.35149 0.056,-0.0338 -0.17923,0.54472 -0.52258,1.2856 -0.82948,1.7898 -0.88612,2.3074 -0.25251,2.3074 0.36966,0 0.60827,-0.33366 0.9978,-1.3953 1.1752,-3.203 2.2041,-4.7575 3.1488,-4.7575 0.12504,0 0.22736,0.0366 0.22736,0.0814 0,0.0448 -0.18263,0.31559 -0.40583,0.60191 -1.3035,1.672 -1.3838,1.8185 -1.2329,2.2477 0.1149,0.32671 0.44376,0.47409 0.94153,0.42192 0.53154,-0.0556 0.9911,-0.29153 1.6717,-0.85794 0.29774,-0.24778 0.54105,-0.41896 0.54068,-0.38038 -3.4e-4,0.0385 -0.038,0.39113 -0.0837,0.78349 -0.28765,2.4738 -0.46651,4.0392 -0.63173,5.5286 -0.17388,1.5673 -0.20443,1.7091 -0.4078,1.8932 -0.39943,0.36152 -2.3748,0.8826 -4.317,1.1388 -0.95917,0.1265 -3.7417,0.2288 -4.6355,0.17041 z m -2.6751,-22.425 c -3.296,-0.24921 -5.3638,-0.63521 -5.7625,-1.0758 -0.16241,-0.17948 -0.16104,-0.18709 0.0693,-0.3853 0.7522,-0.64702 4.7348,-1.1134 9.5351,-1.1166 l 2.7274,-0.002 0.14787,-0.6019 c 0.0814,-0.33104 0.32983,-1.3041 0.55222,-2.1624 l 0.40434,-1.5605 0.69438,-0.71337 c 0.3819,-0.39234 1.4908,-1.556 2.4643,-2.5859 0.97345,-1.0299 1.8798,-1.9883 2.014,-2.1297 0.19363,-0.20395 0.29242,-0.24495 0.47797,-0.19837 0.28856,0.0724 0.90633,0.61855 0.96845,0.85614 0.0353,0.13546 -0.5312,0.78449 -2.498,2.8612 l -2.5438,2.6861 -0.43289,1.752 c -0.2381,0.96363 -0.43366,1.779 -0.43461,1.8118 -9.4e-4,0.0329 0.26914,0.0843 0.60019,0.11421 2.4529,0.22186 3.9348,0.46882 4.7472,0.79114 0.41212,0.16352 0.49161,0.23095 0.49161,0.41701 0,0.77989 -4.4132,1.3492 -10.271,1.3252 -1.6583,-0.007 -3.4364,-0.0443 -3.9514,-0.0832 z m 7.8742,-0.53466 c 0.36062,-0.10019 0.52281,-0.3203 0.32569,-0.44211 -0.0707,-0.0436 -0.19263,-0.0219 -0.30035,0.0535 -0.25641,0.17958 -1.508,0.17484 -1.6892,-0.007 -0.16227,-0.16226 -0.43371,-0.0782 -0.39526,0.12243 0.0603,0.31449 1.3116,0.48012 2.0592,0.27254 z" />
    </g>
  </g>
  <g
     id="g46"
     transform="translate(35.603409,-348.36495)">
    <path
       style="fill:#ffffff;stroke-width:0.039708"
       inkscape:connector-curvature="0"
       id="path40"
       d="m 98.647,165.3 v -0.81402 h 3.0576 v -3.2148 l -11.257,-0.0214 -0.35542,-0.11133 c -1.1283,-0.35344 -1.8264,-1.0587 -2.0963,-2.1178 l -0.0897,-0.35193 v -23.785 l 0.0889,-0.33753 c 0.25875,-0.98189 0.89262,-1.6861 1.8196,-2.0215 0.72094,-0.26086 -0.39351,-0.24376 15.146,-0.23236 l 14.116,0.0104 0.31648,0.0922 c 0.96655,0.28152 1.6158,0.78714 1.9723,1.5359 0.32803,0.68903 0.35812,1.0265 0.34337,3.8517 l -0.0114,2.184 -1.5253,0.0216 -0.0116,-2.433 c -0.0116,-2.4284 -0.0118,-2.4334 -0.10228,-2.6571 -0.17288,-0.42755 -0.44415,-0.70261 -0.87524,-0.88748 -0.18451,-0.0791 -0.27357,-0.0797 -14.302,-0.0901 -13.948,-0.0104 -14.119,-0.01 -14.375,0.0678 -0.39782,0.12037 -0.71994,0.37886 -0.8935,0.71701 -0.18371,0.35792 -0.17712,0.005 -0.17762,9.5201 l -4.5e-4,8.984 h 23.031 v 1.628 h -23.035 l 0.0118,1.8365 c 0.0111,1.7353 0.0162,1.8468 0.0914,2.0222 0.18405,0.42918 0.45403,0.68377 0.92877,0.87583 l 0.22257,0.0901 21.78,0.0208 v 1.5874 h -4.6062 v 3.2164 h 3.0973 v 1.628 h -12.31 z m 16.52,0.75037 c -0.45127,-0.12127 -0.80403,-0.41812 -1.0097,-0.84964 l -0.123,-0.25811 v -22.237 l 0.0927,-0.22969 c 0.1202,-0.29781 0.4496,-0.65474 0.73171,-0.79288 0.11832,-0.0579 0.32967,-0.12392 0.46966,-0.14663 0.35254,-0.0572 13.935,-0.0572 14.288,0 0.13999,0.0227 0.35134,0.0887 0.46966,0.14663 0.28211,0.13814 0.61151,0.49507 0.73171,0.79288 l 0.0927,0.22969 0.0111,3.2462 0.011,3.2462 h -1.5508 v -5.3606 h -13.819 v 19.179 h 9.2124 v 3.0973 l -4.6955,-0.003 c -4.0025,-0.002 -4.7276,-0.0112 -4.913,-0.061 z m 7.6544,-0.80571 c 0.28818,-0.14708 0.42159,-0.38929 0.39754,-0.72175 -0.0215,-0.29798 -0.15986,-0.51193 -0.40885,-0.63247 -0.36505,-0.17671 -0.83556,-0.0298 -1.012,0.31604 -0.14699,0.28813 -0.0786,0.72501 0.1439,0.91979 0.23229,0.20332 0.61266,0.25453 0.87939,0.11839 z m 4.0052,0.81144 c -0.18794,-0.067 -0.3278,-0.19385 -0.42697,-0.38722 -0.0734,-0.14319 -0.0756,-0.34641 -0.0756,-7.2442 v -7.0968 l 0.0851,-0.17588 c 0.0566,-0.11691 0.14573,-0.2143 0.26588,-0.29049 l 0.18083,-0.11463 h 4.0438 c 3.3065,0 4.0672,0.01 4.1722,0.0536 0.16856,0.0704 0.37077,0.30441 0.42493,0.49169 0.0307,0.10607 0.0399,2.2068 0.0316,7.2242 l -0.0117,7.0746 -0.11966,0.17218 c -0.07,0.10066 -0.19302,0.20929 -0.2963,0.26152 l -0.17664,0.0893 -4.6092,-0.004 0.17086,-0.0828 c 0.54599,-0.2647 0.57993,-1.0252 0.0601,-1.3475 -0.21235,-0.13169 -0.56732,-0.13169 -0.77966,0 -0.5198,0.32235 -0.48585,1.0828 0.0601,1.3475 l 0.17085,0.0828 -1.5089,4.5e-4 c -1.1778,0 -1.5424,-0.0117 -1.6616,-0.0542 z m 7.1612,-8.4201 v -5.3807 l -6.135,0.0204 -0.0101,5.3706 -0.0101,5.3706 h 6.1551 z m -29.484,0.36208 c -0.0655,-0.0286 -0.18421,-0.1241 -0.26375,-0.21222 -0.31613,-0.35023 -0.26518,-0.90245 0.10964,-1.1883 0.18565,-0.1416 0.5667,-0.17803 0.76884,-0.0735 0.38505,0.19912 0.54592,0.67508 0.36249,1.0725 -0.17221,0.37313 -0.62038,0.55729 -0.97722,0.40155 z" />
    <circle
       style="fill:#0656ff"
       id="circle42"
       r="26.458"
       cy="149.2"
       cx="111.72" />
    <path
       style="fill:#ffffff;stroke-width:0.031987"
       inkscape:connector-curvature="0"
       id="path44"
       d="m 101.19,162.17 v -0.65574 h 2.463 v -2.5897 l -9.0684,-0.018 -0.28631,-0.0897 c -0.90892,-0.28471 -1.4713,-0.85287 -1.6887,-1.706 l -0.07226,-0.28351 v -19.16 l 0.07161,-0.27189 c 0.20844,-0.79097 0.71905,-1.3583 1.4658,-1.6285 0.58076,-0.21013 -0.31699,-0.19636 12.201,-0.18718 l 11.371,0.008 0.25495,0.0743 c 0.7786,0.22678 1.3016,0.63409 1.5888,1.2372 0.26424,0.55505 0.28849,0.82694 0.2766,3.1028 l -0.009,1.7593 -1.2287,0.018 -0.01,-1.9599 c -0.01,-1.9562 -0.01,-1.9602 -0.0824,-2.1405 -0.13927,-0.34442 -0.35779,-0.566 -0.70506,-0.71491 -0.14863,-0.0637 -0.22037,-0.0643 -11.521,-0.0726 -11.236,-0.008 -11.374,-0.008 -11.58,0.0546 -0.32046,0.097 -0.57995,0.30519 -0.71976,0.57759 -0.14799,0.28833 -0.14268,0.004 -0.14308,7.669 l -3.63e-4,7.2371 h 18.553003 v 1.3115 H 93.764727 l 0.0095,1.4794 c 0.009,1.3979 0.01305,1.4877 0.07362,1.629 0.14826,0.34573 0.36575,0.55081 0.74818,0.70552 l 0.17929,0.0726 17.545003,0.016 v 1.2787 h -3.7105 v 2.591 h 2.495 v 1.3115 h -9.9161 z m 13.308,0.60447 c -0.36353,-0.0977 -0.64769,-0.33683 -0.81332,-0.68443 l -0.0991,-0.20792 v -17.913 l 0.0746,-0.18502 c 0.0968,-0.23991 0.36218,-0.52743 0.58943,-0.63871 0.0953,-0.0467 0.26557,-0.0998 0.37834,-0.11812 0.28398,-0.046 11.226,-0.046 11.51,0 0.11277,0.0183 0.28302,0.0714 0.37833,0.11812 0.22726,0.11128 0.49261,0.3988 0.58944,0.63871 l 0.0746,0.18502 0.018,5.2299 h -1.2493 v -4.3183 h -11.132 v 15.45 h 7.421 v 2.495 l -3.7825,-0.003 c -3.2242,-0.002 -3.8083,-0.009 -3.9576,-0.0491 z m 6.166,-0.64904 c 0.23215,-0.11849 0.33961,-0.31361 0.32025,-0.58142 -0.0173,-0.24003 -0.12878,-0.41239 -0.32936,-0.50948 -0.29406,-0.14235 -0.67308,-0.024 -0.8152,0.25458 -0.11841,0.23211 -0.0633,0.58404 0.11592,0.74094 0.18712,0.16379 0.49352,0.20504 0.70839,0.0954 z m 3.2264,0.65365 c -0.15139,-0.054 -0.26406,-0.15616 -0.34395,-0.31192 -0.0591,-0.11536 -0.0609,-0.27906 -0.0609,-5.8356 v -5.7169 l 0.0685,-0.14168 c 0.0456,-0.0942 0.11739,-0.17264 0.21418,-0.23402 l 0.14567,-0.0923 h 3.2575 c 2.6636,0 3.2763,0.008 3.3609,0.0432 0.13578,0.0567 0.29868,0.24521 0.3423,0.39608 0.0247,0.0855 0.0322,1.7777 0.0254,5.8195 l -0.01,5.699 -0.0964,0.1387 c -0.0564,0.0811 -0.15549,0.16858 -0.23869,0.21066 l -0.14228,0.0719 -3.713,-0.004 0.13764,-0.0667 c 0.43983,-0.21322 0.46717,-0.82583 0.0484,-1.0855 -0.17106,-0.10609 -0.45701,-0.10609 -0.62807,0 -0.41873,0.25966 -0.39137,0.87227 0.0484,1.0855 l 0.13763,0.0667 -1.2155,3.7e-4 c -0.94881,0 -1.2425,-0.01 -1.3385,-0.0437 z m 5.7687,-6.7828 v -4.3345 l -4.942,0.016 -0.008,4.3263 -0.008,4.3263 h 4.9583 z m -23.751,0.29168 c -0.0528,-0.023 -0.14841,-0.1 -0.21248,-0.17095 -0.25466,-0.28213 -0.21361,-0.72698 0.0884,-0.95727 0.14954,-0.11408 0.4565,-0.14342 0.61934,-0.0592 0.31017,0.16041 0.43977,0.54381 0.292,0.86397 -0.13873,0.30058 -0.49975,0.44893 -0.78719,0.32348 z" />
  </g>
  <g
     id="g52"
     transform="translate(-158.43983,-283.74195)">
    <circle
       style="fill:#f7df1e"
       id="circle48"
       r="26.458"
       cy="84.577003"
       cx="241.89999" />
    <path
       style="fill:#282828;stroke-width:0.19009"
       inkscape:connector-curvature="0"
       id="path50"
       d="m 253.62,93.113 c -2.1957,-0.46063 -3.9066,-1.7479 -4.7387,-3.5654 -0.40999,-0.89555 -0.46229,-1.2322 -0.38878,-2.5022 0.11941,-2.0627 0.72136,-3.2224 3.8758,-7.4671 l 2.6438,-3.5576 2.2448,-0.007 c 1.7458,-0.005 2.2133,0.0463 2.1033,0.23107 -0.38382,0.64473 -3.0997,4.1436 -3.7995,4.8948 l -0.79681,0.85541 h 1.5498 c 1.313,0 1.7156,0.0814 2.6348,0.53281 1.8765,0.9215 2.8188,2.5553 2.8035,4.8611 -0.0135,2.0397 -0.72041,3.4394 -2.3234,4.6006 -1.3522,0.97951 -4.0273,1.4967 -5.8086,1.123 z m 2.7372,-3.5891 c 1.301,-0.59091 1.7839,-2.1628 1.0394,-3.3837 -0.55002,-0.90206 -1.1813,-1.2361 -2.3195,-1.2273 -1.1749,0.009 -1.8065,0.39804 -2.3182,1.4276 -0.6042,1.2158 -0.0188,2.7051 1.2866,3.2734 0.80048,0.34853 1.3972,0.32529 2.3116,-0.09 z m -17.403,3.2993 c -1.4959,-0.41963 -2.5621,-1.1082 -3.4444,-2.2244 -0.7666,-0.9698 -0.76898,-0.97786 -0.3759,-1.273 0.21756,-0.16336 0.86911,-0.55248 1.4479,-0.86469 l 1.0523,-0.56769 0.48558,0.62048 c 0.771,0.98515 1.8246,1.4265 3.1723,1.329 0.94685,-0.0684 1.2112,-0.16889 1.5832,-0.60136 1.0075,-1.1712 0.27726,-2.2003 -2.3638,-3.3312 -3.4178,-1.4635 -4.6073,-2.8421 -4.5989,-5.3304 0.005,-1.5332 0.42201,-2.5188 1.462,-3.4564 1.0016,-0.90298 1.9242,-1.2053 3.672,-1.2032 1.8147,0.002 3.3409,0.67509 4.19,1.8473 0.30604,0.42248 0.55643,0.82116 0.55643,0.88597 0,0.0648 -0.59818,0.48695 -1.3293,0.9381 l -1.3293,0.82026 -0.49231,-0.58509 c -1.1257,-1.3378 -3.3121,-0.97682 -3.3121,0.54678 0,0.86383 0.54698,1.3232 2.9138,2.447 1.2725,0.60421 2.6286,1.3752 3.0136,1.7132 1.028,0.90278 1.5389,2.0924 1.5529,3.6155 0.0199,2.1717 -1.1,3.7983 -3.0975,4.4991 -1.2653,0.44387 -3.5055,0.52612 -4.7583,0.1747 z m -16.834,-0.13241 c -0.0507,-0.13225 -0.0699,-3.9187 -0.0427,-8.4143 l 0.0497,-8.1738 11.136,-0.1008 -0.0552,1.5711 -0.0552,1.5711 -7.5085,0.103 v 3.6037 h 6.6531 v 2.8513 h -6.6531 v 3.9842 l 7.8887,0.1028 v 3.0414 l -5.66,0.0503 c -4.4255,0.0394 -5.6802,-0.002 -5.7523,-0.19009 z" />
  </g>
  <g
     id="g72"
     transform="translate(-421.96307,-455.90494)">
    <g
       id="g70">
      <circle
         style="fill:#f05334"
         id="circle54"
         r="26.327"
         cy="256.73999"
         cx="441.56" />
      <path
         style="fill:#f05033"
         inkscape:connector-curvature="0"
         id="path56"
         d="m 440.4,276.26 c -0.19151,-0.0997 -4.3649,-4.1901 -9.2741,-9.0897 -6.3526,-6.3401 -8.9942,-9.0433 -9.1627,-9.3763 -0.34381,-0.60787 -0.38058,-1.6749 -0.009,-2.2356 0.13003,-0.24674 2.6963,-2.8901 6.3088,-6.4982 l 6.0896,-6.0823 2.2369,2.235 c 1.5729,1.5715 2.2166,2.2813 2.1686,2.3909 -0.13163,0.30059 -0.16183,1.411 -0.0497,1.8275 0.17378,0.64537 0.72619,1.3961 1.2812,1.7411 l 0.4984,0.30982 -2e-4,5.4175 -2.1e-4,5.4174 -0.47158,0.29793 c -1.184,0.74801 -1.7007,2.2651 -1.2359,3.629 0.22553,0.66191 0.87086,1.3594 1.5779,1.7053 0.75978,0.37172 1.7966,0.39839 2.5371,0.0653 1.4122,-0.6354 2.1508,-2.2652 1.6932,-3.7362 -0.15159,-0.48739 -0.32097,-0.74172 -0.84519,-1.269 l -0.65557,-0.65951 v -10.637 l 4.0196,4.0156 -0.14852,0.58315 c -0.13093,0.51405 -0.12924,0.66124 0.0142,1.2426 0.78853,3.1953 5.1312,3.2244 5.947,0.0399 0.16884,-0.65905 0.0976,-1.49 -0.1723,-2.0103 -0.26937,-0.51921 -0.82823,-1.0883 -1.3556,-1.3804 -0.51135,-0.28322 -0.6421,-0.30896 -1.5709,-0.30916 l -1.0131,-2.1e-4 -4.227,-4.2232 0.10215,-0.56359 c 0.3605,-1.9888 -1.5382,-3.9129 -3.4706,-3.5171 l -0.5047,0.10338 -4.533,-4.5365 1.9227,-1.931 c 1.0575,-1.062 2.1098,-2.0295 2.3386,-2.1499 0.53718,-0.35164 1.6427,-0.3598 2.2356,0.0128 0.67016,0.34449 18.188,17.869 18.515,18.521 0.27189,0.54345 0.31647,1.3889 0.10692,2.0276 -0.11206,0.34159 -1.7467,2.0287 -9.1452,9.4388 -6.091,6.1006 -9.1527,8.9572 -9.4246,9.2212 -0.55056,0.53749 -1.6108,0.44923 -2.3238,-0.0381 z" />
      <path
         style="fill:#ffffff"
         inkscape:connector-curvature="0"
         id="path58"
         d="m 440.4,276.26 c -0.19151,-0.0997 -4.3649,-4.1901 -9.2741,-9.0897 -6.3526,-6.3401 -8.9942,-9.0433 -9.1627,-9.3763 -0.34381,-0.60788 -0.38059,-1.6749 -0.009,-2.2356 0.13002,-0.24674 2.6963,-2.8901 6.3088,-6.4982 l 9.8343,-9.834 c 1.0575,-1.062 2.1098,-2.0295 2.3386,-2.1499 0.53718,-0.35164 1.6427,-0.3598 2.2356,0.0128 0.67016,0.34449 18.188,17.869 18.515,18.521 0.27189,0.54345 0.31647,1.3889 0.10693,2.0276 -0.11206,0.34159 -1.7467,2.0287 -9.1452,9.4388 -6.091,6.1006 -9.1527,8.9572 -9.4246,9.2212 -0.55056,0.53749 -1.6108,0.44923 -2.3238,-0.0381 z" />
      <path
         style="fill:#f05033"
         inkscape:connector-curvature="0"
         id="path60"
         d="m 440.4,276.26 c -0.19151,-0.0997 -4.3649,-4.1901 -9.2741,-9.0897 -6.3526,-6.3401 -8.9942,-9.0433 -9.1627,-9.3763 -0.34381,-0.60787 -0.38058,-1.6749 -0.009,-2.2356 0.13003,-0.24674 2.6963,-2.8901 6.3088,-6.4982 l 6.0896,-6.0823 2.2369,2.235 c 1.5729,1.5715 2.2166,2.2813 2.1686,2.3909 -0.13163,0.30059 -0.16183,1.411 -0.0497,1.8275 0.17378,0.64537 0.72619,1.3961 1.2812,1.7411 l 0.4984,0.30982 -2e-4,5.4175 -2.1e-4,5.4174 -0.47158,0.29793 c -1.184,0.74801 -1.7007,2.2651 -1.2359,3.629 0.22553,0.66191 0.87086,1.3594 1.5779,1.7053 0.75978,0.37172 1.7966,0.39839 2.5371,0.0653 1.4122,-0.6354 2.1508,-2.2652 1.6932,-3.7362 -0.15159,-0.48739 -0.32097,-0.74172 -0.84519,-1.269 l -0.65557,-0.65951 v -10.637 l 4.0196,4.0156 -0.14852,0.58315 c -0.13093,0.51405 -0.12924,0.66124 0.0142,1.2426 0.78853,3.1953 5.1312,3.2244 5.947,0.0399 0.16884,-0.65905 0.0976,-1.49 -0.1723,-2.0103 -0.26937,-0.51921 -0.82823,-1.0883 -1.3556,-1.3804 -0.51135,-0.28322 -0.6421,-0.30896 -1.5709,-0.30916 l -1.0131,-2.1e-4 -4.227,-4.2232 0.10215,-0.56359 c 0.3605,-1.9888 -1.5382,-3.9129 -3.4706,-3.5171 l -0.5047,0.10338 -4.533,-4.5365 1.9227,-1.931 c 1.0575,-1.062 2.1098,-2.0295 2.3386,-2.1499 0.53718,-0.35164 1.6427,-0.3598 2.2356,0.0128 0.67016,0.34449 18.188,17.869 18.515,18.521 0.27189,0.54345 0.31647,1.3889 0.10692,2.0276 -0.11206,0.34159 -1.7467,2.0287 -9.1452,9.4388 -6.091,6.1006 -9.1527,8.9572 -9.4246,9.2212 -0.55056,0.53749 -1.6108,0.44923 -2.3238,-0.0381 z" />
      <path
         style="fill:#ffffff"
         inkscape:connector-curvature="0"
         id="path62"
         d="m 440.4,276.26 c -0.19151,-0.0997 -4.3649,-4.1901 -9.2741,-9.0897 -6.3526,-6.3401 -8.9942,-9.0433 -9.1627,-9.3763 -0.34381,-0.60788 -0.38059,-1.6749 -0.009,-2.2356 0.13002,-0.24674 2.6963,-2.8901 6.3088,-6.4982 l 9.8343,-9.834 c 1.0575,-1.062 2.1098,-2.0295 2.3386,-2.1499 0.53718,-0.35164 1.6427,-0.3598 2.2356,0.0128 0.67016,0.34449 18.188,17.869 18.515,18.521 0.27189,0.54345 0.31647,1.3889 0.10693,2.0276 -0.11206,0.34159 -1.7467,2.0287 -9.1452,9.4388 -6.091,6.1006 -9.1527,8.9572 -9.4246,9.2212 -0.55056,0.53749 -1.6108,0.44923 -2.3238,-0.0381 z" />
      <path
         style="fill:#f05033"
         inkscape:connector-curvature="0"
         id="path64"
         d="m 440.4,276.26 c -0.19151,-0.0997 -4.3649,-4.1901 -9.2741,-9.0897 -6.3526,-6.3401 -8.9942,-9.0433 -9.1627,-9.3763 -0.34381,-0.60787 -0.38058,-1.6749 -0.009,-2.2356 0.13003,-0.24674 2.6963,-2.8901 6.3088,-6.4982 l 6.0896,-6.0823 2.2369,2.235 c 1.5729,1.5715 2.2166,2.2813 2.1686,2.3909 -0.13163,0.30059 -0.16183,1.411 -0.0497,1.8275 0.17378,0.64537 0.72619,1.3961 1.2812,1.7411 l 0.4984,0.30982 -2e-4,5.4175 -2.1e-4,5.4174 -0.47158,0.29793 c -1.184,0.74801 -1.7007,2.2651 -1.2359,3.629 0.22553,0.66191 0.87086,1.3594 1.5779,1.7053 0.75978,0.37172 1.7966,0.39839 2.5371,0.0653 1.4122,-0.6354 2.1508,-2.2652 1.6932,-3.7362 -0.15159,-0.48739 -0.32097,-0.74172 -0.84519,-1.269 l -0.65557,-0.65951 v -10.637 l 4.0196,4.0156 -0.14852,0.58315 c -0.13093,0.51405 -0.12924,0.66124 0.0142,1.2426 0.78853,3.1953 5.1312,3.2244 5.947,0.0399 0.16884,-0.65905 0.0976,-1.49 -0.1723,-2.0103 -0.26937,-0.51921 -0.82823,-1.0883 -1.3556,-1.3804 -0.51135,-0.28322 -0.6421,-0.30896 -1.5709,-0.30916 l -1.0131,-2.1e-4 -4.227,-4.2232 0.10215,-0.56359 c 0.3605,-1.9888 -1.5382,-3.9129 -3.4706,-3.5171 l -0.5047,0.10338 -4.533,-4.5365 1.9227,-1.931 c 1.0575,-1.062 2.1098,-2.0295 2.3386,-2.1499 0.53718,-0.35164 1.6427,-0.3598 2.2356,0.0128 0.67016,0.34449 18.188,17.869 18.515,18.521 0.27189,0.54345 0.31647,1.3889 0.10692,2.0276 -0.11206,0.34159 -1.7467,2.0287 -9.1452,9.4388 -6.091,6.1006 -9.1527,8.9572 -9.4246,9.2212 -0.55056,0.53749 -1.6108,0.44923 -2.3238,-0.0381 z" />
      <path
         style="fill:#ffffff;stroke:#ffffff;stroke-width:1.26259995"
         inkscape:connector-curvature="0"
         id="path66"
         d="m 440.4,276.26 c -0.19151,-0.0997 -4.3649,-4.1901 -9.2741,-9.0897 -6.3526,-6.3401 -8.9942,-9.0433 -9.1627,-9.3763 -0.34381,-0.60788 -0.38058,-1.6749 -0.009,-2.2356 0.13003,-0.24674 2.6963,-2.8901 6.3088,-6.4982 l 9.8343,-9.834 c 1.0575,-1.062 2.1098,-2.0295 2.3386,-2.1499 0.53717,-0.35164 1.6426,-0.3598 2.2356,0.0128 0.67015,0.34449 18.188,17.869 18.515,18.521 0.27189,0.54345 0.31647,1.3889 0.10693,2.0276 -0.11207,0.34159 -1.7467,2.0287 -9.1452,9.4388 -6.091,6.1006 -9.1527,8.9572 -9.4246,9.2212 -0.55056,0.53749 -1.6108,0.44923 -2.3238,-0.0381 z" />
      <path
         style="fill:#f05033"
         inkscape:connector-curvature="0"
         id="path68"
         d="m 440.4,276.26 c -0.19151,-0.0997 -4.3649,-4.1901 -9.2741,-9.0897 -6.3526,-6.3401 -8.9942,-9.0433 -9.1627,-9.3763 -0.34381,-0.60787 -0.38058,-1.6749 -0.009,-2.2356 0.13003,-0.24674 2.6963,-2.8901 6.3088,-6.4982 l 6.0896,-6.0823 2.2369,2.235 c 1.5729,1.5715 2.2166,2.2813 2.1686,2.3909 -0.13163,0.30059 -0.16183,1.411 -0.0497,1.8275 0.17378,0.64537 0.72619,1.3961 1.2812,1.7411 l 0.4984,0.30982 -2e-4,5.4175 -2.1e-4,5.4174 -0.47158,0.29793 c -1.184,0.74801 -1.7007,2.2651 -1.2359,3.629 0.22553,0.66191 0.87086,1.3594 1.5779,1.7053 0.75978,0.37172 1.7966,0.39839 2.5371,0.0653 1.4122,-0.6354 2.1508,-2.2652 1.6932,-3.7362 -0.15159,-0.48739 -0.32097,-0.74172 -0.84519,-1.269 l -0.65557,-0.65951 v -10.637 l 4.0196,4.0156 -0.14852,0.58315 c -0.13093,0.51405 -0.12924,0.66124 0.0142,1.2426 0.78853,3.1953 5.1312,3.2244 5.947,0.0399 0.16884,-0.65905 0.0976,-1.49 -0.1723,-2.0103 -0.26937,-0.51921 -0.82823,-1.0883 -1.3556,-1.3804 -0.51135,-0.28322 -0.6421,-0.30896 -1.5709,-0.30916 l -1.0131,-2.1e-4 -4.227,-4.2232 0.10215,-0.56359 c 0.3605,-1.9888 -1.5382,-3.9129 -3.4706,-3.5171 l -0.5047,0.10338 -4.533,-4.5365 1.9227,-1.931 c 1.0575,-1.062 2.1098,-2.0295 2.3386,-2.1499 0.53718,-0.35164 1.6427,-0.3598 2.2356,0.0128 0.67016,0.34449 18.188,17.869 18.515,18.521 0.27189,0.54345 0.31647,1.3889 0.10692,2.0276 -0.11206,0.34159 -1.7467,2.0287 -9.1452,9.4388 -6.091,6.1006 -9.1527,8.9572 -9.4246,9.2212 -0.55056,0.53749 -1.6108,0.44923 -2.3238,-0.0381 z" />
    </g>
  </g>
  <g
     id="g90"
     transform="matrix(0.54556,0,0,0.54556,286.50485,-291.5248)">
    <g
       id="g88"
       transform="matrix(1.0063,0,0,1.0063,-855.56,-507.76)">
      <ellipse
         id="ellipse74"
         style="opacity:0.93999999;fill:#ffffff;stroke:#000000;stroke-width:12.1239996;paint-order:markers stroke fill"
         ry="40.876999"
         rx="42.130001"
         cy="792.29999"
         cx="364.03" />
      <g
         id="g86"
         transform="matrix(0.155,0,0,0.155,263.53,741.3)">
        <path
           inkscape:connector-curvature="0"
           id="path76"
           style="opacity:0.93999999;paint-order:markers stroke fill"
           d="m 787.85,184.46 c -7e-5,33.78 1.7e-4,67.12 2.7e-4,101.6 7e-5,17.003 -13.688,30.692 -30.692,30.692 h -203.2 c -17.003,0 -30.692,-13.688 -30.692,-30.692 v -101.6 c 95.531,0.0512 179.95,0 264.58,0 z"
           transform="matrix(1.833,0,0,1.833,-553.24,3.4427)" />
        <g
           id="g80"
           transform="matrix(1.833,0,0,1.833,-338.56,74.316)">
          <path
             inkscape:connector-curvature="0"
             id="path78"
             style="opacity:0.93999999;fill:#feb03a;stroke:#000000;stroke-width:32.88399887;paint-order:markers stroke fill"
             d="m 538.72,30.17 c -0.64396,-0.01002 -1.2757,0.02004 -1.8885,0.08167 -5.3751,0.5606 -9.4306,2.477 -13.124,6.2011 -3.0678,3.0934 -4.8705,6.4195 -5.787,10.678 -0.44343,2.0514 -0.44243,5.9448 0,7.9777 0.81639,3.7498 2.4049,6.9541 4.8393,9.7617 l 1.0175,1.1735 v 44.063 h -0.32046 c -0.23547,0 -4.4014,-4.0908 -15.724,-15.44 l -15.404,-15.439 -0.13548,-1.668 c -0.24746,-3.0401 -0.89473,-5.3597 -2.2266,-7.9775 -2.8861,-5.6721 -7.9359,-9.5909 -14.336,-11.125 -1.1065,-0.26506 -1.7084,-0.30916 -4.2752,-0.31066 -2.6625,-0.003 -3.1343,0.0351 -4.3388,0.33321 -4.31,1.0691 -7.273,2.7254 -10.334,5.7767 -2.481,2.4734 -4.0643,4.9928 -5.101,8.1164 -0.83984,2.5304 -0.99602,3.5621 -0.99602,6.5801 0,3.0179 0.15598,4.0499 0.99602,6.5804 2.3292,7.0178 8.4291,12.435 15.71,13.952 0.58196,0.12125 1.7958,0.2806 2.6975,0.35426 l 1.6396,0.13378 15.404,15.439 c 11.323,11.348 15.404,15.524 15.404,15.76 v 0.32118 h -43.963 l -1.171,-1.0198 c -2.917,-2.5407 -6.2354,-4.1535 -10.133,-4.9251 -1.9043,-0.37682 -5.627,-0.33974 -7.5663,0.0757 -2.7586,0.591 -5.2615,1.6402 -7.584,3.1793 -1.7514,1.1606 -4.4564,3.8572 -5.6705,5.6528 -2.0594,3.0457 -3.3356,6.7261 -3.6317,10.475 l -0.076,0.9624 0.076,0.9624 c 0.29596,3.749 1.5723,7.4294 3.6317,10.475 1.2141,1.7956 3.9191,4.4924 5.6705,5.6531 2.3226,1.5391 4.8254,2.5883 7.584,3.1793 1.9393,0.41539 5.6619,0.45297 7.5663,0.0757 3.8976,-0.77159 7.216,-2.3847 10.133,-4.9254 l 1.171,-1.0198 h 43.963 v 0.32118 c 0,0.236 -4.0813,4.4117 -15.404,15.76 l -15.404,15.439 -1.6396,0.13379 c -0.90173,0.0737 -2.1156,0.233 -2.6975,0.35426 -7.2814,1.5171 -13.381,6.9344 -15.71,13.952 -0.83984,2.5304 -0.99602,3.5621 -0.99602,6.5801 0,3.018 0.15598,4.05 0.99602,6.5804 1.0367,3.1236 2.62,5.6427 5.101,8.1161 3.0606,3.0513 6.0235,4.7076 10.334,5.7767 1.2045,0.29863 1.6763,0.33471 4.3388,0.33321 2.5668,-0.001 3.1688,-0.0451 4.2752,-0.31066 6.3997,-1.5339 11.45,-5.4527 14.336,-11.125 1.3319,-2.6178 1.9794,-4.9374 2.2266,-7.9774 l 0.13548,-1.668 15.404,-15.439 c 11.323,-11.349 15.489,-15.439 15.724,-15.439 h 0.32046 v 44.062 l -1.0175,1.1735 c -2.4344,2.8076 -4.0229,6.0119 -4.8393,9.7617 -0.44243,2.0329 -0.44343,5.9266 0,7.978 0.91652,4.2584 2.7191,7.5841 5.787,10.678 3.6933,3.7241 7.7489,5.6406 13.124,6.2011 3.2683,0.34072 7.0736,-0.37178 10.414,-1.9504 5.9257,-2.8002 10.289,-8.3694 11.696,-14.928 0.45044,-2.0987 0.44644,-5.8127 -0.01,-7.9402 -0.81499,-3.8128 -2.3424,-6.9054 -4.8436,-9.8065 l -1.0058,-1.1665 v -44.062 h 0.32046 c 0.23547,0 4.3988,4.0886 15.717,15.434 l 15.396,15.434 0.14648,1.6906 c 0.26846,3.0961 0.90247,5.3672 2.2147,7.9385 2.1155,4.1451 5.2876,7.2988 9.38,9.325 2.0244,1.0023 2.951,1.3436 4.9423,1.8201 1.1398,0.27258 1.719,0.31517 4.3044,0.31718 2.6625,0.003 3.1343,-0.0351 4.3388,-0.33321 4.297,-1.0659 7.2777,-2.7341 10.327,-5.7797 3.0979,-3.094 4.9102,-6.439 5.8464,-10.79 0.36445,-1.6936 0.36395,-6.1096 0,-7.824 -1.1656,-5.4794 -4.4042,-10.382 -8.8199,-13.351 -3.1666,-2.1294 -6.5214,-3.3035 -10.326,-3.6144 l -1.6393,-0.13379 -15.405,-15.439 c -11.323,-11.348 -15.404,-15.524 -15.404,-15.76 v -0.32118 h 43.975 l 1.1464,1.0125 c 2.8377,2.5062 6.3542,4.2128 10.145,4.9232 2.1129,0.39585 5.4685,0.36428 7.5272,-0.0712 4.2733,-0.90367 7.5899,-2.7006 10.692,-5.7926 3.7622,-3.75 5.7328,-8.0425 6.2348,-13.582 l 0.081,-0.8911 -0.081,-0.89115 c -0.50204,-5.539 -2.4726,-9.8316 -6.2348,-13.581 -3.1021,-3.0919 -6.4187,-4.8887 -10.692,-5.7923 -2.0587,-0.43544 -5.4143,-0.46751 -7.5272,-0.0712 -3.7909,0.71041 -7.3075,2.417 -10.145,4.9232 l -1.1464,1.0125 h -43.975 v -0.32118 c 0,-0.236 4.0814,-4.4117 15.404,-15.76 l 15.405,-15.439 1.6393,-0.13378 c 3.8049,-0.31067 7.1597,-1.4852 10.326,-3.6145 4.4157,-2.9693 7.6543,-7.8719 8.8199,-13.351 0.36395,-1.7144 0.36445,-6.1305 0,-7.824 -0.93612,-4.3513 -2.7485,-7.6963 -5.8464,-10.79 -3.0495,-3.0456 -6.0302,-4.7138 -10.327,-5.7798 -1.2044,-0.29864 -1.6763,-0.33522 -4.3388,-0.33321 -2.5854,10e-4 -3.1646,0.0451 -4.3044,0.31717 -1.9913,0.47652 -2.9179,0.8178 -4.9423,1.8201 -4.0924,2.0262 -7.2645,5.1799 -9.38,9.325 -1.3122,2.5713 -1.946,4.8424 -2.2147,7.9385 l -0.14648,1.6906 -15.396,15.434 c -11.318,11.346 -15.481,15.434 -15.717,15.434 h -0.32046 v -44.062 l 1.0058,-1.1665 c 2.5013,-2.9011 4.0287,-5.9937 4.8436,-9.8065 0.45444,-2.1274 0.45844,-5.8411 0.01,-7.9398 -1.4073,-6.5589 -5.7707,-12.128 -11.696,-14.928 -2.7142,-1.2827 -5.7352,-1.9936 -8.5256,-2.0323 z" />
        </g>
        <path
           inkscape:connector-curvature="0"
           id="path82"
           style="opacity:0.93999999;fill-opacity:0.85506999;paint-order:markers stroke fill"
           d="m 787.85,184.46 c -7e-5,33.78 1.7e-4,67.12 3.4e-4,101.6 8e-5,17.003 -13.688,30.692 -30.692,30.692 h -203.2 c -17.003,0 -30.692,-13.688 -30.692,-30.692 v -101.6 c 95.531,0.0512 179.95,0 264.58,0 z"
           transform="matrix(1.833,0,0,1.833,-553.24,3.4427)" />
        <path
           style="fill:#ffffff;stroke-width:0.25929999"
           inkscape:connector-curvature="0"
           id="path84"
           d="m 782.84,569.18 c 26.272,-3.2351 47.987,-22.623 54.008,-48.22 1.6556,-7.0394 1.5745,-4.9326 1.6668,-43.238 l 0.0843,-34.94 h -63.286 v 37.339 h 26.223 l -0.10772,14.974 c -0.0902,12.589 -0.17375,15.243 -0.52245,16.66 -1.8895,7.6785 -6.2943,13.644 -12.771,17.295 -10.372,5.8469 -23.153,4.0969 -31.507,-4.3139 -3.3822,-3.4054 -5.5943,-7.2795 -6.9373,-12.149 l -0.69395,-2.5167 -0.0794,-46.803 c -0.0823,-48.748 -0.0617,-49.833 1.0164,-53.728 4.1945,-15.15 20.903,-23.17 35.558,-17.069 5.3174,2.2137 10.136,6.6942 12.913,12.007 1.7244,3.2988 2.597,6.2958 2.9804,10.237 l 0.18275,1.8799 h 37.09 l -0.1765,-3.1763 c -1.5224,-27.391 -20.189,-50.689 -46.359,-57.859 -6.4416,-1.7649 -9.0991,-2.0933 -16.941,-2.0933 -7.8416,0 -10.499,0.32835 -16.941,2.0933 -25.301,6.9321 -43.75,29.083 -46.193,55.461 -0.35614,3.8462 -0.35642,96.39 0,100.48 1.358,15.588 7.9667,29.442 19.243,40.342 10.458,10.109 23.323,16.046 38.057,17.564 2.6146,0.26921 10.565,0.13857 13.491,-0.22178 z m -115.81,-0.0559 c 0.0745,-0.24961 1.4879,-6.988 3.1405,-14.974 4.9659,-23.999 16.396,-79.19 21.238,-102.55 2.4977,-12.051 8.045,-38.83 12.327,-59.508 4.2825,-20.679 7.8484,-37.861 7.9243,-38.183 l 0.13808,-0.58515 -18.594,0.0666 -18.594,0.0665 -12.752,61.583 c -7.0136,33.871 -12.901,62.283 -13.084,63.139 -0.27547,1.2911 -0.36143,1.4455 -0.50549,0.9075 -0.0951,-0.35653 -5.9996,-28.797 -13.12,-63.201 l -12.947,-62.553 -18.622,-0.003 c -17.615,-0.003 -18.615,0.0223 -18.485,0.45148 0.0755,0.24951 3.288,15.681 7.1385,34.292 6.5697,31.753 15.476,74.775 26.624,128.61 2.643,12.764 6.1446,29.683 7.7812,37.598 1.6366,7.915 3.0368,14.595 3.1114,14.845 0.1278,0.4267 1.2417,0.45385 18.641,0.45385 17.399,0 18.513,-0.0274 18.641,-0.45385 z m -137.93,0.0617 c 11.038,-1.2912 21.614,-5.5389 30.547,-12.269 20.969,-15.797 30.015,-42.518 22.972,-67.851 -2.3325,-8.3893 -6.8872,-16.907 -12.785,-23.91 -10.336,-12.272 -25.167,-19.398 -45.775,-21.994 -4.7821,-0.60232 -10.639,-1.8332 -12.934,-2.7185 -2.6287,-1.0137 -4.8139,-2.3542 -6.9377,-4.2558 -8.6609,-7.7549 -11.23,-20.188 -6.3313,-30.646 6.6378,-14.172 23.891,-19.408 37.401,-11.35 2.2984,1.3708 6.5463,5.3233 7.929,7.3775 2.3681,3.5184 4.0017,7.9712 4.5014,12.27 l 0.32008,2.754 h 36.986 v -1.6404 c 0,-6.5688 -1.8685,-15.299 -4.8379,-22.604 -7.2757,-17.899 -23.418,-32.038 -42.203,-36.967 -6.1938,-1.625 -8.6931,-1.9181 -16.357,-1.9181 -6.1697,0 -7.3962,0.0709 -10.329,0.59676 -11.173,2.0035 -21.07,6.4643 -29.606,13.345 -2.508,2.0215 -7.3567,6.8903 -9.3469,9.3858 -19.643,24.63 -18.579,59.467 2.5186,82.483 3.5898,3.9162 5.6646,5.7104 9.6954,8.3843 8.1116,5.381 19.28,9.3162 33.178,11.691 12.854,2.1958 17.713,3.98 22.07,8.1038 8.4415,7.9907 10.492,20.365 5.1099,30.836 -3.4156,6.6452 -9.1985,11.307 -16.548,13.34 -3.4714,0.96012 -8.1789,1.1076 -11.753,0.36839 -7.4683,-1.545 -13.59,-5.8349 -17.42,-12.208 -2.1479,-3.5737 -3.2992,-7.1711 -3.754,-11.73 l -0.17464,-1.7502 h -37.108 l 0.17875,3.0468 c 0.96179,16.387 7.5803,31.002 19.115,42.211 4.4375,4.3121 8.3472,7.2421 13.577,10.176 6.4009,3.5899 15.036,6.4478 22.04,7.2948 1.2835,0.15514 2.6254,0.32429 2.9819,0.37574 1.8342,0.265 10.097,0.12103 13.079,-0.22785 z" />
      </g>
    </g>
  </g>
  <g
     id="g114"
     transform="translate(285.96341,30.861986)">
    <circle
       id="circle92"
       style="opacity:0.93999999;paint-order:normal"
       r="26.458"
       cy="-164.42999"
       cx="-138.64" />
    <g
       style="fill:#ffffff"
       id="g102"
       transform="matrix(0.67442,0,0,0.67442,-44.875,-65.27)">
      <path
         inkscape:connector-curvature="0"
         id="path94"
         d="m -153.99,-163.9 v -11.377 h 8.7312 v 22.754 h -8.7312 z" />
      <path
         inkscape:connector-curvature="0"
         id="path96"
         d="m -143.4,-157.69 v -5.1594 h 8.7312 v 10.319 H -143.4 Z" />
      <path
         inkscape:connector-curvature="0"
         id="path98"
         d="m -132.82,-157.69 v -5.1594 h 8.7312 v 10.319 h -8.7312 z" />
      <path
         inkscape:connector-curvature="0"
         id="path100"
         d="m -143.4,-169.99 v -5.295 h 19.326 l -0.1434,10.451 -19.182,0.1388 z" />
    </g>
    <g
       style="fill:#ffffff"
       id="g112"
       transform="matrix(1.0277,0,0,1.0277,258.22,-79.889)">
      <path
         inkscape:connector-curvature="0"
         id="path104"
         d="m -1455.7,-294.75 c -3.2902,0.008 -6.5866,0.52961 -8.5722,1.5606 -4.483,2.3277 -9.1968,8.1129 -9.9707,12.238 -2.1852,11.648 1.94,20.201 11.666,24.193 4.6238,1.1823 8.554,2.3488 15.008,0.33399 5.4051,-2.0538 8.9341,-4.6307 8.8418,-6.457 -0.03,-0.60225 -1.4418,-2.1934 -3.1367,-3.5352 -2.9854,-2.3633 -3.1736,-2.3868 -6.0254,-0.75 -4.02,2.3072 -9.3029,2.1678 -11.781,-0.31055 -1.1,-1.1 -2,-2.45 -2,-3 0,-0.61333 4.8334,-1 12.5,-1 h 12.5 v -4.0312 c 0,-7.3607 -4.1865,-14.428 -10.5,-17.725 -1.955,-1.0208 -5.239,-1.526 -8.5293,-1.5176 z m 0.3125,9.873 c 0.6855,0.0302 1.3558,0.19384 1.9668,0.51563 2.5348,1.3348 3.7119,2.7955 3.7344,4.6348 0.011,0.86281 -1.8428,1.25 -5.9844,1.25 -4.1415,0 -5.9968,-0.38719 -5.9863,-1.25 0.036,-2.905 3.2993,-5.2815 6.2695,-5.1504 z"
         transform="scale(0.26458)" />
      <path
         inkscape:connector-curvature="0"
         id="path106"
         d="m -397.57,-71.432 v -3.5719 h 2.1167 v -2.6458 h -1.0583 c -0.86201,0 -1.0583,-0.0929 -1.0583,-0.50086 0,-0.60598 0.60886,-0.87854 1.4762,-0.66084 0.61492,0.15433 0.64043,0.10689 0.64043,-1.1909 v -1.3516 h -1.9487 c -2.3878,0 -3.1957,0.50359 -3.6402,2.2692 -0.2178,0.86497 -0.0621,1.1704 -0.5703,1.1821 -0.42684,0.0098 -0.71992,0.19531 -0.71992,1.4435 0,1.2788 0.065,1.4268 0.52916,1.4552 0.5732,0.03508 0.52917,0.17639 0.52917,3.5719 v 3.5719 h 3.7042 z" />
      <path
         inkscape:connector-curvature="0"
         id="path108"
         d="m -390.75,-74.541 -0.0707,-6.6807 -3.5719,-0.1564 v 13.518 h 3.7132 z" />
      <path
         inkscape:connector-curvature="0"
         id="path110"
         d="m -376.05,-69.104 0.75096,-1.2433 1.4046,2.4844 3.8973,0.0022 -0.47298,-0.7276 c -0.26014,-0.40018 -1.0059,-1.5316 -1.6572,-2.5142 l -1.1842,-1.7866 1.5606,-2.3144 c 0.85834,-1.273 1.6003,-2.4037 1.6488,-2.5129 0.0485,-0.10914 -0.75015,-0.19844 -1.7748,-0.19844 h -1.863 l -0.69778,1.1907 c -0.38379,0.65488 -0.7999,1.1276 -0.9247,1.0504 -0.12481,-0.07713 -0.49259,-0.61294 -0.8173,-1.1907 l -0.59038,-1.0504 h -1.8034 c -0.99185,0 -1.8031,0.0893 -1.8028,0.19844 2.7e-4,0.10914 0.70708,1.2595 1.5706,2.5563 l 1.57,2.3579 -3.4452,4.9415 h 3.8798 z" />
    </g>
  </g>
  <g
     id="g154"
     transform="translate(225.28017,-38.50701)">
    <circle
       id="circle116"
       style="opacity:0.93999999;fill:#f2f5fa;stroke:#068dde;stroke-width:2.51979995;paint-order:normal"
       r="25.198"
       cy="-95.060997"
       cx="-141.82001" />
    <g
       id="g152"
       transform="matrix(0.52889,0,0,0.52889,36.964,88.024)">
      <path
         style="fill:#068dde;stroke-width:0.35278001"
         inkscape:connector-curvature="0"
         id="path118"
         d="m -373.08,-337.46 c -0.99512,-1.0592 -0.97548,-2.3925 0.0494,-3.3554 0.78352,-0.73608 1.1086,-0.76705 8.0524,-0.76705 7.1075,0 7.2495,0.0145 8.003,0.81649 0.99511,1.0592 0.97547,2.3925 -0.0494,3.3554 -0.78352,0.73608 -1.1086,0.76705 -8.0524,0.76705 -7.1075,0 -7.2495,-0.0145 -8.003,-0.81649 z" />
      <path
         style="fill:#068dde;stroke-width:0.35278001"
         inkscape:connector-curvature="0"
         id="path120"
         d="m -357.62,-338.06 c 0.38806,-0.38806 0.70556,-0.86431 0.70556,-1.0583 0,-0.19402 -0.3175,-0.67027 -0.70556,-1.0583 -0.65604,-0.65604 -1.1759,-0.70555 -7.4083,-0.70555 -6.2324,0 -6.7523,0.0495 -7.4083,0.70555 -0.38806,0.38806 -0.70556,0.86431 -0.70556,1.0583 0,0.19403 0.3175,0.67028 0.70556,1.0583 0.65604,0.65604 1.1759,0.70555 7.4083,0.70555 6.2324,0 6.7523,-0.0495 7.4083,-0.70555 z" />
      <g
         id="g140">
        <g
           style="stroke-width:0.35278001"
           id="g130">
          <path
             inkscape:connector-curvature="0"
             id="path122"
             d="m -351.4,-337.29 c -0.50855,-0.56195 -0.58384,-1.7187 -0.58384,-8.9706 0,-7.0983 0.0817,-8.4072 0.55436,-8.8799 0.45422,-0.45422 1.5012,-0.55437 5.7956,-0.55437 5.7803,0 6.35,0.19035 6.35,2.1219 0,1.6485 -1.0615,2.1115 -4.841,2.1115 h -3.2729 v 3.175 h 2.7548 c 3.2057,0 4.0656,0.43315 4.0656,2.0479 0,1.8676 -0.562,2.1854 -3.865,2.1854 h -2.9554 v 2.9201 c 0,3.5061 -0.4942,4.4882 -2.2584,4.4882 -0.6758,0 -1.4038,-0.2693 -1.7439,-0.64514 z" />
          <path
             inkscape:connector-curvature="0"
             id="path124"
             d="m -348.45,-340.98 c 0.003,-1.5939 0.12203,-3.0786 0.26458,-3.2993 0.14643,-0.22672 1.5184,-0.45774 3.1539,-0.53107 3.0948,-0.13877 3.8406,-0.49972 3.4666,-1.678 -0.21387,-0.67384 -0.49864,-0.74106 -3.1395,-0.74106 -1.7885,0 -3.0669,-0.16264 -3.3276,-0.42334 -0.54928,-0.54928 -0.54928,-3.8957 0,-4.445 0.27145,-0.27145 1.6592,-0.42333 3.8681,-0.42333 3.0066,0 3.4898,-0.0841 3.7986,-0.66115 0.26913,-0.50287 0.20211,-0.79847 -0.27995,-1.2347 -0.9149,-0.82798 -9.2534,-0.84387 -10.078,-0.0192 -0.46948,0.46947 -0.55437,1.712 -0.55437,8.1139 0,7.1177 0.0417,7.6012 0.71364,8.2732 0.56682,0.56681 0.85714,0.63684 1.4111,0.34036 0.60712,-0.32492 0.69816,-0.74868 0.70287,-3.2713 z" />
          <path
             inkscape:connector-curvature="0"
             id="path126"
             d="m -337.41,-337.5 -0.98981,-0.8508 -0.10632,-8.1017 c -0.11699,-8.9146 -0.0446,-9.2467 2.0171,-9.2467 1.9843,0 2.1462,0.60598 2.1462,8.0342 v 6.744 l 0.97013,0.46267 c 1.2198,0.58173 1.572,2.6256 0.57771,3.3526 -1.0625,0.7769 -3.4941,0.56916 -4.615,-0.39426 z" />
          <path
             inkscape:connector-curvature="0"
             id="path128"
             d="m -333.5,-337.89 c 0.66953,-0.66953 0.37194,-1.5357 -0.66278,-1.9291 -1.0468,-0.39798 -1.2286,-1.6837 -1.2334,-8.7198 -0.004,-5.2989 -0.0543,-5.7472 -0.68857,-6.0866 -0.55271,-0.2958 -0.79071,-0.21507 -1.2347,0.41886 -0.45021,0.64275 -0.54994,1.9716 -0.5495,7.3214 7.1e-4,8.1248 0.40323,9.2449 3.4138,9.4995 0.22868,0.0193 0.6585,-0.20755 0.95515,-0.50421 z" />
        </g>
        <path
           style="stroke-width:1.33329999"
           inkscape:connector-curvature="0"
           id="path132"
           d="m -1232.3,-1325.6 c -15.475,0 -23.367,8.9488 -23.367,26.535 0,12.827 4.1171,20.903 12.668,24.856 2.4701,1.1418 7.3251,1.7043 12.695,1.4707 15.42,-0.6712 21.928,-8.4838 21.928,-26.326 0,-17.204 -6.4161,-25.381 -20.728,-26.416 -1.099,-0.08 -2.1637,-0.1192 -3.1953,-0.1191 z m 0.7597,10.557 c 7.6856,-0.034 9.8731,3.5071 9.8731,15.978 0,12.472 -2.1875,16.013 -9.8731,15.98 -2.6363,-0.011 -5.4529,-0.4612 -6.2597,-1 -6.2105,-4.1468 -6.2105,-25.812 0,-29.959 0.8068,-0.5387 3.6234,-0.9888 6.2597,-1 z"
           transform="scale(0.26458)" />
        <path
           style="stroke-width:1.33329999"
           inkscape:connector-curvature="0"
           id="path134"
           d="m -1183.6,-1325.7 c -14.398,0.011 -21.277,4.051 -19.43,11.41 1.2289,4.8964 4.8522,6.1543 12.586,4.3692 5.9175,-1.3659 7.0987,-1.2525 10.426,1.0019 l 3.7519,2.5411 -9.6855,0.7539 c -11.599,0.9026 -16.11,3.6904 -18.94,11.701 -2.779,7.8681 -0.011,15.896 6.625,19.211 5.2084,2.6019 17.359,3.1292 21.465,0.9316 1.8797,-1.0059 3.9007,-0.9422 7.1328,0.2266 3.814,1.3792 5.0269,1.2928 7.8555,-0.5606 4.4926,-2.9437 5.4435,-6.6393 2.9492,-11.463 -1.3878,-2.6837 -2.0684,-7.6879 -2.0684,-15.203 0,-9.427 -0.4804,-11.92 -3.0273,-15.732 -4.0859,-6.1162 -10.666,-9.1951 -19.641,-9.1875 z m 1.541,29.324 c 7.2811,0 9.174,2.7435 6.1972,8.9785 -1.5284,3.2014 -2.6395,3.7401 -8.4238,4.0801 -4.0309,0.237 -7.3191,-0.2644 -8.3222,-1.2676 -2.5982,-2.5981 -1.9485,-7.4382 1.3046,-9.7168 1.6638,-1.1654 5.7181,-2.0742 9.2442,-2.0742 z"
           transform="scale(0.26458)" />
        <path
           style="stroke-width:0.35278001"
           inkscape:connector-curvature="0"
           id="path136"
           d="m -303.68,-337.68 c -1.0143,-1.0143 -1.0312,-1.0945 -1.0312,-4.8983 0,-3.7356 -0.03,-3.8868 -0.88195,-4.445 -0.61616,-0.40373 -0.88194,-0.89664 -0.88194,-1.6356 0,-0.78594 0.22664,-1.161 0.88194,-1.4596 0.71361,-0.32514 0.88195,-0.65557 0.88195,-1.7311 0,-1.5773 0.73685,-2.438 2.0872,-2.438 1.2906,0 2.1462,1.0015 2.1462,2.5125 0,1.0745 0.13859,1.263 1.1465,1.5597 0.89306,0.26291 1.1717,0.55672 1.2602,1.329 0.14095,1.2293 -0.46672,2.0071 -1.568,2.0071 -0.81756,0 -0.83875,0.076 -0.83875,3.0074 0,2.9507 0.0181,3.0142 0.96296,3.3735 1.1253,0.42783 1.4936,0.91183 1.5011,1.9725 0.009,1.267 -0.92375,1.8773 -2.8692,1.8773 -1.4813,0 -1.932,-0.16614 -2.797,-1.0312 z" />
        <path
           style="stroke-width:0.35278001"
           inkscape:connector-curvature="0"
           id="path138"
           d="m -299.86,-337.58 c 1.1673,-0.31282 1.0866,-1.8074 -0.11392,-2.1087 -1.1751,-0.29493 -1.5618,-1.3759 -1.5618,-4.3659 0,-2.9422 0.20116,-3.5337 1.2019,-3.5337 0.4255,0 0.95173,-0.17809 1.1694,-0.39577 0.57782,-0.57782 0.144,-1.3681 -0.75101,-1.3681 -1.1235,0 -1.6203,-0.66687 -1.6203,-2.1748 0,-0.95116 -0.19331,-1.4316 -0.68106,-1.6926 -0.99524,-0.53264 -1.7884,0.41637 -1.7884,2.1398 0,1.0085 -0.17168,1.4603 -0.61736,1.6248 -0.33955,0.12528 -0.72734,0.39279 -0.86176,0.59446 -0.29448,0.4418 0.32956,1.2723 0.95599,1.2723 0.33106,0 0.48171,1.101 0.57417,4.1964 0.13418,4.492 0.50018,5.4594 2.1907,5.79 0.4163,0.0814 0.83629,0.16751 0.9333,0.19128 0.097,0.0238 0.53358,-0.0525 0.97014,-0.16949 z" />
      </g>
      <g
         style="fill:#068dde;stroke-width:0.35278001"
         id="g150">
        <path
           inkscape:connector-curvature="0"
           id="path142"
           d="m -366.73,-344.52 c -0.99511,-1.0593 -0.97547,-2.3925 0.0494,-3.3554 0.74069,-0.69583 1.1935,-0.76704 4.8774,-0.76704 3.7887,0 4.1123,0.0547 4.828,0.81648 0.99511,1.0593 0.97547,2.3925 -0.0494,3.3554 -0.74069,0.69583 -1.1935,0.76704 -4.8774,0.76704 -3.7887,0 -4.1123,-0.0547 -4.828,-0.81648 z" />
        <path
           inkscape:connector-curvature="0"
           id="path144"
           d="m -357.62,-345.12 c 0.38806,-0.38805 0.70556,-0.8643 0.70556,-1.0583 0,-0.194 -0.3175,-0.67028 -0.70556,-1.0583 -0.61148,-0.61148 -1.1759,-0.70556 -4.2333,-0.70556 -3.0574,0 -3.6218,0.0941 -4.2333,0.70556 -0.38806,0.38805 -0.70556,0.8643 -0.70556,1.0583 0,0.194 0.3175,0.67028 0.70556,1.0583 0.61148,0.61148 1.1759,0.70556 4.2333,0.70556 3.0574,0 3.6218,-0.0941 4.2333,-0.70556 z" />
        <path
           inkscape:connector-curvature="0"
           id="path146"
           d="m -377.32,-351.58 c -0.99511,-1.0592 -0.97547,-2.3925 0.0494,-3.3554 0.79592,-0.74773 1.0521,-0.76705 10.169,-0.76705 9.32,0 9.3552,0.003 10.12,0.81649 0.99511,1.0592 0.97547,2.3925 -0.0494,3.3554 -0.79592,0.74773 -1.0521,0.76705 -10.169,0.76705 -9.32,0 -9.3552,-0.003 -10.12,-0.81649 z" />
        <path
           inkscape:connector-curvature="0"
           id="path148"
           d="m -357.62,-352.17 c 0.38806,-0.38806 0.70556,-0.86431 0.70556,-1.0583 0,-0.19402 -0.3175,-0.67027 -0.70556,-1.0583 -0.66792,-0.66792 -1.1759,-0.70555 -9.525,-0.70555 -8.3491,0 -8.8571,0.0376 -9.525,0.70555 -0.38806,0.38806 -0.70556,0.86431 -0.70556,1.0583 0,0.19403 0.3175,0.67028 0.70556,1.0583 0.66792,0.66792 1.1759,0.70555 9.525,0.70555 8.3491,0 8.8571,-0.0376 9.525,-0.70555 z" />
      </g>
    </g>
  </g>
  <g
     transform="matrix(0.29903341,0,0,0.29903341,-107.49929,-162.9208)"
     id="g3096">
    <rect
       style="fill:none;fill-opacity:1;fill-rule:nonzero;stroke:#000000;stroke-width:7.07840633;stroke-linecap:round;stroke-linejoin:round;stroke-miterlimit:4;stroke-dasharray:28.31362543, 14.15681271;stroke-dashoffset:29.0214653;stroke-opacity:1;paint-order:markers stroke fill"
       id="rect849-1"
       width="77"
       height="77"
       x="77.671761"
       y="38.23093"
       ry="6.2867222" />
    <rect
       style="fill:#fefefe;fill-opacity:1;fill-rule:nonzero;stroke:#000000;stroke-width:8.84800816;stroke-linecap:round;stroke-linejoin:round;stroke-miterlimit:4;stroke-dasharray:none;stroke-dashoffset:0;stroke-opacity:1;paint-order:fill markers stroke"
       id="rect849"
       width="77"
       height="77"
       x="49.307632"
       y="61.739017"
       ry="6.2867222" />
  </g>
</svg>
