<?xml version="1.0" encoding="UTF-8" standalone="no"?>
<!-- Created with Inkscape (http://www.inkscape.org/) -->

<svg
   xmlns:osb="http://www.openswatchbook.org/uri/2009/osb"
   xmlns:dc="http://purl.org/dc/elements/1.1/"
   xmlns:cc="http://creativecommons.org/ns#"
   xmlns:rdf="http://www.w3.org/1999/02/22-rdf-syntax-ns#"
   xmlns:svg="http://www.w3.org/2000/svg"
   xmlns="http://www.w3.org/2000/svg"
   xmlns:sodipodi="http://sodipodi.sourceforge.net/DTD/sodipodi-0.dtd"
   xmlns:inkscape="http://www.inkscape.org/namespaces/inkscape"
   width="210mm"
   height="297mm"
   viewBox="0 0 210 297"
   version="1.1"
   id="svg8"
   inkscape:version="0.92.4 (5da689c313, 2019-01-14)"
   sodipodi:docname="Icon_svg.svg">
  <defs
     id="defs2">
    <linearGradient
       id="linearGradient4559"
       osb:paint="solid">
      <stop
         style="stop-color:#000000;stop-opacity:1;"
         offset="0"
         id="stop4557" />
    </linearGradient>
  </defs>
  <sodipodi:namedview
     id="base"
     pagecolor="#ffffff"
     bordercolor="#666666"
     borderopacity="1.0"
     inkscape:pageopacity="0.0"
     inkscape:pageshadow="2"
     inkscape:zoom="0.25"
     inkscape:cx="84.940732"
     inkscape:cy="1043.7518"
     inkscape:document-units="mm"
     inkscape:current-layer="layer1"
     showgrid="false"
     inkscape:window-width="1691"
     inkscape:window-height="897"
     inkscape:window-x="651"
     inkscape:window-y="180"
     inkscape:window-maximized="0"
     showguides="true"
     inkscape:guide-bbox="true" />
  <metadata
     id="metadata5">
    <rdf:RDF>
      <cc:Work
         rdf:about="">
        <dc:format>image/svg+xml</dc:format>
        <dc:type
           rdf:resource="http://purl.org/dc/dcmitype/StillImage" />
        <dc:title></dc:title>
      </cc:Work>
    </rdf:RDF>
  </metadata>
  <g
     inkscape:label="Layer 1"
     inkscape:groupmode="layer"
     id="layer1">
    <g
       id="g6158"
       transform="translate(-7.4835468,66.955064)">
      <path
         inkscape:connector-curvature="0"
         id="path4575"
         style="fill:#cc6698;fill-opacity:1;stroke:none;stroke-width:0.4762345;stroke-miterlimit:4;stroke-dasharray:none;stroke-opacity:1"
         d="M 66.094575,-33.822801 A 26.458331,26.458339 0 0 1 39.636241,-7.3644672 26.458331,26.458339 0 0 1 13.177908,-33.822801 26.458331,26.458339 0 0 1 39.636241,-60.281134 26.458331,26.458339 0 0 1 66.094575,-33.822801 Z" />
      <g
         transform="translate(1.9156454e-5,0.32262836)"
         id="g6149">
        <path
           id="path4573"
           d="m 22.132378,-18.159654 c -0.488181,-0.05045 -0.977491,-0.164274 -1.205901,-0.28092 -0.432521,-0.220781 -0.886797,-0.829362 -1.085056,-1.453967 -0.395146,-1.244729 -0.09243,-2.760692 0.781533,-3.916463 0.909319,-1.202389 2.857964,-2.638758 5.367886,-3.956784 0.340253,-0.178805 0.62517,-0.358416 0.633,-0.399182 0.01614,-0.09283 -0.509895,-0.512721 -1.585305,-1.261036 -2.776474,-1.931975 -3.52834,-2.516339 -4.528434,-3.519541 -1.212278,-1.215951 -1.815692,-2.161596 -2.128378,-3.335449 -0.245402,-0.921428 -0.05247,-2.029774 0.581861,-3.339122 0.512801,-1.0587 1.263861,-2.086321 2.310815,-3.161529 1.727703,-1.774402 3.820926,-3.23745 6.64652,-4.645565 3.487655,-1.738036 6.081369,-2.527682 8.863897,-2.698656 2.616478,-0.160641 5.064403,0.407295 6.564705,1.52339 1.223418,0.910127 1.779528,2.046725 1.784089,3.64644 0.0024,1.07767 -0.21957,1.997766 -0.749323,3.096747 -0.84801,1.759145 -2.282966,3.316721 -4.08546,4.434471 -1.379619,0.855517 -3.320919,1.50228 -5.445947,1.81432 -0.815719,0.119876 -2.716011,0.118665 -3.376053,-0.0019 -1.128164,-0.20625 -1.975487,-0.62965 -2.678555,-1.338732 -0.394339,-0.397568 -0.609066,-0.788516 -0.612819,-1.115127 -0.004,-0.333391 0.100502,-0.313614 0.542871,0.10252 0.821007,0.772331 1.908566,1.130424 3.432762,1.130222 2.168822,-3.63e-4 4.81993,-0.816123 6.760624,-2.080388 1.736098,-1.130988 3.081652,-2.628223 3.673927,-4.088082 0.450119,-1.109637 0.489795,-2.061014 0.119472,-2.86967 -0.0775,-0.169521 -0.23733,-0.378597 -0.443379,-0.581256 -1.327996,-1.304546 -4.459334,-1.602782 -7.849676,-0.747709 -1.536991,0.387477 -2.832133,0.877191 -4.500301,1.701023 -5.344961,2.639606 -8.255356,5.483605 -8.523038,8.328614 -0.07871,0.835618 0.05812,1.529323 0.452298,2.291199 0.526969,1.019024 1.320691,1.823159 3.377951,3.42247 1.496145,1.163077 1.905982,1.503814 2.465321,2.049591 0.463479,0.452218 0.464569,0.452945 0.600428,0.384652 0.07467,-0.03633 1.049901,-0.570277 2.166763,-1.183823 1.823966,-1.001991 2.043617,-1.135307 2.158044,-1.310156 0.06983,-0.10696 0.376176,-0.442127 0.680062,-0.744561 1.140797,-1.135186 2.363529,-1.736421 3.210811,-1.578847 0.417991,0.0775 0.638611,0.24742 0.843529,0.649185 l 0.166696,0.326934 0.0024,0.825366 c 0.0016,0.453953 0.01615,0.837475 0.02825,0.852207 0.01615,0.01615 0.131581,-0.02825 0.259126,-0.09768 0.263968,-0.141267 0.466748,-0.134809 0.781492,0.02422 0.22401,0.114225 0.332181,0.260739 0.332181,0.448585 0,0.0783 -0.160238,0.74335 -0.356398,1.478224 -0.572619,2.147591 -0.787184,3.161771 -0.787184,3.721352 0,0.313211 0.05933,0.544728 0.140057,0.544728 0.207461,0 0.690758,-0.979307 2.600091,-5.268273 1.328682,-2.984702 1.532309,-3.479905 1.71624,-4.174336 0.101712,-0.383845 0.199793,-0.657783 0.249034,-0.694714 0.175172,-0.131581 0.576897,-0.209883 1.20239,-0.234504 0.720626,-0.02825 0.969338,0.01615 1.142895,0.199792 l 0.112207,0.119472 -0.219974,0.702746 c -0.284553,0.908391 -0.320879,1.102977 -0.320476,1.717492 3.63e-4,0.898542 0.148533,1.542157 0.531288,2.308312 0.230468,0.461098 0.186069,0.505335 1.11783,-1.117588 0.63744,-1.110444 1.278351,-2.331561 1.52008,-2.896269 0.09525,-0.222799 0.245402,-0.683654 0.333795,-1.024311 0.227239,-0.878523 0.271234,-0.987178 0.439705,-1.085662 0.387881,-0.226835 1.792081,-0.301505 2.142949,-0.114628 0.220781,0.117857 0.231679,0.24298 0.0666,0.758082 -0.252264,0.787628 -0.343079,1.192501 -0.370928,1.656908 -0.03229,0.553607 0.08194,1.452917 0.241365,1.875186 0.144093,0.383037 0.668237,1.426076 0.750091,1.493441 0.04843,0.04036 0.173557,0.0081 0.51151,-0.134003 2.518963,-1.050304 5.392346,-0.89721 7.30067,0.389092 0.390705,0.263565 0.995815,0.847404 1.255626,1.212076 0.493024,0.691888 0.746297,1.43992 0.750091,2.215359 0.0024,0.575645 -0.05207,0.848735 -0.259125,1.284808 -0.207058,0.43688 -0.797153,1.023343 -1.266807,1.259421 -0.647773,0.325723 -0.975272,0.196968 -0.438576,-0.171943 0.898906,-0.618389 1.324687,-1.43657 1.192137,-2.290876 -0.165081,-1.064552 -0.929984,-2.017907 -2.086724,-2.60114 -1.32287,-0.666985 -3.569711,-0.893942 -5.227426,-0.528018 -0.53266,0.117857 -1.143945,0.318457 -1.209251,0.397164 -0.03633,0.04157 -0.01614,0.165888 0.06579,0.420331 0.170732,0.53827 0.229661,0.955333 0.203829,1.448357 -0.02018,0.384247 -0.04601,0.490844 -0.198581,0.811925 -0.487333,1.026128 -1.560442,1.862553 -3.014893,2.349845 -0.624323,0.209076 -1.071858,0.182034 -1.364282,-0.08274 -0.234101,-0.211901 -0.342675,-0.675461 -0.269216,-1.14786 0.163063,-1.048771 0.766841,-2.070499 1.866145,-3.158501 0.309174,-0.305946 0.562003,-0.587028 0.562003,-0.624605 0,-0.03633 -0.138039,-0.355591 -0.306752,-0.706298 -0.311193,-0.647772 -0.520713,-1.282992 -0.710052,-2.154734 -0.07628,-0.351555 -0.12593,-0.487293 -0.182033,-0.498029 -0.0561,-0.0081 -0.179208,0.181629 -0.456981,0.714168 -0.503235,0.965342 -1.105883,1.993447 -1.693112,2.888438 l -0.47914,0.730192 0.110189,0.294241 c 0.280517,0.749646 0.347115,1.07658 0.351555,1.723384 0.004,0.558087 -0.0081,0.657056 -0.127141,1.000497 -0.246613,0.716389 -0.770837,1.327109 -1.493724,1.7407 -0.48818,0.279306 -1.128284,0.547674 -1.595516,0.668962 -0.476597,0.123509 -1.397419,0.176383 -1.690812,0.09647 -0.252667,-0.06862 -0.492701,-0.330163 -0.492701,-0.537019 0,-0.412299 0.110189,-0.574596 1.593579,-2.350249 1.192945,-1.427892 1.568918,-1.940331 1.525045,-2.078571 -0.01615,-0.0553 -0.180016,-0.403622 -0.361242,-0.773783 -0.4012,-0.819998 -0.644786,-1.577031 -0.880218,-2.736879 -0.05288,-0.261143 -0.180015,-0.07346 -0.542387,0.801149 -0.846435,2.043134 -1.608957,3.650315 -2.635085,5.553916 -0.791139,1.467771 -0.972405,1.757288 -1.35738,2.168054 -0.542669,0.579036 -0.998721,0.745005 -1.435319,0.522287 -0.545697,-0.278499 -0.754531,-0.992587 -0.700607,-2.396141 0.02422,-0.635825 0.01615,-0.798001 -0.03229,-0.798001 -0.03229,0 -0.17719,0.273252 -0.318862,0.607451 -0.576614,1.360771 -1.117992,2.390248 -1.452876,2.76271 -0.315633,0.350748 -0.618833,0.488867 -1.074966,0.488867 -0.52039,0 -0.752876,-0.09324 -1.060759,-0.425902 -0.43688,-0.471874 -0.830169,-1.359196 -1.042555,-2.352226 -0.203021,-0.949359 -0.106152,-2.543826 0.22845,-3.74888 0.180823,-0.651526 0.188088,-0.714612 0.08718,-0.714612 -0.04642,0 -0.472197,0.222396 -0.946372,0.494316 -1.264022,0.724783 -1.404886,0.810432 -1.428216,0.868634 -0.01211,0.02825 0.05045,0.243384 0.137635,0.476435 0.27083,0.721595 0.333392,1.149757 0.330163,2.25782 -0.0024,0.82028 -0.02018,1.054906 -0.107767,1.464945 -0.422875,1.964064 -1.459779,3.483457 -3.10482,4.549665 -0.505133,0.327337 -0.760666,0.455608 -1.336069,0.670375 -0.833721,0.311192 -1.893389,0.452742 -2.737362,0.365681 z"
           style="fill:#ffffff;fill-opacity:1;stroke:none;stroke-width:0.47912949;stroke-miterlimit:4;stroke-dasharray:none;stroke-opacity:1"
           inkscape:connector-curvature="0" />
        <path
           id="path4571"
           d="m 23.885267,-20.476321 c 1.56363,-0.355591 3.10486,-1.788085 3.70327,-3.441885 0.191316,-0.529188 0.282535,-0.969782 0.31765,-1.535175 0.0444,-0.718527 -0.121894,-1.813069 -0.280114,-1.843542 -0.159834,-0.03229 -2.186419,1.284122 -3.093558,2.007049 -0.278499,0.221589 -0.660124,0.548603 -0.848413,0.726237 -1.249613,1.178817 -1.858719,2.918589 -1.311852,3.747022 0.25186,0.381826 0.794368,0.503761 1.513057,0.340253 z"
           style="fill:#cc6698;fill-opacity:1;stroke:#fdfdfd;stroke-width:0.47912949;stroke-miterlimit:4;stroke-dasharray:none;stroke-opacity:1"
           inkscape:connector-curvature="0" />
        <path
           id="path4569"
           d="m 42.781868,-24.541559 c 0.269619,-0.137635 0.854467,-0.615523 1.114763,-0.911136 0.278902,-0.316843 0.540086,-0.833115 0.606603,-1.199281 0.09687,-0.533184 -0.03229,-0.498675 -0.540934,0.143689 -0.429454,0.543235 -0.685471,0.842076 -1.289531,1.505227 -0.387477,0.425175 -0.433369,0.555303 -0.196968,0.555303 0.06741,0 0.20504,-0.04198 0.305946,-0.09364 z"
           style="fill:#cc6698;fill-opacity:1;stroke:none;stroke-width:0.47912949;stroke-miterlimit:4;stroke-dasharray:none;stroke-opacity:1"
           inkscape:connector-curvature="0" />
        <path
           id="path4567"
           d="m 33.686615,-24.577885 c 0.220781,-0.154587 0.333392,-0.322897 0.662182,-0.989681 0.350344,-0.710616 1.16909,-2.772921 1.569604,-3.954322 0.325723,-0.961023 0.573345,-1.883017 0.607249,-2.261533 0.02422,-0.274463 0.01615,-0.323705 -0.07386,-0.418314 -0.259932,-0.273252 -0.918562,-0.01211 -1.52242,0.602285 -0.506909,0.516272 -1.2949,1.907234 -1.595356,2.816028 -0.521439,1.577031 -0.532538,3.60632 -0.02018,4.152017 0.146918,0.157412 0.213516,0.166696 0.375368,0.05368 z"
           style="fill:#cc6698;fill-opacity:1;stroke:#fdfdfd;stroke-width:0.47912949;stroke-miterlimit:4;stroke-dasharray:none;stroke-opacity:1"
           inkscape:connector-curvature="0" />
        <path
           id="path3750"
           d="m 48.900531,-26.018371 c 0.620125,-0.299083 1.124773,-0.843892 1.296675,-1.400123 0.157817,-0.510299 0.118665,-1.484158 -0.06135,-1.543369 -0.08557,-0.02825 -0.506344,0.384652 -0.83586,0.820563 -0.446971,0.590943 -0.892771,1.590431 -0.892771,2.00152 0,0.316036 0.05933,0.330566 0.493427,0.12149 z"
           style="fill:#cc6698;fill-opacity:1;stroke:none;stroke-width:0.47912949;stroke-miterlimit:4;stroke-dasharray:none;stroke-opacity:1"
           inkscape:connector-curvature="0" />
      </g>
    </g>
    <g
       id="g3724"
       transform="translate(-208.64286,-221.49405)" />
    <g
       id="g6200"
       transform="translate(-117.38523,-40.172645)">
      <g
         id="g6289">
        <circle
           style="fill:#f7df1e;fill-opacity:1;stroke:none;stroke-width:0.13316263;stroke-miterlimit:4;stroke-dasharray:none;stroke-opacity:1"
           id="path6112"
           cx="213.40242"
           cy="73.304909"
           r="26.458334" />
        <g
           style="fill:#282828;fill-opacity:1"
           transform="matrix(2.9094464,0,0,2.9094464,-272.58311,-297.47487)"
           id="g6194">
          <path
             style="fill:#282828;fill-opacity:1;stroke:none;stroke-width:0.01502026"
             d="m 169.49886,123.24343 c 0.15179,-0.001 0.30655,0.004 0.41858,0.015 0.67083,0.0681 1.20401,0.33096 1.61437,0.79582 0.10757,0.12185 0.29083,0.37725 0.34003,0.47335 l 0.0233,0.0455 -0.62994,0.40514 c -0.34671,0.22273 -0.63585,0.40728 -0.64285,0.40928 -0.007,0.002 -0.039,-0.0385 -0.0718,-0.0904 -0.1923,-0.3046 -0.39138,-0.47497 -0.65784,-0.56327 -0.1077,-0.0358 -0.14327,-0.04 -0.3452,-0.0408 -0.25252,-0.001 -0.31935,0.0118 -0.47594,0.0925 -0.35007,0.18044 -0.48717,0.63507 -0.30386,1.0082 0.12802,0.26059 0.36856,0.41718 1.16995,0.76068 1.01312,0.43423 1.44399,0.68721 1.82573,1.07229 0.3915,0.39491 0.57746,0.81892 0.63046,1.43609 0.0277,0.3232 -0.0119,0.69909 -0.10387,0.9803 -0.29876,0.91307 -1.13465,1.47807 -2.33733,1.58026 -0.16764,0.015 -0.49198,0.0177 -0.63097,0.006 -0.19428,-0.0161 -0.38259,-0.0417 -0.54777,-0.0739 -0.92943,-0.18119 -1.67633,-0.69473 -2.13268,-1.46658 -0.0497,-0.0841 -0.0856,-0.15778 -0.0796,-0.16278 0.006,-0.005 0.29537,-0.17388 0.64234,-0.37466 0.34697,-0.20077 0.64543,-0.37494 0.66353,-0.38654 0.0304,-0.0196 0.0346,-0.0178 0.0558,0.0233 0.0467,0.0904 0.25253,0.35174 0.36793,0.46715 0.25007,0.25007 0.52806,0.40186 0.87282,0.47646 0.19516,0.0418 0.63618,0.0386 0.81442,-0.006 0.33733,-0.0847 0.56499,-0.24294 0.68006,-0.47284 0.0673,-0.13445 0.0885,-0.24467 0.078,-0.40204 -0.0148,-0.22061 -0.088,-0.3773 -0.24701,-0.52814 -0.19497,-0.18496 -0.38444,-0.28541 -1.22008,-0.64647 -0.65128,-0.2814 -0.96789,-0.4501 -1.26866,-0.67593 -0.48524,-0.36432 -0.781,-0.81851 -0.89297,-1.37149 -0.28774,-1.42095 0.54254,-2.57339 1.99006,-2.76314 0.10042,-0.0132 0.24922,-0.0209 0.40101,-0.0222 z"
             id="path6190"
             inkscape:connector-curvature="0" />
          <path
             style="fill:#282828;fill-opacity:1;stroke:none;stroke-width:0.01502026"
             d="m 163.93799,123.33283 h 0.82579 0.82579 v 3.02566 c 0,3.21649 0.001,3.14416 -0.0693,3.49281 -0.0611,0.30132 -0.21723,0.66148 -0.39171,0.90382 -0.10622,0.14753 -0.32012,0.35439 -0.47129,0.45579 -0.30073,0.20172 -0.65849,0.33075 -1.08262,0.39015 -0.2005,0.0279 -0.59571,0.0395 -0.78186,0.0227 -0.39504,-0.0356 -0.7216,-0.12359 -1.04128,-0.2806 -0.39668,-0.19485 -0.71139,-0.47338 -0.971,-0.85938 -0.12213,-0.18153 -0.21572,-0.36035 -0.19792,-0.37775 0.017,-0.0166 1.33077,-0.81167 1.33377,-0.80667 0.18608,0.32379 0.26625,0.43814 0.40514,0.57619 0.1352,0.13438 0.2696,0.21168 0.44338,0.25528 0.14065,0.0353 0.4937,0.0226 0.63511,-0.0227 0.26662,-0.0857 0.42524,-0.28237 0.50384,-0.62477 0.0221,-0.0943 0.0249,-0.41626 0.0289,-3.12797 z"
             id="path6192"
             inkscape:connector-curvature="0" />
        </g>
      </g>
    </g>
    <g
       id="g6217"
       transform="translate(-103.11152,150.68629)">
      <g
         id="g6249">
        <circle
           style="fill:#eb4a4b;fill-opacity:1;stroke:none;stroke-width:0.13316263;stroke-miterlimit:4;stroke-dasharray:none;stroke-opacity:1"
           id="path6112-7"
           cx="262.99323"
           cy="-115.66415"
           r="26.458334" />
        <path
           style="fill:#ffffff;fill-opacity:1;stroke-width:0.08917064"
           d="m 261.68221,-93.191971 c -2.07172,-0.149633 -3.76762,-0.618311 -4.09159,-1.130769 -0.0771,-0.121935 -0.14841,-0.58081 -0.18343,-1.180365 -0.0315,-0.539477 -0.0942,-1.442323 -0.13919,-2.006339 -0.045,-0.563999 -0.13095,-1.707608 -0.19088,-2.541346 -0.10812,-1.50304 -0.11175,-1.52045 -0.43237,-2.05093 -0.17785,-0.29426 -0.45206,-0.76175 -0.60933,-1.03885 l -0.28596,-0.50384 0.55877,0.17406 c 1.98292,0.61768 3.63773,0.82531 6.57779,0.82531 2.93308,0 4.65126,-0.21002 6.48716,-0.79296 0.35557,-0.11288 0.64648,-0.18616 0.64648,-0.16281 0,0.0233 -0.24754,0.47053 -0.55007,0.99371 l -0.55009,0.95124 -0.0669,1.02545 c -0.0368,0.564 -0.11095,1.807941 -0.16479,2.764284 -0.20669,3.669888 -0.18543,3.487421 -0.43303,3.716899 -0.27799,0.257617 -1.38212,0.612656 -2.43486,0.782916 -0.79927,0.129279 -3.30179,0.234713 -4.13775,0.17434 z m -0.22292,-9.987549 c -1.89059,-0.12349 -3.67212,-0.42689 -5.03567,-0.85755 -0.96647,-0.30526 -1.29411,-0.54165 -1.29775,-0.93635 -9.5e-4,-0.1371 -0.0396,-0.63048 -0.085,-1.0964 -0.13439,-1.37646 -0.26368,-2.7429 -0.35856,-3.78974 -0.0489,-0.53949 -0.1122,-1.12948 -0.14076,-1.3111 l -0.0517,-0.3302 0.29693,0.0861 c 0.56941,0.16526 1.34652,-0.16166 2.17398,-0.91458 0.28588,-0.26012 0.49219,-0.39964 0.45846,-0.31004 -0.20667,0.54908 -0.50751,1.75202 -0.50751,2.0293 0,0.37104 0.17595,0.56859 0.43361,0.48681 0.28384,-0.0901 0.40513,-0.36593 0.90357,-2.05481 0.26054,-0.8828 0.60721,-1.95271 0.77039,-2.37759 0.37563,-0.97812 0.47135,-1.67398 0.2594,-1.88592 -0.40187,-0.40189 -0.73723,-0.0913 -1.11018,1.02818 -0.22489,0.67502 -0.379,0.96258 -0.7697,1.43625 -0.50858,0.61657 -1.26607,1.27019 -1.6343,1.4102 -1.03845,0.39482 -0.95222,-1.5667 0.16717,-3.80215 0.61392,-1.22602 1.25947,-2.08306 1.8522,-2.45896 0.68501,-0.43442 0.97254,-0.35459 1.46952,0.40804 0.46623,0.71545 0.95764,0.64945 0.95764,-0.12862 0,-0.3522 -0.0512,-0.47871 -0.32167,-0.79469 -0.65337,-0.76333 -1.52902,-0.93815 -2.4474,-0.48864 -1.03379,0.50601 -2.32022,2.13803 -2.99316,3.79723 -0.16411,0.40463 -0.29905,0.68871 -0.29987,0.6313 -6.8e-4,-0.0574 -0.0807,-0.79976 -0.17774,-1.64966 -0.0969,-0.84989 -0.29861,-2.68887 -0.44821,-4.08662 -0.14959,-1.39776 -0.32843,-3.04229 -0.3974,-3.65454 -0.069,-0.61224 -0.11432,-1.12429 -0.10076,-1.13788 0.0136,-0.0136 0.19761,0.0363 0.40892,0.11084 0.8332,0.29397 2.53291,0.55562 4.99386,0.76876 1.82828,0.15834 7.63987,0.13031 9.58359,-0.0463 2.425,-0.22023 3.90087,-0.47187 4.80549,-0.81931 0.15442,-0.0593 0.16231,-0.0261 0.10971,0.46234 -0.0312,0.28943 -0.1346,1.24851 -0.22985,2.1313 -0.0952,0.88279 -0.25671,2.38754 -0.35882,3.3439 -0.10211,0.95635 -0.26422,2.46111 -0.36027,3.3439 -0.0961,0.88278 -0.19779,1.82577 -0.22611,2.0955 -0.0504,0.48039 -0.0655,0.50254 -0.73546,1.08045 -0.71345,0.61538 -1.32322,1.05965 -1.4544,1.05965 -0.1726,0 -0.0463,-0.22104 0.54219,-0.94844 1.00151,-1.23807 1.21107,-1.88343 0.7502,-2.31055 -0.47982,-0.44468 -1.51173,-0.20618 -2.12706,0.49162 l -0.17834,0.20224 -0.0446,-0.34481 c -0.0404,-0.31257 -0.0692,-0.34479 -0.30856,-0.34479 -0.32179,0 -0.56867,0.32766 -0.79928,1.06086 -0.12849,0.40851 -0.25734,0.59036 -0.70594,0.99631 -0.67352,0.6095 -1.28073,1.01921 -1.51049,1.01921 -0.14366,0 -0.16254,-0.0413 -0.1122,-0.24521 0.0724,-0.29282 1.50731,-3.88501 2.05887,-5.15382 0.23472,-0.53997 0.37018,-0.96966 0.34094,-1.08148 -0.0944,-0.36122 -0.63495,-0.42494 -0.89742,-0.10574 -0.0767,0.0933 -2.19982,5.4023 -2.46291,6.15872 -0.0579,0.16641 -0.67921,0.51675 -0.91646,0.51675 -0.24667,0 -0.11186,-0.72298 0.35205,-1.88803 0.33039,-0.82976 0.39769,-1.08506 0.33174,-1.25852 -0.20374,-0.53585 -0.70111,-0.31972 -0.9801,0.42591 -0.59016,1.57734 -1.42926,2.63147 -2.0947,2.63147 -0.33449,0 -0.0757,-1.08329 0.51598,-2.16005 0.17727,-0.32262 0.32233,-0.6659 0.32233,-0.76283 0,-0.25439 -0.21193,-0.39282 -0.5515,-0.36022 -0.27451,0.0264 -0.32219,0.0825 -0.66751,0.78633 -0.46437,0.94649 -0.92108,2.31996 -0.92108,2.76999 0,1.07258 1.45277,1.15802 2.38451,0.14024 l 0.3377,-0.36887 -9.4e-4,0.38686 c -9.5e-4,0.30439 0.0455,0.42474 0.21833,0.56467 0.26272,0.21273 0.55953,0.1748 1.18295,-0.15117 0.50727,-0.26523 0.48271,-0.26327 0.54018,-0.0435 0.1236,0.47265 1.00934,0.41233 1.75336,-0.11944 0.22317,-0.1595 0.45152,-0.31767 0.50745,-0.35149 0.056,-0.0338 -0.17923,0.54472 -0.52258,1.28562 -0.82948,1.78982 -0.88612,2.30735 -0.25251,2.30735 0.36966,0 0.60827,-0.33366 0.9978,-1.39529 1.17522,-3.20295 2.20412,-4.75748 3.14883,-4.75748 0.12504,0 0.22736,0.0366 0.22736,0.0814 0,0.0448 -0.18263,0.31559 -0.40583,0.60191 -1.30349,1.67203 -1.38383,1.81849 -1.23287,2.24772 0.1149,0.32671 0.44376,0.47409 0.94153,0.42192 0.53154,-0.0556 0.9911,-0.29153 1.67171,-0.85794 0.29774,-0.24778 0.54105,-0.41896 0.54068,-0.38038 -3.4e-4,0.0385 -0.038,0.39113 -0.0837,0.78349 -0.28765,2.47382 -0.46651,4.03918 -0.63173,5.52857 -0.17388,1.56734 -0.20443,1.70914 -0.4078,1.89323 -0.39943,0.36152 -2.37483,0.8826 -4.31698,1.13876 -0.95917,0.1265 -3.74166,0.2288 -4.63549,0.17041 z m -2.67512,-22.42508 c -3.29601,-0.24921 -5.36379,-0.63521 -5.76248,-1.07575 -0.16241,-0.17948 -0.16104,-0.18709 0.0693,-0.3853 0.7522,-0.64702 4.73479,-1.11342 9.53512,-1.11665 l 2.72739,-0.002 0.14787,-0.6019 c 0.0814,-0.33104 0.32983,-1.30412 0.55222,-2.16238 l 0.40434,-1.5605 0.69438,-0.71337 c 0.3819,-0.39234 1.49085,-1.55602 2.46433,-2.58594 0.97345,-1.02992 1.87977,-1.98827 2.014,-2.12966 0.19363,-0.20395 0.29242,-0.24495 0.47797,-0.19837 0.28856,0.0724 0.90633,0.61855 0.96845,0.85614 0.0353,0.13546 -0.5312,0.78449 -2.49796,2.86125 l -2.54377,2.68606 -0.43289,1.75203 c -0.2381,0.96363 -0.43366,1.77895 -0.43461,1.81184 -9.4e-4,0.0329 0.26914,0.0843 0.60019,0.11421 2.45292,0.22186 3.93484,0.46882 4.74716,0.79114 0.41212,0.16352 0.49161,0.23095 0.49161,0.41701 0,0.77989 -4.41323,1.34925 -10.27133,1.32515 -1.6583,-0.007 -3.43643,-0.0443 -3.95138,-0.0832 z m 7.87425,-0.53466 c 0.36062,-0.10019 0.52281,-0.3203 0.32569,-0.44211 -0.0707,-0.0436 -0.19263,-0.0219 -0.30035,0.0535 -0.25641,0.17958 -1.50798,0.17484 -1.68924,-0.007 -0.16227,-0.16226 -0.43371,-0.0782 -0.39526,0.12243 0.0603,0.31449 1.31164,0.48012 2.05916,0.27254 z"
           id="path6213"
           inkscape:connector-curvature="0" />
      </g>
    </g>
    <g
       id="g6259"
       transform="translate(48.163031,-52.71824)">
      <path
         inkscape:connector-curvature="0"
         id="path6230"
         d="m 98.647307,165.29953 v -0.81402 h 1.528783 1.52877 v -1.6074 -1.6074 l -5.628673,-0.0107 -5.62867,-0.0107 -0.35542,-0.11133 c -1.12831,-0.35344 -1.82644,-1.05874 -2.09626,-2.11779 l -0.0897,-0.35193 v -11.89268 -11.89267 l 0.0889,-0.33753 c 0.25875,-0.98189 0.89262,-1.68611 1.81957,-2.02153 0.72094,-0.26086 -0.39351,-0.24376 15.146483,-0.23236 l 14.11614,0.0104 0.31648,0.0922 c 0.96655,0.28152 1.61585,0.78714 1.9723,1.53586 0.32803,0.68903 0.35812,1.02654 0.34337,3.85172 l -0.0114,2.18396 -0.76267,0.0108 -0.76267,0.0108 -0.0116,-2.43299 c -0.0116,-2.42837 -0.0118,-2.43342 -0.10228,-2.65714 -0.17288,-0.42755 -0.44415,-0.70261 -0.87524,-0.88748 -0.18451,-0.0791 -0.27357,-0.0797 -14.30202,-0.0901 -13.948113,-0.0104 -14.119433,-0.01 -14.374993,0.0678 -0.39782,0.12037 -0.71994,0.37886 -0.8935,0.71701 -0.18371,0.35792 -0.17712,0.005 -0.17762,9.5201 l -4.5e-4,8.98403 h 11.515453 11.51545 v 0.81403 0.81402 h -11.5173 -11.517293 l 0.0118,1.83651 c 0.0111,1.73531 0.0162,1.84675 0.0914,2.02219 0.18405,0.42918 0.45403,0.68377 0.92877,0.87583 l 0.22257,0.0901 10.890043,0.0104 10.89004,0.0104 v 0.79368 0.79367 h -2.30309 -2.30309 v 1.6082 1.60819 h 1.54863 1.54863 v 0.81402 0.81402 h -6.15484 -6.154813 z m 16.519683,0.75037 c -0.45127,-0.12127 -0.80403,-0.41812 -1.00966,-0.84964 l -0.123,-0.25811 v -11.11836 -11.11837 l 0.0927,-0.22969 c 0.1202,-0.29781 0.4496,-0.65474 0.73171,-0.79288 0.11832,-0.0579 0.32967,-0.12392 0.46966,-0.14663 0.35254,-0.0572 13.93537,-0.0572 14.28792,0 0.13999,0.0227 0.35134,0.0887 0.46966,0.14663 0.28211,0.13814 0.61151,0.49507 0.73171,0.79288 l 0.0927,0.22969 0.0111,3.24617 0.011,3.24617 h -0.77543 -0.77542 v -2.68033 -2.68031 h -6.90927 -6.90927 v 9.58958 9.58959 h 4.60618 4.60618 v 1.54863 1.54863 l -4.69552,-0.003 c -4.0025,-0.002 -4.72762,-0.0112 -4.91296,-0.061 z m 7.65442,-0.80571 c 0.28818,-0.14708 0.42159,-0.38929 0.39754,-0.72175 -0.0215,-0.29798 -0.15986,-0.51193 -0.40885,-0.63247 -0.36505,-0.17671 -0.83556,-0.0298 -1.01198,0.31604 -0.14699,0.28813 -0.0786,0.72501 0.1439,0.91979 0.23229,0.20332 0.61266,0.25453 0.87939,0.11839 z m 4.00521,0.81144 c -0.18794,-0.067 -0.3278,-0.19385 -0.42697,-0.38722 -0.0734,-0.14319 -0.0756,-0.34641 -0.0756,-7.24418 v -7.09685 l 0.0851,-0.17588 c 0.0566,-0.11691 0.14573,-0.2143 0.26588,-0.29049 l 0.18083,-0.11463 h 4.04376 c 3.30648,0 4.06717,0.01 4.17216,0.0536 0.16856,0.0704 0.37077,0.30441 0.42493,0.49169 0.0307,0.10607 0.0399,2.2068 0.0316,7.22418 l -0.0117,7.07461 -0.11966,0.17218 c -0.07,0.10066 -0.19302,0.20929 -0.2963,0.26152 l -0.17664,0.0893 -2.3046,-0.002 -2.30461,-0.002 0.17086,-0.0828 c 0.54599,-0.2647 0.57993,-1.02517 0.0601,-1.34752 -0.21235,-0.13169 -0.56732,-0.13169 -0.77966,0 -0.5198,0.32235 -0.48585,1.08282 0.0601,1.34752 l 0.17085,0.0828 -1.50892,4.5e-4 c -1.17785,0 -1.54241,-0.0117 -1.66159,-0.0542 z m 7.16121,-8.42007 v -5.38074 l -3.06748,0.0102 -3.06748,0.0102 -0.0101,5.37056 -0.0101,5.37057 h 3.07755 3.07755 z m -29.48352,0.36208 c -0.0655,-0.0286 -0.18421,-0.1241 -0.26375,-0.21222 -0.31613,-0.35023 -0.26518,-0.90245 0.10964,-1.18834 0.18565,-0.1416 0.5667,-0.17803 0.76884,-0.0735 0.38505,0.19912 0.54592,0.67508 0.36249,1.07252 -0.17221,0.37313 -0.62038,0.55729 -0.97722,0.40155 z"
         style="fill:#ffffff;fill-opacity:1;stroke-width:0.03970844" />
      <circle
         r="26.458334"
         cy="149.19994"
         cx="111.71867"
         id="path6238"
         style="fill:#0656ff;fill-opacity:1;stroke:none;stroke-width:0.79374999;stroke-miterlimit:4;stroke-dasharray:none;stroke-opacity:1" />
      <path
         style="fill:#ffffff;fill-opacity:1;stroke-width:0.03198732"
         d="m 101.18901,162.1695 v -0.65574 h 1.23151 1.23151 v -1.29485 -1.29485 l -4.534198,-0.009 -4.534201,-0.009 -0.286311,-0.0897 c -0.908915,-0.28471 -1.471297,-0.85287 -1.688652,-1.70599 l -0.07226,-0.28351 v -9.5802 -9.5802 l 0.07161,-0.27189 c 0.208437,-0.79097 0.719054,-1.35827 1.465763,-1.62846 0.580756,-0.21013 -0.316993,-0.19636 12.201319,-0.18718 l 11.37132,0.008 0.25495,0.0743 c 0.7786,0.22678 1.30165,0.63409 1.58879,1.23723 0.26424,0.55505 0.28849,0.82694 0.2766,3.10276 l -0.009,1.7593 -0.61436,0.009 -0.61437,0.009 -0.01,-1.9599 c -0.01,-1.95618 -0.01,-1.96025 -0.0824,-2.14047 -0.13927,-0.34442 -0.35779,-0.566 -0.70506,-0.71491 -0.14863,-0.0637 -0.22037,-0.0643 -11.52105,-0.0726 -11.235972,-0.008 -11.373979,-0.008 -11.579848,0.0546 -0.320465,0.097 -0.579949,0.30519 -0.719762,0.57759 -0.147988,0.28833 -0.142679,0.004 -0.143083,7.66895 l -3.63e-4,7.23714 h 9.276326 9.27632 v 0.65574 0.65574 h -9.27787 -9.277812 l 0.0095,1.47941 c 0.009,1.39788 0.01305,1.48766 0.07362,1.62898 0.148262,0.34573 0.365746,0.55081 0.748175,0.70552 l 0.179292,0.0726 8.772525,0.008 8.77252,0.008 v 0.63935 0.63935 h -1.85527 -1.85526 v 1.29549 1.29549 h 1.24751 1.2475 v 0.65574 0.65573 h -4.95806 -4.95803 z m 13.3075,0.60447 c -0.36353,-0.0977 -0.64769,-0.33683 -0.81332,-0.68443 l -0.0991,-0.20792 v -8.95646 -8.95645 l 0.0746,-0.18502 c 0.0968,-0.23991 0.36218,-0.52743 0.58943,-0.63871 0.0953,-0.0467 0.26557,-0.0998 0.37834,-0.11812 0.28398,-0.046 11.2257,-0.046 11.5097,0 0.11277,0.0183 0.28302,0.0714 0.37833,0.11812 0.22726,0.11128 0.49261,0.3988 0.58944,0.63871 l 0.0746,0.18502 0.009,2.61497 0.009,2.61497 h -0.62465 -0.62465 v -2.15916 -2.15913 h -5.56579 -5.56579 v 7.72493 7.72494 h 3.71052 3.71053 v 1.2475 1.24751 l -3.7825,-0.003 c -3.22422,-0.002 -3.80834,-0.009 -3.95765,-0.0491 z m 6.16605,-0.64904 c 0.23215,-0.11849 0.33961,-0.31361 0.32025,-0.58142 -0.0173,-0.24003 -0.12878,-0.41239 -0.32936,-0.50948 -0.29406,-0.14235 -0.67308,-0.024 -0.8152,0.25458 -0.11841,0.23211 -0.0633,0.58404 0.11592,0.74094 0.18712,0.16379 0.49352,0.20504 0.70839,0.0954 z m 3.22642,0.65365 c -0.15139,-0.054 -0.26406,-0.15616 -0.34395,-0.31192 -0.0591,-0.11536 -0.0609,-0.27906 -0.0609,-5.83559 v -5.71689 l 0.0685,-0.14168 c 0.0456,-0.0942 0.11739,-0.17264 0.21418,-0.23402 l 0.14567,-0.0923 h 3.25747 c 2.66355,0 3.27632,0.008 3.3609,0.0432 0.13578,0.0567 0.29868,0.24521 0.3423,0.39608 0.0247,0.0855 0.0322,1.7777 0.0254,5.81948 l -0.01,5.69898 -0.0964,0.1387 c -0.0564,0.0811 -0.15549,0.16858 -0.23869,0.21066 l -0.14228,0.0719 -1.85648,-0.002 -1.8565,-0.002 0.13764,-0.0667 c 0.43983,-0.21322 0.46717,-0.82583 0.0484,-1.08549 -0.17106,-0.10609 -0.45701,-0.10609 -0.62807,0 -0.41873,0.25966 -0.39137,0.87227 0.0484,1.08549 l 0.13763,0.0667 -1.21553,3.7e-4 c -0.94881,0 -1.24248,-0.01 -1.33849,-0.0437 z m 5.76874,-6.78283 v -4.33447 l -2.47102,0.008 -2.47102,0.008 -0.008,4.32628 -0.008,4.32629 h 2.47914 2.47914 z m -23.75057,0.29168 c -0.0528,-0.023 -0.14841,-0.1 -0.21248,-0.17095 -0.25466,-0.28213 -0.21361,-0.72698 0.0884,-0.95727 0.14954,-0.11408 0.4565,-0.14342 0.61934,-0.0592 0.31017,0.16041 0.43977,0.54381 0.292,0.86397 -0.13873,0.30058 -0.49975,0.44893 -0.78719,0.32348 z"
         id="path6240"
         inkscape:connector-curvature="0" />
    </g>
    <g
       id="g6283"
       transform="translate(-145.19512,10.971188)">
      <circle
         r="26.458334"
         cy="84.577377"
         cx="241.90474"
         id="path6274"
         style="fill:#f7df1e;fill-opacity:1;stroke:none;stroke-width:0.79374999;stroke-miterlimit:4;stroke-dasharray:none;stroke-opacity:1" />
      <path
         style="fill:#282828;fill-opacity:1;stroke-width:0.19008933"
         d="m 253.61631,93.113004 c -2.19573,-0.46063 -3.9066,-1.7479 -4.73869,-3.56544 -0.40999,-0.89555 -0.46229,-1.23216 -0.38878,-2.50216 0.11941,-2.0627 0.72136,-3.22244 3.87578,-7.467097 l 2.64385,-3.55764 2.24477,-0.007 c 1.74585,-0.005 2.21333,0.0463 2.10332,0.23107 -0.38382,0.64473 -3.09973,4.14355 -3.79953,4.8948 l -0.79681,0.85541 h 1.54979 c 1.313,0 1.71558,0.0814 2.63482,0.53281 1.87653,0.921497 2.81875,2.555267 2.80347,4.861107 -0.0135,2.0397 -0.72041,3.43942 -2.32342,4.60064 -1.35218,0.97951 -4.0273,1.49673 -5.80857,1.12304 z m 2.7372,-3.58913 c 1.30104,-0.59091 1.7839,-2.16275 1.03943,-3.38369 -0.55002,-0.90206 -1.18132,-1.23611 -2.31947,-1.22729 -1.17493,0.009 -1.80652,0.39804 -2.31815,1.42759 -0.6042,1.21577 -0.0188,2.70506 1.28658,3.27344 0.80048,0.34853 1.39715,0.32529 2.31161,-0.09 z m -17.40298,3.29931 c -1.4959,-0.41963 -2.5621,-1.10819 -3.44445,-2.22445 -0.7666,-0.9698 -0.76898,-0.97786 -0.3759,-1.273 0.21756,-0.16336 0.86911,-0.55248 1.44787,-0.86469 l 1.05232,-0.56769 0.48558,0.62048 c 0.771,0.98515 1.82455,1.42653 3.17231,1.32904 0.94685,-0.0684 1.21118,-0.16889 1.58317,-0.60136 1.00748,-1.17125 0.27726,-2.20029 -2.36384,-3.33118 -3.4178,-1.46348 -4.60726,-2.84211 -4.59892,-5.330387 0.005,-1.53323 0.42201,-2.51879 1.46198,-3.45639 1.00157,-0.90298 1.92424,-1.20529 3.67202,-1.20318 1.81467,0.002 3.3409,0.67509 4.19004,1.8473 0.30604,0.42248 0.55643,0.82116 0.55643,0.88597 0,0.0648 -0.59818,0.48695 -1.32929,0.9381 l -1.32929,0.82026 -0.49231,-0.58509 c -1.12567,-1.33777 -3.31214,-0.97682 -3.31214,0.54678 0,0.86383 0.54698,1.32319 2.91377,2.44698 1.27253,0.604207 2.62864,1.375167 3.0136,1.713247 1.02799,0.90278 1.53893,2.09237 1.55287,3.6155 0.0199,2.17173 -1.09999,3.7983 -3.09754,4.49906 -1.26528,0.44387 -3.50551,0.52612 -4.75828,0.1747 z m -16.83448,-0.13241 c -0.0507,-0.13225 -0.0699,-3.91868 -0.0427,-8.41429 l 0.0497,-8.173847 5.56785,-0.0504 5.56785,-0.0504 -0.0552,1.57111 -0.0552,1.57113 -3.75427,0.0515 -3.75425,0.0515 v 1.80183 1.80183 h 3.32655 3.32657 v 1.425667 1.42567 h -3.32657 -3.32655 v 1.99208 1.99208 l 3.94434,0.0514 3.94435,0.0514 v 1.52072 1.52072 l -5.66003,0.0503 c -4.42548,0.0394 -5.68015,-0.002 -5.75228,-0.19009 z"
         id="path6279"
         inkscape:connector-curvature="0" />
    </g>
    <g
       id="g6328"
       transform="translate(-408.02137,-162.1196)">
      <g
         id="g6363">
        <g
           id="g6373">
          <g
             id="g6383">
            <circle
               style="fill:#f05334;fill-opacity:1;stroke:none;stroke-width:0.26326698;stroke-miterlimit:4;stroke-dasharray:none;stroke-opacity:1"
               id="path6319"
               cx="441.5589"
               cy="256.73502"
               r="26.3267" />
            <path
               sodipodi:nodetypes="csccscsccscccccccccccccccccccccccssccccccssscc"
               inkscape:connector-curvature="0"
               id="path6321"
               d="m 440.4014,276.25698 c -0.19151,-0.0997 -4.36486,-4.1901 -9.27411,-9.08971 -6.35262,-6.34014 -8.99419,-9.04328 -9.1627,-9.3763 -0.34381,-0.60787 -0.38058,-1.67492 -0.009,-2.23559 0.13003,-0.24674 2.69632,-2.89008 6.30876,-6.49818 l 6.08956,-6.08226 2.23694,2.23497 c 1.57288,1.57151 2.21665,2.28127 2.16863,2.39094 -0.13163,0.30059 -0.16183,1.41105 -0.0497,1.82746 0.17378,0.64537 0.72619,1.3961 1.28117,1.74109 l 0.4984,0.30982 -2e-4,5.41746 -2.1e-4,5.41745 -0.47158,0.29793 c -1.18398,0.74801 -1.70067,2.26513 -1.23592,3.62905 0.22553,0.66191 0.87086,1.35935 1.57788,1.70526 0.75978,0.37172 1.79665,0.39839 2.53706,0.0653 1.41217,-0.6354 2.15077,-2.26515 1.69325,-3.73618 -0.15159,-0.48739 -0.32097,-0.74172 -0.84519,-1.26905 l -0.65557,-0.65951 v -5.31839 -5.31839 l 2.00977,2.00779 2.00978,2.00778 -0.14852,0.58315 c -0.13093,0.51405 -0.12924,0.66124 0.0142,1.24258 0.78853,3.19534 5.13115,3.22445 5.94699,0.0399 0.16884,-0.65905 0.0976,-1.49 -0.1723,-2.01027 -0.26937,-0.51921 -0.82823,-1.08829 -1.35558,-1.38038 -0.51135,-0.28322 -0.6421,-0.30896 -1.57087,-0.30916 l -1.01307,-2.1e-4 -2.11351,-2.11162 -2.1135,-2.11162 0.10215,-0.56359 c 0.3605,-1.98885 -1.53816,-3.91292 -3.47061,-3.51706 l -0.5047,0.10338 -2.26651,-2.26827 -2.26651,-2.26827 1.92268,-1.93098 c 1.05746,-1.06204 2.10984,-2.0295 2.33859,-2.14991 0.53718,-0.35164 1.64266,-0.3598 2.23559,0.0128 0.67016,0.34449 18.18846,17.86887 18.51486,18.52129 0.27189,0.54345 0.31647,1.38891 0.10692,2.02763 -0.11206,0.34159 -1.74666,2.02868 -9.14516,9.43883 -6.09099,6.10059 -9.15271,8.95716 -9.42463,9.22118 -0.55056,0.53749 -1.61082,0.44923 -2.32383,-0.0381 z"
               style="fill:#f05033;fill-opacity:1;stroke:none;stroke-width:0.22074984;stroke-miterlimit:4;stroke-dasharray:none;stroke-opacity:1" />
            <path
               sodipodi:nodetypes="csccccccsssccc"
               inkscape:connector-curvature="0"
               id="path6321-5"
               d="m 440.40143,276.25706 c -0.19151,-0.0997 -4.36486,-4.19011 -9.27411,-9.08972 -6.35263,-6.34013 -8.99419,-9.04328 -9.1627,-9.37629 -0.34381,-0.60788 -0.38059,-1.67492 -0.009,-2.23559 0.13002,-0.24674 2.69632,-2.89008 6.30876,-6.49819 l 9.83434,-9.83397 c 1.05746,-1.06204 2.10984,-2.0295 2.33859,-2.14991 0.53718,-0.35164 1.64266,-0.3598 2.23559,0.0128 0.67016,0.34449 18.18846,17.86887 18.51486,18.52129 0.27189,0.54345 0.31647,1.38891 0.10693,2.02763 -0.11206,0.34159 -1.74667,2.02868 -9.14517,9.43883 -6.09099,6.10059 -9.1527,8.95716 -9.42463,9.22118 -0.55056,0.53749 -1.61082,0.44923 -2.32383,-0.0381 z"
               style="fill:#ffffff;fill-opacity:1;stroke:none;stroke-width:0.22074984;stroke-miterlimit:4;stroke-dasharray:none;stroke-opacity:1" />
            <path
               style="fill:#f05033;fill-opacity:1;stroke:none;stroke-width:0.22074984;stroke-miterlimit:4;stroke-dasharray:none;stroke-opacity:1"
               d="m 440.4014,276.25698 c -0.19151,-0.0997 -4.36486,-4.1901 -9.27411,-9.08971 -6.35262,-6.34014 -8.99419,-9.04328 -9.1627,-9.3763 -0.34381,-0.60787 -0.38058,-1.67492 -0.009,-2.23559 0.13003,-0.24674 2.69632,-2.89008 6.30876,-6.49818 l 6.08956,-6.08226 2.23694,2.23497 c 1.57288,1.57151 2.21665,2.28127 2.16863,2.39094 -0.13163,0.30059 -0.16183,1.41105 -0.0497,1.82746 0.17378,0.64537 0.72619,1.3961 1.28117,1.74109 l 0.4984,0.30982 -2e-4,5.41746 -2.1e-4,5.41745 -0.47158,0.29793 c -1.18398,0.74801 -1.70067,2.26513 -1.23592,3.62905 0.22553,0.66191 0.87086,1.35935 1.57788,1.70526 0.75978,0.37172 1.79665,0.39839 2.53706,0.0653 1.41217,-0.6354 2.15077,-2.26515 1.69325,-3.73618 -0.15159,-0.48739 -0.32097,-0.74172 -0.84519,-1.26905 l -0.65557,-0.65951 v -5.31839 -5.31839 l 2.00977,2.00779 2.00978,2.00778 -0.14852,0.58315 c -0.13093,0.51405 -0.12924,0.66124 0.0142,1.24258 0.78853,3.19534 5.13115,3.22445 5.94699,0.0399 0.16884,-0.65905 0.0976,-1.49 -0.1723,-2.01027 -0.26937,-0.51921 -0.82823,-1.08829 -1.35558,-1.38038 -0.51135,-0.28322 -0.6421,-0.30896 -1.57087,-0.30916 l -1.01307,-2.1e-4 -2.11351,-2.11162 -2.1135,-2.11162 0.10215,-0.56359 c 0.3605,-1.98885 -1.53816,-3.91292 -3.47061,-3.51706 l -0.5047,0.10338 -2.26651,-2.26827 -2.26651,-2.26827 1.92268,-1.93098 c 1.05746,-1.06204 2.10984,-2.0295 2.33859,-2.14991 0.53718,-0.35164 1.64266,-0.3598 2.23559,0.0128 0.67016,0.34449 18.18846,17.86887 18.51486,18.52129 0.27189,0.54345 0.31647,1.38891 0.10692,2.02763 -0.11206,0.34159 -1.74666,2.02868 -9.14516,9.43883 -6.09099,6.10059 -9.15271,8.95716 -9.42463,9.22118 -0.55056,0.53749 -1.61082,0.44923 -2.32383,-0.0381 z"
               id="path6345"
               inkscape:connector-curvature="0"
               sodipodi:nodetypes="csccscsccscccccccccccccccccccccccssccccccssscc" />
            <path
               style="fill:#ffffff;fill-opacity:1;stroke:none;stroke-width:0.22074984;stroke-miterlimit:4;stroke-dasharray:none;stroke-opacity:1"
               d="m 440.40143,276.25706 c -0.19151,-0.0997 -4.36486,-4.19011 -9.27411,-9.08972 -6.35263,-6.34013 -8.99419,-9.04328 -9.1627,-9.37629 -0.34381,-0.60788 -0.38059,-1.67492 -0.009,-2.23559 0.13002,-0.24674 2.69632,-2.89008 6.30876,-6.49819 l 9.83434,-9.83397 c 1.05746,-1.06204 2.10984,-2.0295 2.33859,-2.14991 0.53718,-0.35164 1.64266,-0.3598 2.23559,0.0128 0.67016,0.34449 18.18846,17.86887 18.51486,18.52129 0.27189,0.54345 0.31647,1.38891 0.10693,2.02763 -0.11206,0.34159 -1.74667,2.02868 -9.14517,9.43883 -6.09099,6.10059 -9.1527,8.95716 -9.42463,9.22118 -0.55056,0.53749 -1.61082,0.44923 -2.32383,-0.0381 z"
               id="path6347"
               inkscape:connector-curvature="0"
               sodipodi:nodetypes="csccccccsssccc" />
            <path
               sodipodi:nodetypes="csccscsccscccccccccccccccccccccccssccccccssscc"
               inkscape:connector-curvature="0"
               id="path6349"
               d="m 440.4014,276.25698 c -0.19151,-0.0997 -4.36486,-4.1901 -9.27411,-9.08971 -6.35262,-6.34014 -8.99419,-9.04328 -9.1627,-9.3763 -0.34381,-0.60787 -0.38058,-1.67492 -0.009,-2.23559 0.13003,-0.24674 2.69632,-2.89008 6.30876,-6.49818 l 6.08956,-6.08226 2.23694,2.23497 c 1.57288,1.57151 2.21665,2.28127 2.16863,2.39094 -0.13163,0.30059 -0.16183,1.41105 -0.0497,1.82746 0.17378,0.64537 0.72619,1.3961 1.28117,1.74109 l 0.4984,0.30982 -2e-4,5.41746 -2.1e-4,5.41745 -0.47158,0.29793 c -1.18398,0.74801 -1.70067,2.26513 -1.23592,3.62905 0.22553,0.66191 0.87086,1.35935 1.57788,1.70526 0.75978,0.37172 1.79665,0.39839 2.53706,0.0653 1.41217,-0.6354 2.15077,-2.26515 1.69325,-3.73618 -0.15159,-0.48739 -0.32097,-0.74172 -0.84519,-1.26905 l -0.65557,-0.65951 v -5.31839 -5.31839 l 2.00977,2.00779 2.00978,2.00778 -0.14852,0.58315 c -0.13093,0.51405 -0.12924,0.66124 0.0142,1.24258 0.78853,3.19534 5.13115,3.22445 5.94699,0.0399 0.16884,-0.65905 0.0976,-1.49 -0.1723,-2.01027 -0.26937,-0.51921 -0.82823,-1.08829 -1.35558,-1.38038 -0.51135,-0.28322 -0.6421,-0.30896 -1.57087,-0.30916 l -1.01307,-2.1e-4 -2.11351,-2.11162 -2.1135,-2.11162 0.10215,-0.56359 c 0.3605,-1.98885 -1.53816,-3.91292 -3.47061,-3.51706 l -0.5047,0.10338 -2.26651,-2.26827 -2.26651,-2.26827 1.92268,-1.93098 c 1.05746,-1.06204 2.10984,-2.0295 2.33859,-2.14991 0.53718,-0.35164 1.64266,-0.3598 2.23559,0.0128 0.67016,0.34449 18.18846,17.86887 18.51486,18.52129 0.27189,0.54345 0.31647,1.38891 0.10692,2.02763 -0.11206,0.34159 -1.74666,2.02868 -9.14516,9.43883 -6.09099,6.10059 -9.15271,8.95716 -9.42463,9.22118 -0.55056,0.53749 -1.61082,0.44923 -2.32383,-0.0381 z"
               style="fill:#f05033;fill-opacity:1;stroke:none;stroke-width:0.22074984;stroke-miterlimit:4;stroke-dasharray:none;stroke-opacity:1" />
            <path
               sodipodi:nodetypes="csccccccsssccc"
               inkscape:connector-curvature="0"
               id="path6351"
               d="m 440.3951,276.25706 c -0.19151,-0.0997 -4.36486,-4.1901 -9.27412,-9.08972 -6.35262,-6.34013 -8.99417,-9.04328 -9.16269,-9.37629 -0.34381,-0.60788 -0.38058,-1.67492 -0.009,-2.23559 0.13003,-0.24674 2.69633,-2.89008 6.30877,-6.49819 l 9.83434,-9.83397 c 1.05746,-1.06204 2.10984,-2.0295 2.3386,-2.14991 0.53717,-0.35164 1.64265,-0.3598 2.23559,0.0128 0.67015,0.34449 18.18845,17.86887 18.51485,18.52129 0.27189,0.54345 0.31647,1.38891 0.10693,2.02763 -0.11207,0.34159 -1.74667,2.02868 -9.14517,9.43884 -6.09098,6.10058 -9.15269,8.95715 -9.42463,9.22117 -0.55056,0.53749 -1.61081,0.44923 -2.32382,-0.0381 z"
               style="fill:#ffffff;fill-opacity:1;stroke:#ffffff;stroke-width:1.26262057;stroke-miterlimit:4;stroke-dasharray:none;stroke-opacity:1" />
            <path
               style="fill:#f05033;fill-opacity:1;stroke:none;stroke-width:0.22074984;stroke-miterlimit:4;stroke-dasharray:none;stroke-opacity:1"
               d="m 440.4014,276.25698 c -0.19151,-0.0997 -4.36486,-4.1901 -9.27411,-9.08971 -6.35262,-6.34014 -8.99419,-9.04328 -9.1627,-9.3763 -0.34381,-0.60787 -0.38058,-1.67492 -0.009,-2.23559 0.13003,-0.24674 2.69632,-2.89008 6.30876,-6.49818 l 6.08956,-6.08226 2.23694,2.23497 c 1.57288,1.57151 2.21665,2.28127 2.16863,2.39094 -0.13163,0.30059 -0.16183,1.41105 -0.0497,1.82746 0.17378,0.64537 0.72619,1.3961 1.28117,1.74109 l 0.4984,0.30982 -2e-4,5.41746 -2.1e-4,5.41745 -0.47158,0.29793 c -1.18398,0.74801 -1.70067,2.26513 -1.23592,3.62905 0.22553,0.66191 0.87086,1.35935 1.57788,1.70526 0.75978,0.37172 1.79665,0.39839 2.53706,0.0653 1.41217,-0.6354 2.15077,-2.26515 1.69325,-3.73618 -0.15159,-0.48739 -0.32097,-0.74172 -0.84519,-1.26905 l -0.65557,-0.65951 v -5.31839 -5.31839 l 2.00977,2.00779 2.00978,2.00778 -0.14852,0.58315 c -0.13093,0.51405 -0.12924,0.66124 0.0142,1.24258 0.78853,3.19534 5.13115,3.22445 5.94699,0.0399 0.16884,-0.65905 0.0976,-1.49 -0.1723,-2.01027 -0.26937,-0.51921 -0.82823,-1.08829 -1.35558,-1.38038 -0.51135,-0.28322 -0.6421,-0.30896 -1.57087,-0.30916 l -1.01307,-2.1e-4 -2.11351,-2.11162 -2.1135,-2.11162 0.10215,-0.56359 c 0.3605,-1.98885 -1.53816,-3.91292 -3.47061,-3.51706 l -0.5047,0.10338 -2.26651,-2.26827 -2.26651,-2.26827 1.92268,-1.93098 c 1.05746,-1.06204 2.10984,-2.0295 2.33859,-2.14991 0.53718,-0.35164 1.64266,-0.3598 2.23559,0.0128 0.67016,0.34449 18.18846,17.86887 18.51486,18.52129 0.27189,0.54345 0.31647,1.38891 0.10692,2.02763 -0.11206,0.34159 -1.74666,2.02868 -9.14516,9.43883 -6.09099,6.10059 -9.15271,8.95716 -9.42463,9.22118 -0.55056,0.53749 -1.61082,0.44923 -2.32383,-0.0381 z"
               id="path6353"
               inkscape:connector-curvature="0"
               sodipodi:nodetypes="csccscsccscccccccccccccccccccccccssccccccssscc" />
          </g>
        </g>
      </g>
    </g>
    <g
       id="g7024"
       transform="matrix(0.54555841,0,0,0.54555841,301.82256,-1.8781968)">
      <g
         id="g7047"
         transform="matrix(1.0063414,0,0,1.0063414,-855.56254,-507.75824)">
        <ellipse
           ry="40.876949"
           rx="42.12989"
           cy="792.30292"
           cx="364.03021"
           id="path7038"
           style="opacity:0.93999999;fill:#ffffff;fill-opacity:1;stroke:#000000;stroke-width:12.1244278;stroke-miterlimit:4;stroke-dasharray:none;stroke-opacity:1;paint-order:markers stroke fill" />
        <g
           transform="matrix(0.155,0,0,0.155,263.52933,741.30297)"
           id="g7036">
          <path
             transform="matrix(1.8329843,0,0,1.8329843,-553.23601,3.4427052)"
             style="opacity:0.93999999;fill:#000000;fill-opacity:1;stroke:none;stroke-width:38.10704803;stroke-miterlimit:4;stroke-dasharray:none;stroke-opacity:1;paint-order:markers stroke fill"
             d="m 787.85006,184.45618 c -7e-5,33.78018 1.7e-4,67.11967 2.7e-4,101.60008 7e-5,17.00314 -13.68848,30.69159 -30.69168,30.69159 H 553.95874 c -17.00319,0 -30.69167,-13.68845 -30.69167,-30.69159 V 184.45618 c 95.53066,0.0512 179.94698,0 264.58299,0 z"
             id="rect6944-8"
             inkscape:connector-curvature="0"
             sodipodi:nodetypes="ccssccc" />
          <g
             id="g6992"
             transform="matrix(1.8329843,0,0,1.8329843,-338.55634,74.316167)">
            <path
               style="opacity:0.93999999;fill:#feb03a;stroke:#000000;stroke-width:32.88420868;stroke-miterlimit:4;stroke-dasharray:none;stroke-opacity:1;paint-order:markers stroke fill"
               d="m 538.71628,30.170297 c -0.64396,-0.01002 -1.27573,0.02004 -1.88854,0.08167 -5.37508,0.560595 -9.43065,2.47698 -13.12395,6.201066 -3.06784,3.093444 -4.87046,6.419481 -5.78698,10.67786 -0.44343,2.05137 -0.44243,5.944769 0,7.977749 0.81639,3.749799 2.40488,6.954079 4.83926,9.761659 l 1.01746,1.1735 v 22.031257 22.031302 h -0.32046 c -0.23547,0 -4.40137,-4.09076 -15.72399,-15.439503 l -15.404,-15.439208 -0.13548,-1.66805 c -0.24746,-3.04008 -0.89473,-5.359679 -2.2266,-7.977459 -2.88606,-5.672089 -7.93594,-9.590939 -14.33568,-11.124808 -1.10646,-0.26506 -1.70842,-0.30916 -4.27523,-0.31066 -2.66249,-0.003 -3.13433,0.0351 -4.33882,0.33321 -4.31003,1.069129 -7.27298,2.725409 -10.33357,5.776709 -2.48102,2.473419 -4.06426,4.992789 -5.10097,8.116399 -0.83984,2.530389 -0.99602,3.562139 -0.99602,6.580129 0,3.017929 0.15598,4.049929 0.99602,6.580369 2.32919,7.017759 8.42913,12.434758 15.7105,13.951838 0.58196,0.12125 1.79581,0.2806 2.69754,0.35426 l 1.63958,0.13378 15.40449,15.438604 c 11.32298,11.34838 15.40429,15.52404 15.40429,15.76004 v 0.32118 h -21.98141 -21.98111 l -1.17105,-1.01977 c -2.91705,-2.54067 -6.23541,-4.1535 -10.133,-4.92514 -1.90434,-0.37682 -5.62699,-0.33974 -7.56628,0.0757 -2.75859,0.591 -5.26149,1.64024 -7.58404,3.17932 -1.75142,1.16062 -4.45635,3.85717 -5.67049,5.6528 -2.05942,3.04569 -3.3356,6.72609 -3.63171,10.47513 l -0.076,0.9624 0.076,0.9624 c 0.29596,3.74904 1.57229,7.42943 3.63171,10.47512 1.21414,1.79563 3.91907,4.49243 5.67049,5.65306 2.32255,1.53907 4.82545,2.58831 7.58404,3.17932 1.93929,0.41539 5.66194,0.45297 7.56628,0.0757 3.89759,-0.77159 7.21595,-2.38473 10.133,-4.92539 l 1.17105,-1.01978 h 21.98111 21.98141 v 0.32118 c 0,0.236 -4.08131,4.41166 -15.40429,15.75999 l -15.40449,15.43895 -1.63958,0.13379 c -0.90173,0.0737 -2.11558,0.233 -2.69754,0.35426 -7.28137,1.51708 -13.38131,6.93438 -15.7105,13.95218 -0.83984,2.53039 -0.99602,3.5621 -0.99602,6.58008 0,3.01798 0.15598,4.04998 0.99602,6.58038 1.03671,3.1236 2.61995,5.64272 5.10097,8.11614 3.06059,3.05131 6.02354,4.70759 10.33357,5.77667 1.20449,0.29863 1.67633,0.33471 4.33882,0.33321 2.56681,-0.001 3.16877,-0.0451 4.27523,-0.31066 6.39974,-1.53392 11.44962,-5.45272 14.33568,-11.12482 1.33187,-2.61777 1.97939,-4.93743 2.2266,-7.97745 l 0.13548,-1.66805 15.404,-15.43926 C 519.0517,185.77196 523.2177,181.6812 523.45307,181.6812 h 0.32046 v 22.03124 22.03126 l -1.01746,1.1735 c -2.43438,2.80764 -4.02287,6.01186 -4.83926,9.76171 -0.44243,2.03294 -0.44343,5.92663 0,7.978 0.91652,4.25843 2.71914,7.58412 5.78698,10.67757 3.6933,3.72413 7.74887,5.64057 13.12395,6.2011 3.26831,0.34072 7.07355,-0.37178 10.41416,-1.95045 5.9257,-2.80022 10.28912,-8.36939 11.69643,-14.92822 0.45044,-2.09867 0.44644,-5.81273 -0.01,-7.94017 -0.81499,-3.81283 -2.34239,-6.90536 -4.84365,-9.8065 l -1.00577,-1.16654 V 203.71244 181.6812 h 0.32046 c 0.23547,0 4.39876,4.08865 15.71655,15.43419 l 15.39649,15.43419 0.14648,1.69061 c 0.26846,3.09609 0.90247,5.36719 2.21471,7.93851 2.11551,4.14509 5.28764,7.29881 9.37999,9.32498 2.02443,1.00233 2.95095,1.34356 4.94229,1.82013 1.1398,0.27258 1.71903,0.31517 4.30442,0.31718 2.66251,0.003 3.13434,-0.0351 4.33878,-0.33321 4.29702,-1.06588 7.27773,-2.73413 10.32727,-5.77973 3.09789,-3.09403 4.91024,-6.43901 5.84636,-10.79034 0.36445,-1.69356 0.36395,-6.10958 0,-7.82403 -1.16563,-5.47938 -4.40421,-10.38193 -8.81991,-13.3512 -3.16663,-2.12945 -6.52139,-3.30349 -10.32632,-3.61436 l -1.63929,-0.13379 -15.40454,-15.43895 c -11.32259,-11.34833 -15.40394,-15.52403 -15.40394,-15.75999 v -0.32118 h 21.98741 21.98752 l 1.14644,1.01251 c 2.83768,2.50624 6.3542,4.21278 10.14514,4.92319 2.11287,0.39585 5.46848,0.36428 7.52715,-0.0712 4.27327,-0.90367 7.58988,-2.70065 10.69197,-5.79255 3.76224,-3.74999 5.73278,-8.04249 6.23482,-13.58154 l 0.081,-0.8911 -0.081,-0.89115 c -0.50204,-5.53901 -2.47258,-9.83156 -6.23482,-13.58145 -3.10209,-3.09194 -6.4187,-4.88867 -10.69197,-5.79229 -2.05867,-0.43544 -5.41428,-0.46751 -7.52715,-0.0712 -3.79094,0.71041 -7.30746,2.41695 -10.14514,4.9232 l -1.14644,1.0125 h -21.98752 -21.98741 v -0.32118 c 0,-0.236 4.08135,-4.41166 15.40394,-15.75999 l 15.40454,-15.438654 1.63929,-0.13378 c 3.80493,-0.31067 7.15969,-1.48517 10.32632,-3.614549 4.4157,-2.96934 7.65428,-7.871889 8.81991,-13.351269 0.36395,-1.714449 0.36445,-6.130509 0,-7.824019 -0.93612,-4.351329 -2.74847,-7.696309 -5.84636,-10.790348 -3.04954,-3.04564 -6.03025,-4.71385 -10.32727,-5.779769 -1.20444,-0.29864 -1.67627,-0.33522 -4.33878,-0.33321 -2.58539,10e-4 -3.16462,0.0451 -4.30442,0.31717 -1.99134,0.476519 -2.91786,0.817799 -4.94229,1.820079 -4.09235,2.02622 -7.26448,5.17994 -9.37999,9.325029 -1.31224,2.57133 -1.946,4.842419 -2.21471,7.938519 l -0.14648,1.6906 -15.39649,15.434198 c -11.31779,11.345533 -15.48108,15.434193 -15.71655,15.434193 h -0.32046 V 88.074908 66.043651 l 1.00577,-1.16653 c 2.50126,-2.90114 4.02866,-5.99368 4.84365,-9.806549 0.45444,-2.12739 0.45844,-5.841149 0.01,-7.939829 -1.40731,-6.558878 -5.77073,-12.127996 -11.69643,-14.928215 -2.71425,-1.282684 -5.73518,-1.993599 -8.52562,-2.032331 z"
               id="path6911"
               inkscape:connector-curvature="0" />
          </g>
          <path
             transform="matrix(1.8329843,0,0,1.8329843,-553.23601,3.4427052)"
             style="opacity:0.93999999;fill:#000000;fill-opacity:0.85507244;stroke:none;stroke-width:38.10704803;stroke-miterlimit:4;stroke-dasharray:none;stroke-opacity:1;paint-order:markers stroke fill"
             d="m 787.85002,184.45618 c -7e-5,33.78018 1.7e-4,67.11967 3.4e-4,101.60008 8e-5,17.00314 -13.68848,30.69159 -30.69167,30.69159 H 553.9587 c -17.00319,0 -30.69167,-13.68845 -30.69167,-30.69159 V 184.45618 c 95.53066,0.0512 179.94698,0 264.58299,0 z"
             id="rect6944"
             inkscape:connector-curvature="0"
             sodipodi:nodetypes="ccssccc" />
          <path
             id="path7013"
             style="fill:#ffffff;fill-opacity:1;stroke-width:0.25929597"
             d="m 782.84185,569.17618 c 26.27226,-3.23513 47.98689,-22.62269 54.00753,-48.21983 1.65563,-7.03936 1.57449,-4.93262 1.66681,-43.23753 l 0.0843,-34.94013 h -31.64297 -31.64295 v 18.66931 18.66931 h 13.11133 13.11146 l -0.10772,14.97425 c -0.0902,12.5887 -0.17375,15.24288 -0.52245,16.65979 -1.88947,7.67852 -6.29426,13.64359 -12.7708,17.29464 -10.37179,5.84687 -23.15325,4.09686 -31.50671,-4.31394 -3.38223,-3.40536 -5.59433,-7.27946 -6.93726,-12.14945 l -0.69395,-2.51668 -0.0794,-46.80293 c -0.0823,-48.74757 -0.0617,-49.83323 1.01637,-53.7283 4.19447,-15.14958 20.90288,-23.17004 35.55834,-17.06895 5.31735,2.21366 10.13629,6.6942 12.91345,12.00667 1.72445,3.29883 2.59696,6.29582 2.98035,10.23745 l 0.18275,1.87986 h 18.54517 18.54504 l -0.1765,-3.17633 c -1.52235,-27.39145 -20.18931,-50.68937 -46.35861,-57.85946 -6.44164,-1.76492 -9.09906,-2.09327 -16.94056,-2.09327 -7.8416,0 -10.49892,0.32835 -16.94066,2.09327 -25.30088,6.93214 -43.75028,29.08325 -46.19267,55.46097 -0.35614,3.84617 -0.35642,96.38978 0,100.47714 1.35802,15.58755 7.96666,29.44233 19.24282,40.34197 10.45806,10.10887 23.32341,16.04649 38.05669,17.56395 2.61458,0.26921 10.56475,0.13857 13.49109,-0.22178 z m -115.81214,-0.0559 c 0.0745,-0.24961 1.48794,-6.98801 3.14046,-14.97435 4.96593,-23.99854 16.39567,-79.19011 21.23773,-102.55154 2.49767,-12.05077 8.04505,-38.82951 12.32743,-59.50844 4.28248,-20.67883 7.84837,-37.86126 7.92431,-38.183 l 0.13808,-0.58515 -18.59443,0.0666 -18.59444,0.0665 -12.75196,61.58282 c -7.01359,33.87054 -12.90142,62.28287 -13.08401,63.13852 -0.27547,1.29108 -0.36143,1.44553 -0.50549,0.9075 -0.0951,-0.35653 -5.99956,-28.79699 -13.12036,-63.20105 l -12.9468,-62.55285 -18.62197,-0.003 c -17.6153,-0.003 -18.61452,0.0223 -18.48458,0.45148 0.0755,0.24951 3.28797,15.68095 7.13854,34.29185 6.56974,31.75281 15.47563,74.77454 26.62361,128.61085 2.643,12.76382 6.14461,29.68282 7.78124,37.59783 1.63663,7.915 3.03677,14.59518 3.11145,14.84469 0.1278,0.4267 1.24168,0.45385 18.6406,0.45385 17.3989,0 18.51278,-0.0274 18.64059,-0.45385 z m -137.93209,0.0617 c 11.03831,-1.29117 21.61435,-5.53886 30.5473,-12.26873 20.96872,-15.79727 30.01536,-42.5178 22.97197,-67.85053 -2.33253,-8.38933 -6.88716,-16.90714 -12.78509,-23.90975 -10.33614,-12.27225 -25.16672,-19.39795 -45.77508,-21.99362 -4.7821,-0.60232 -10.63867,-1.83322 -12.93426,-2.71847 -2.6287,-1.01372 -4.81394,-2.35419 -6.93773,-4.25581 -8.6609,-7.75487 -11.22952,-20.18834 -6.3313,-30.64648 6.63785,-14.17192 23.89113,-19.40785 37.40134,-11.35016 2.29844,1.37075 6.54631,5.32326 7.92901,7.37747 2.36812,3.51835 4.0017,7.97116 4.50141,12.2696 l 0.32008,2.75405 h 18.49301 18.49299 v -1.64045 c 0,-6.56876 -1.8685,-15.29874 -4.83794,-22.60378 -7.27574,-17.89892 -23.41788,-32.0383 -42.20303,-36.9668 -6.1938,-1.62496 -8.69313,-1.91811 -16.35686,-1.91811 -6.16969,0 -7.39618,0.0709 -10.32859,0.59676 -11.17336,2.00354 -21.06995,6.46428 -29.60628,13.34458 -2.50796,2.02148 -7.35669,6.8903 -9.34691,9.38581 -19.64315,24.62987 -18.57934,59.46689 2.51864,82.48345 3.5898,3.91615 5.6646,5.71036 9.6954,8.38433 8.1116,5.38098 19.28006,9.31623 33.17825,11.69052 12.85409,2.19582 17.71311,3.98004 22.06957,8.10375 8.44147,7.99066 10.49207,20.36484 5.10991,30.83611 -3.41556,6.6452 -9.19853,11.30684 -16.54836,13.33959 -3.47141,0.96012 -8.17892,1.10761 -11.75255,0.36839 -7.46831,-1.545 -13.59008,-5.83492 -17.42028,-12.20787 -2.1479,-3.57372 -3.29922,-7.17107 -3.75405,-11.72971 l -0.17464,-1.75021 H 476.6793 458.12505 l 0.17875,3.04677 c 0.96179,16.38675 7.58033,31.00232 19.11522,42.21106 4.43751,4.31207 8.34719,7.24212 13.57743,10.17551 6.40088,3.58989 15.03571,6.44782 22.04018,7.29484 1.28352,0.15514 2.62536,0.32429 2.98189,0.37574 1.8342,0.265 10.09662,0.12103 13.0791,-0.22785 z"
             inkscape:connector-curvature="0" />
        </g>
      </g>
    </g>
  </g>
</svg>
