<?xml version="1.0" encoding="UTF-8" standalone="no"?>
<!-- Created with Inkscape (http://www.inkscape.org/) -->

<svg
   xmlns:dc="http://purl.org/dc/elements/1.1/"
   xmlns:cc="http://creativecommons.org/ns#"
   xmlns:rdf="http://www.w3.org/1999/02/22-rdf-syntax-ns#"
   xmlns:svg="http://www.w3.org/2000/svg"
   xmlns="http://www.w3.org/2000/svg"
   xmlns:sodipodi="http://sodipodi.sourceforge.net/DTD/sodipodi-0.dtd"
   xmlns:inkscape="http://www.inkscape.org/namespaces/inkscape"
   width="32"
   height="32"
   viewBox="0 0 8.466666 8.466666"
   version="1.1"
   id="svg8"
   inkscape:version="0.92.4 (5da689c313, 2019-01-14)"
   sodipodi:docname="drawing.svg"
   inkscape:export-filename="C:\MyProject\Frontend - HOME\Portfolio\Temp_Potrfolio\src\img\drawing32х32.png"
   inkscape:export-xdpi="101.12391"
   inkscape:export-ydpi="101.12391">
  <defs
     id="defs2" />
  <sodipodi:namedview
     id="base"
     pagecolor="#ffffff"
     bordercolor="#666666"
     borderopacity="1.0"
     inkscape:pageopacity="0.0"
     inkscape:pageshadow="2"
     inkscape:zoom="22.4"
     inkscape:cx="14.715672"
     inkscape:cy="14.695365"
     inkscape:document-units="mm"
     inkscape:current-layer="layer1"
     showgrid="false"
     showguides="true"
     inkscape:guide-bbox="true"
     inkscape:window-width="1886"
     inkscape:window-height="1113"
     inkscape:window-x="255"
     inkscape:window-y="117"
     inkscape:window-maximized="0"
     units="px"
     inkscape:pagecheckerboard="true" />
  <metadata
     id="metadata5">
    <rdf:RDF>
      <cc:Work
         rdf:about="">
        <dc:format>image/svg+xml</dc:format>
        <dc:type
           rdf:resource="http://purl.org/dc/dcmitype/StillImage" />
        <dc:title></dc:title>
      </cc:Work>
    </rdf:RDF>
  </metadata>
  <g
     inkscape:label="Layer 1"
     inkscape:groupmode="layer"
     id="layer1"
     transform="translate(0,-288.53334)">
    <path
       style="fill:#d74300;fill-opacity:1;stroke-width:0.1;stroke-miterlimit:4;stroke-dasharray:none;stroke:#000000;stroke-opacity:1"
       d="M 1.0627597,296.39449 C 0.60274548,296.2779 0.21123915,295.81786 0.27054617,295.33133 v -5.39638 c 0,-0.43612 0.33288631,-0.82837 0.84211073,-0.82837 h 6.2310052 c 0.4972929,0 0.8558213,0.26651 0.8564637,0.75849 l 0.00196,1.5126 -0.6129372,-0.002 v -1.28382 c 0,-0.23287 -0.052944,-0.38046 -0.3251411,-0.38023 l -5.8904347,0.004 c -0.3493368,2.8e-4 -0.61454986,0.32265 -0.46983554,0.62833 0.08612,0.20899 0.30508624,0.27486 0.52245974,0.27587 l 4.4377252,0.0208 c 1.2305448,0.006 1.0756253,1.18534 1.0756253,1.18534 1.0855138,0 1.2558035,0.64106 1.2558035,1.54012 v 2.22568 c -0.099828,0.52498 -0.6636991,0.89091 -1.1884606,0.82796 -1.9388355,0.006 -3.8781147,0.016 -5.8167402,-0.0104 l -0.08011,-0.008 -0.047286,-0.0103 z m 5.9442177,-1.19852 -1.8278941,-2.37191 -1.2558844,1.51489 -0.7134569,-0.95505 -1.3833219,1.81656 z m -3.93785,-2.77903 c 0.3763543,-0.18161 0.2742453,-0.83486 -0.147966,-0.87133 -0.5172388,-0.1124 -0.7406993,0.72602 -0.2422012,0.89411 0.1250341,0.0492 0.2723429,0.0437 0.3901668,-0.0228 z"
       id="path4540"
       inkscape:connector-curvature="0"
       sodipodi:nodetypes="ccsssscccsscsscccccccccccccccccc" />
  </g>
</svg>
