<?xml version="1.0" encoding="UTF-8" standalone="no"?>
<svg
   xmlns:dc="http://purl.org/dc/elements/1.1/"
   xmlns:cc="http://creativecommons.org/ns#"
   xmlns:rdf="http://www.w3.org/1999/02/22-rdf-syntax-ns#"
   xmlns:svg="http://www.w3.org/2000/svg"
   xmlns="http://www.w3.org/2000/svg"
   xmlns:xlink="http://www.w3.org/1999/xlink"
   viewBox="0 0 264.583 264.583"
   version="1.1"
   id="svg12">
  <metadata
     id="metadata16">
    <rdf:RDF>
      <cc:Work
         rdf:about="">
        <dc:format>image/svg+xml</dc:format>
        <dc:type
           rdf:resource="http://purl.org/dc/dcmitype/StillImage" />
        <dc:title></dc:title>
      </cc:Work>
    </rdf:RDF>
  </metadata>
  <defs
     id="defs8">
    <linearGradient
       id="b"
       x1="1130.985"
       x2="1124.078"
       y1="-332.752"
       y2="192.163"
       gradientTransform="matrix(.83958 0 0 .84365 -816.816 343.022)"
       gradientUnits="userSpaceOnUse"
       xlink:href="#a" />
    <linearGradient
       id="a">
      <stop
         offset="0"
         id="stop3" />
      <stop
         offset="1"
         stop-opacity="0"
         id="stop5" />
    </linearGradient>
  </defs>
  <path
     fill="url(#b)"
     d="M88.087 274.046c-43.072-17.554-72.94-63.47-70.326-110.324.326-50.393 38.461-96.675 86.91-108.293 24-5.263 49.998-4.398 72.639 5.845 41.954 17.306 71.44 61.67 69.59 107.437 1 48.11-33.172 94.368-78.82 108.337-12.145-2.443-4.252-20.767-6.572-30.097.811-9.894-1.85-20.845-5.941-28.586 18.815-1.395 38.74-10.898 45.946-29.532 5.673-12.434 4.35-26.628 3.18-39.844-1.358-7.188-6.144-12.908-10.024-18.879 3.264-10.093 2.058-21.124-1.346-31.02-11.694.316-22.13 6.069-31.817 12.14-18.769-4.412-38.682-4.285-57.466-.013-9.825-5.72-20.079-12.233-31.905-11.478-4.055 9.666-3.594 20.516-1.973 30.565-6.643 9.634-11.925 20.596-10.537 32.709-1.691 21.268 10.005 44.378 31.077 51.014 6.204 4.84 26.065.429 15.749 11.842-.756 6.266-3.242 10.213-9.862 10.32-12.818 3.913-22.697-6.815-29.241-16.336-2.507-7.716-26.48-10.996-15.739-.57 10.626 7.252 12.332 21.695 22.774 28.84 8.89 4.547 19.7 4.08 29.237 2.175-.257 8.024.664 16.18-.776 24.091-3.356 5.67-10.318 1.103-14.757-.343z"
     transform="translate(0 -32.417)"
     class="iconGithub"
     id="path10" />
</svg>
