<svg viewBox="0 0 264.58333 264.58333" xmlns="http://www.w3.org/2000/svg" xmlns:xlink="http://www.w3.org/1999/xlink">

<linearGradient id="a" gradientUnits="userSpaceOnUse" x1="134.04395" x2="138.38722" y1="123.22706" y2="290.27332">
<stop offset="0"/>
<stop offset="1" stop-opacity="0"/>
</linearGradient>

<path d="m125.53394 192.58334c-16.00505-3.67848-25.30036-22.44945-19.33565-37.59446 4.06572-12.26833 17.23009-20.43292 30.04773-18.14872 15.46714.56962 27.4869 16.97166 24.87046 31.96494-1.94119 16.32876-19.67457 28.50433-35.58254 23.77824zm22.42402 28.51642c25.8554-6.69682 44.99964-32.89369 42.56156-59.68169-.7498-23.24015-17.83225-44.12253-39.44585-51.62103-16.92852-5.13508-36.29853-3.03596-50.81429 7.49803-16.112706 10.7293-26.627988 29.98107-24.827102 49.51764-.768853 26.33271 20.962646 50.13595 46.263532 55.19642 8.63696 1.65936 17.69962.82132 26.26215-.90937zm-29.53793 29.068c-37.489552-6.70867-66.913652-34.48744-88.240075-64.49388-4.705191-6.53796-8.729979-13.51852-12.732066-20.49775 16.216073-30.30204 39.56378-57.95602 70.00523-74.648528 23.409091-13.17176 52.427431-16.10781 77.593321-6.25581 36.61921 13.73682 63.19698 45.266398 82.0769 78.415768.40053 9.53929-9.23755 17.56908-13.79185 25.88583-20.4727 28.79556-49.20129 54.96304-85.00465 61.47901-9.89923 1.12392-20.00814 1.33323-29.90681.11536z" fill="url(#a)" transform="translate(0 -32.416684)"/></svg>