<svg xmlns="http://www.w3.org/2000/svg"
	xmlns:xlink="http://www.w3.org/1999/xlink"
>
<symbol id="fbk"    viewBox="0 0 52.916666 52.916666">
	<path
		d="M 26.293409,0.66175936 C 18.096646,0.64945936 10.02948,4.8954894 5.3610874,11.640849 c -3.894592,5.51691 -5.51259899,12.5892 -4.309231,19.22521 1.127527,6.4931 4.813581,12.53509 10.1719576,16.39622 5.256619,3.85125 12.004983,5.64393 18.468152,4.77926 6.56525,-0.82233 12.784793,-4.26006 16.893544,-9.46289 4.024631,-5.01255 6.100577,-11.56822 5.594769,-17.98412 -0.454091,-6.41176 -3.392778,-12.64891 -8.138101,-17.0090596 -4.700446,-4.39661 -11.09728,-6.95067004 -17.523284,-6.92380004 -0.07516,3e-5 -0.150322,0 -0.225485,0 z m 0.205583,4.01067004 c 7.647983,-0.0488 15.157058,4.30291 18.882302,10.9905596 3.231573,5.66026 3.785412,12.80335 1.310076,18.85117 -2.292855,5.76068 -7.12953,10.47995 -13.011831,12.48644 -5.785839,2.03805 -12.441627,1.52796 -17.789392,-1.50742 -5.276507,-2.92367 -9.2704906,-8.11174 -10.6150876,-14.00662 -1.39669,-5.87196 -0.278382,-12.3286 3.173214,-17.301 3.3287896,-4.9070896 8.7285036,-8.3773496 14.6050706,-9.2467996 1.139282,-0.17857 2.292572,-0.26559 3.445648,-0.26633 z m 7.857752,16.6899396 h -5.789696 v -4.22622 c 0,-1.29635 1.340721,-1.59701 1.966489,-1.59701 0.621594,0 3.740139,0 3.740139,0 V 9.8358294 l -4.286583,-0.0224 c -5.848461,0 -7.183318,4.2525996 -7.183318,6.9793996 v 4.56966 h -4.243852 v 5.87601 h 4.243811 c 0,7.5443 0,15.86467 0,15.86467 h 5.763314 c 0,0 0,-8.40579 0,-15.86467 h 4.895853 z"/>
</symbol>
<symbol id="linkin"   viewBox="0 0 52.916666 52.916666"
>
  <path
     d="m 26.293404,0.66175946 c -8.196756,-0.0123 -16.26392,4.23373004 -20.9323164,10.97908954 -3.894595,5.5169 -5.51259798,12.5892 -4.309232,19.22521 1.127524,6.4931 4.813583,12.53509 10.1719644,16.39621 5.256616,3.85126 12.00498,5.64394 18.468141,4.77927 6.565251,-0.82233 12.784795,-4.26006 16.893545,-9.46289 4.024636,-5.01255 6.100582,-11.56823 5.594773,-17.98412 C 51.726191,18.182759 48.7875,11.945619 44.042173,7.5854695 39.341728,3.1888595 32.9449,0.63478946 26.51889,0.66166946 c -0.07516,3e-5 -0.150323,6e-5 -0.225486,0 z M 26.49899,4.6724195 c 7.647981,-0.0488 15.157054,4.30291 18.882299,10.9905595 3.231577,5.66026 3.785412,12.80335 1.310081,18.85118 -2.292858,5.76067 -7.129533,10.47994 -13.011834,12.48644 -5.785837,2.03804 -12.441622,1.52796 -17.789386,-1.50742 -5.276503,-2.92368 -9.2704934,-8.11175 -10.6150934,-14.00662 -1.396687,-5.87197 -0.278381,-12.3286 3.17322,-17.301 3.3287904,-4.9070895 8.7285024,-8.3773595 14.6050694,-9.2467995 1.139278,-0.17858 2.29257,-0.26559 3.445644,-0.26634 z M 12.799614,17.506489 v 9.60848 c -4.9e-5,3.20377 -5.5e-5,6.40767 0,9.61144 h 6.057749 c -0.0122,-6.39551 -0.02436,-12.79106 -0.03657,-19.18657 -2.007011,-0.0111 -4.014029,-0.0222 -6.02104,-0.0333 z m 11.106285,-0.002 v 9.61077 9.6109 h 4.836062 c 0.06407,-3.88608 -0.07048,-7.7793 0.17738,-11.65997 0.208753,-1.46178 1.146002,-2.9481 2.640786,-3.34293 1.13563,-0.29997 2.428287,-0.29631 3.472765,0.28728 1.300394,0.80098 1.908702,2.38783 1.867835,3.86829 0.127785,3.46039 0.06018,6.92447 0.120764,10.38627 -0.180297,0.57961 0.385524,0.41241 0.765422,0.43133 1.425732,0.009 2.851452,0.0187 4.277191,0.028 -0.06294,-4.51855 0.07312,-9.04411 -0.168361,-13.55691 -0.223866,-1.7408 -0.887182,-3.62303 -2.441359,-4.60371 -1.620553,-0.99849 -3.620031,-1.11182 -5.471851,-0.96125 -1.716469,0.17209 -3.535847,0.8439 -4.437089,2.41462 -0.339665,0.55656 -0.596349,1.15761 -0.877843,1.7443 -0.133854,-1.41508 -0.123353,-2.83731 -0.14321,-4.25696 z M 15.940903,9.1499695 c -0.03966,-7.8e-4 -0.07938,-6.6e-4 -0.119269,6.7e-4 -1.813448,-0.0457 -3.384684,1.8371795 -2.955725,3.6133895 0.323678,1.66275 2.218605,2.88433 3.851846,2.28929 1.527354,-0.48558 2.578982,-2.30051 1.969367,-3.84231 -0.406135,-1.13981 -1.516472,-2.0376495 -2.746219,-2.0609095 z"/>
	 </symbol>
    <symbol id="viber"   viewBox="0 0 52.916666 52.916666"
>		<path
			d="m 25.232807,0.63050174 c -5.046169,0.0468 -10.243725,0.52129996 -14.827855,2.80572996 -3.2152359,1.59591 -5.8956909,4.25072 -7.3835519,7.5219303 -2.07121102,4.33538 -2.49784802,9.22606 -2.32533402,13.96751 0.200036,4.48032 1.29743802,9.05042 3.93291602,12.75434 1.749587,2.46114 4.218118,4.37484 7.0007249,5.5148 0.350715,0.0753 0.519734,0.2592 0.396592,0.62827 -0.144236,2.14331 -0.368795,4.43639 0.662918,6.41429 0.651615,1.25912 2.044994,2.13659 3.483113,2.04179 1.844975,-0.0224 3.564268,-1.15824 4.47815,-2.73304 1.141036,-1.40182 2.458504,-2.66211 3.581246,-4.07151 0.342639,-0.19861 0.757688,-0.006 1.127716,-0.0817 5.027381,-0.0381 10.163406,-0.16641 14.950734,-1.884 3.388494,-1.20532 6.540485,-3.34761 8.470632,-6.43968 2.49922,-3.80905 3.440196,-8.42931 3.461892,-12.92638 0.100678,-4.54916 -0.380876,-9.22815 -2.380412,-13.37862 C 48.288636,7.5087917 45.604908,4.7895317 42.301643,3.2821617 37.010983,0.73461174 30.989529,0.63048174 25.232807,0.63051174 Z m 2.60678,4.01426996 c 4.123903,0.0552 8.384473,0.26545 12.212163,1.95766 2.554783,1.09622 4.778415,3.03678 6.017365,5.5462703 1.826922,3.45687 2.205415,7.4534 2.186038,11.30214 -0.01899,3.88198 -0.624878,7.90928 -2.69889,11.26274 -1.401816,2.23619 -3.576858,3.93898 -6.038091,4.86937 -3.87612,1.57316 -8.12863,1.68994 -12.252948,1.76653 -1.321174,0.0342 -2.657713,-0.11379 -3.958367,0.13685 -1.011032,0.22374 -1.932693,0.83413 -2.481445,1.7171 -1.482586,1.70035 -2.797618,3.58129 -4.549229,5.023 -0.242462,0.1142 -0.313042,-0.21479 -0.258876,-0.38573 -0.04986,-2.19945 0.546795,-4.4993 -0.324626,-6.59319 -0.216937,-0.62592 -0.792235,-0.98409 -1.358586,-1.24748 -1.701803,-0.90091 -3.737334,-1.36976 -5.0489389,-2.88145 -2.568464,-2.4588 -3.895972,-5.9496 -4.326614,-9.42432 -0.450885,-3.42258 -0.325895,-6.90955 0.202911,-10.3154 0.571979,-3.20393 1.873197,-6.43133 4.365831,-8.6216103 2.6535029,-2.3276 6.1731219,-3.36429 9.6153899,-3.78239 2.884108,-0.35704 5.796463,-0.32226 8.696913,-0.33009 z m -1.420544,3.6183 c -0.979528,-0.0142 -1.550189,1.48771 -0.692106,2.0511803 0.748902,0.4814 1.677564,0.19076 2.504105,0.39276 2.016528,0.26083 3.916545,1.15435 5.487044,2.43219 1.697688,1.2778 2.830413,3.18662 3.505673,5.17447 0.403026,1.19516 0.535995,2.46106 0.550021,3.71448 0.100961,0.68636 0.847879,1.20944 1.515142,0.94636 0.53424,-0.17068 0.898349,-0.75162 0.770825,-1.30387 0.0063,-3.27577 -1.334825,-6.49404 -3.586826,-8.86314 C 33.975669,9.9457317 30.212273,8.2361317 26.419043,8.2630717 Z m -9.108546,2.2020403 c -1.043952,-0.0127 -2.127212,0.16343 -3.016706,0.74807 -2.322023,1.29356 -3.968292,3.93617 -3.654678,6.63904 0.322613,2.9152 2.005492,5.4248 3.477965,7.89582 0.870783,1.50933 1.822599,2.98807 3.019052,4.25928 1.222543,1.3329 2.669377,2.44107 4.138544,3.48691 2.554013,1.72453 5.297033,3.26474 8.288781,4.10408 2.029515,0.48781 4.222023,-0.11189 5.810903,-1.42929 1.444895,-1.16748 2.501551,-2.91725 2.473255,-4.8068 -0.0014,-0.64544 0.02007,-1.30583 -0.10742,-1.9371 -0.445774,-0.86115 -1.490438,-1.07322 -2.282473,-1.49155 -1.253908,-0.574 -2.410167,-1.43816 -3.786769,-1.69269 -1.457894,-0.0841 -2.714383,0.85577 -3.798434,1.72683 -0.205571,0.13891 -0.391122,0.41287 -0.627,0.44138 -1.842399,-0.60757 -3.452332,-1.79328 -4.791004,-3.17488 -1.076921,-1.22716 -2.046592,-2.59783 -2.537708,-4.17128 0.973681,-1.19586 2.149126,-2.47472 2.204289,-4.09214 -0.04107,-1.14368 -0.732174,-2.10268 -1.166858,-3.12519 -0.525294,-1.02313 -0.987556,-2.09699 -1.659396,-3.03236 -0.54911,-0.46988 -1.324311,-0.32098 -1.984343,-0.34813 z m 9.46143,2.33046 c -0.64476,-0.0108 -1.4654,0.35615 -1.47835,1.09306 -0.04624,0.72474 0.664279,1.34934 1.376191,1.25528 0.969295,-0.005 1.936717,0.18294 2.807575,0.61619 1.806966,0.83481 3.172467,2.54589 3.564774,4.50021 0.187496,0.74303 0.170182,1.53063 0.384928,2.26257 0.447657,0.79522 1.949222,0.65457 2.071709,-0.31787 0.213632,-1.3669 -0.202513,-2.75531 -0.766773,-3.99564 -1.2761,-2.67249 -3.838528,-4.70382 -6.745684,-5.30923 -0.40022,-0.0736 -0.807382,-0.11015 -1.21437,-0.10457 z m -9.21692,0.0309 c 0.231729,-0.0399 0.448193,0.13109 0.439527,0.36736 0.504869,1.3767 1.63688,2.52499 1.785534,4.02662 -0.08188,0.97997 -1.000665,1.55039 -1.614613,2.20369 -0.514939,0.48643 -0.961175,1.25433 -0.624098,1.96227 0.608704,1.79296 1.576418,3.46008 2.755138,4.93199 0.804329,0.83075 1.732414,1.52984 2.577721,2.31577 1.23982,0.93825 2.644539,1.65127 4.098896,2.21414 0.526237,0.2068 1.197092,0.17422 1.557044,-0.31905 0.358798,-0.43132 0.741977,-0.84374 1.223631,-1.13936 0.411504,-0.28794 0.766545,-0.75349 1.280955,-0.84285 0.750504,-0.0312 1.33604,0.52593 2.002078,0.77493 0.820096,0.40927 1.63933,0.82031 2.459206,1.23007 0.06598,1.13624 -0.06502,2.39856 -0.892117,3.257 -0.956263,1.25078 -2.631102,1.84198 -4.169648,1.56677 -1.926834,-0.28595 -3.631955,-1.31138 -5.344763,-2.17259 -2.003127,-1.10702 -3.807707,-2.53534 -5.523317,-4.04039 -1.717871,-1.60512 -3.015449,-3.59861 -4.133919,-5.65184 -1.073901,-1.89472 -2.360552,-3.83055 -2.487055,-6.07397 -0.182413,-2.00757 1.224676,-4.09284 3.229852,-4.50278 0.454738,-0.0806 0.923611,-0.0934 1.379948,-0.10778 z m 8.846114,4.50876 c -0.65655,0.006 -1.276028,0.64614 -1.082026,1.31466 0.09794,0.6453 0.73895,1.06131 1.363452,1.00001 0.843152,0.0718 1.779946,0.57559 1.927608,1.47977 0.132434,0.59593 0.05203,1.40855 0.665527,1.75171 0.596423,0.33638 1.600082,0.10692 1.691525,-0.6647 0.214707,-1.31901 -0.487373,-2.66581 -1.417815,-3.58779 -0.838652,-0.80734 -1.98185,-1.32258 -3.148271,-1.29366 z"/>

	</symbol>

	<symbol id="teleg" viewBox="0 0 52.916666 52.916666">
		<path
			d="M 26.293405,0.66634466 C 18.096643,0.65404466 10.02948,4.8993247 5.3610864,11.643485 c -3.894594,5.51592 -5.51259603,12.58696 -4.309231,19.22179 1.127524,6.49195 4.813583,12.53287 10.1719596,16.39331 5.256616,3.85057 12.004979,5.64293 18.468147,4.77842 6.565252,-0.82219 12.784793,-4.25931 16.893542,-9.46121 4.024636,-5.01166 6.100584,-11.56618 5.594775,-17.98093 -0.45409,-6.41063 -3.392778,-12.64667 -8.138108,-17.0060403 -4.700441,-4.39584 -11.097273,-6.94945004 -17.52328,-6.92258004 -0.07516,3e-5 -0.150325,6e-5 -0.225486,0 z m 0.205586,4.00995004 c 7.647981,-0.0488 15.157054,4.30215 18.882299,10.9886003 3.231574,5.65927 3.785411,12.80108 1.310078,18.84785 -2.292855,5.75964 -7.129529,10.47807 -13.011832,12.48421 -5.785836,2.03768 -12.441628,1.52769 -17.789391,-1.50715 -5.276503,-2.92316 -9.2704916,-8.11031 -10.6150896,-14.00413 -1.396686,-5.87093 -0.27838,-12.32642 3.173218,-17.29793 C 11.777063,9.2815147 17.176774,5.8118747 23.05334,4.9425847 c 1.139286,-0.17854 2.292577,-0.26554 3.445651,-0.26629 z m 9.23658,33.8389203 c 0.785846,-0.3729 0.828693,-0.51789 2.758321,-9.3346 0.98569,-4.50348 2.027213,-9.25146 2.31451,-10.55106 0.287356,-1.2996 0.522459,-2.57637 0.522459,-2.83726 0,-0.58214 -0.36176,-1.15111 -0.920815,-1.44818 -0.522156,-0.27746 -1.004322,-0.26984 -1.756244,0.0278 -0.335359,0.13275 -2.166614,0.82881 -4.069538,1.54682 -1.902866,0.718 -4.783108,1.80652 -6.400557,2.41893 -1.617451,0.61241 -5.561608,2.10079 -8.764769,3.30752 -7.474729,2.81592 -7.462348,2.81073 -7.67251,3.21711 -0.330445,0.63896 -0.135152,1.38546 0.440168,1.68299 0.183884,0.0951 1.605738,0.61016 3.159708,1.14462 2.915562,1.00275 3.615898,1.13968 4.367395,0.85395 0.278071,-0.10571 3.314158,-2.00172 9.507951,-5.93754 4.134597,-2.62733 4.162755,-2.64356 4.366787,-2.51587 0.406122,0.25416 0.290877,0.66062 -0.353445,1.24635 -0.33615,0.30564 -2.53772,2.41526 -4.892344,4.68805 -3.335762,3.21982 -4.296815,4.21072 -4.352101,4.48733 -0.11919,0.59578 0.171139,1.06478 1.038671,1.67802 0.819953,0.57961 4.805864,3.46101 7.292848,5.27197 1.936789,1.41034 2.375441,1.54565 3.413505,1.05304 z"/>

	</symbol>
	<symbol id="gmail"   viewBox="0 0 52.916666 52.916666">
		<path
			d="M 26.293407,0.66176494 C 18.096645,0.64943494 10.029481,4.8955009 5.3610875,11.640851 c -3.894595,5.5169 -5.51259799,12.5892 -4.309232,19.22521 1.127524,6.4931 4.813583,12.53509 10.1719605,16.39621 5.256616,3.85126 12.00498,5.64394 18.468148,4.77927 6.565251,-0.82233 12.784792,-4.26006 16.89354,-9.46289 4.024637,-5.01255 6.100585,-11.56823 5.594776,-17.98412 C 51.726189,18.182761 48.787501,11.945631 44.042171,7.5854609 39.341731,3.1888579 32.9449,0.63479094 26.518893,0.66166794 c -0.07516,3e-5 -0.150326,6.1e-5 -0.225486,0 z m 0.205585,4.01066596 c 7.647982,-0.0488 15.157054,4.30291 18.882298,10.9905501 3.231575,5.66027 3.785412,12.80335 1.310078,18.85118 -2.292855,5.76067 -7.129528,10.47994 -13.01183,12.48644 -5.785837,2.03804 -12.441628,1.52796 -17.789391,-1.50742 -5.276504,-2.92368 -9.2704925,-8.11175 -10.6150915,-14.00662 -1.396686,-5.87197 -0.27838,-12.3286 3.173218,-17.301 3.3287905,-4.9070901 8.7285025,-8.3773501 14.6050685,-9.2467901 1.139285,-0.17858 2.292577,-0.2656 3.44565,-0.26634 z M 11.210683,14.990081 H 41.70598 v 22.9365 H 26.45832 11.210683 Z m 26.225901,18.18781 -8.613074,-6.17139 -2.233691,1.93135 -2.421705,-2.0447 -8.06201,6.51202 v 4.16556 c 0.0895,0.0895 4.881353,0.11177 10.767922,0.11177 h 10.702837 z m -17.597339,-3.56808 3.737765,-3.11107 -7.470912,-6.41347 v 12.43706 c 1.515143,-1.14189 2.521777,-1.94568 3.733147,-2.91252 z m 17.41442,-9.8259 -7.911354,6.78548 8.033336,5.73502 z m -1.123781,-4.54979 H 17.51102 l 9.086086,9.21638 z"/>
	</symbol>

	<symbol id="skype"   viewBox="0 0 52.916666 52.916666">
		<path
			d="M 14.776183,0.66893162 C 8.9355584,0.60983162 3.2808414,4.6000216 1.4398844,10.170992 c -1.47282797,4.22474 -0.83796597,9.13109 1.754641,12.7864 0.335356,0.59811 -0.01774,1.28032 0.006,1.90886 -0.59583,7.9099 3.205797,16.05822 9.7563776,20.59598 4.744236,3.37026 10.790832,4.90289 16.548184,4.10449 0.635804,0.065 1.025373,0.65528 1.599092,0.87377 4.801674,2.73886 11.211851,2.35528 15.564823,-1.0791 3.686729,-2.80894 5.91017,-7.51137 5.547689,-12.15227 -0.162975,-2.63047 -1.084201,-5.19727 -2.568092,-7.36852 -0.240868,-0.80172 0.164166,-1.60646 0.0847,-2.41413 0.394384,-8.0692 -3.796085,-16.24638 -10.666796,-20.5518404 -4.593738,-2.95846 -10.235324,-4.24528 -15.652388,-3.52569 -0.699733,-0.0739 -1.150709,-0.7017 -1.784108,-0.94661 -2.098972,-1.1449 -4.474875,-1.74549998 -6.853865,-1.73339998 z m -0.01508,3.95130998 c 2.588929,-0.0527 5.086953,1.04666 7.064148,2.66334 1.150753,0.43322 2.312011,-0.16335 3.498614,-0.13411 6.694306,-0.4344 13.514334,2.9112504 17.193458,8.5357004 2.809862,4.17904 3.894947,9.47433 2.944538,14.4207 -0.09481,0.84304 0.503324,1.50036 0.97464,2.11846 2.704512,3.65951 2.367011,9.13803 -0.612171,12.54012 -2.366985,2.74638 -6.244775,4.07916 -9.79765,3.34201 -1.867368,-0.35622 -3.518478,-1.37269 -5.016246,-2.49583 -1.184771,-0.38507 -2.38604,0.22001 -3.586988,0.17101 -6.64677,0.3749 -13.39222,-2.96377 -17.042071,-8.54771 -2.8158686,-4.18772 -3.8940566,-9.49527 -2.9399996,-14.45024 0.09096,-0.94897 -0.67454,-1.61068 -1.147545,-2.33192 -2.548756,-3.68519 -2.121843,-9.06021 0.859292,-12.3773404 1.920734,-2.13045 4.7255386,-3.45949 7.6079806,-3.45419 z m 10.330981,6.5773304 c -3.413821,0.0539 -6.957202,1.09361 -9.4518,3.51517 -2.843309,2.92842 -3.051553,8.07653 -0.279497,11.12154 1.794871,1.94228 4.413838,2.77876 6.911323,3.38091 2.736934,0.68257 5.637935,0.99203 8.110239,2.44939 0.977216,0.93501 0.449364,2.75732 -0.796662,3.17291 -2.604247,1.31875 -5.887294,0.65749 -8.036469,-1.22827 -1.120495,-0.8551 -1.876016,-2.24981 -3.262759,-2.75601 -1.36329,-0.54474 -3.107751,-0.26762 -4.03809,0.93162 -1.136229,1.38641 -1.098766,3.51218 -0.05173,4.93809 1.261841,2.00197 3.49169,3.10292 5.654083,3.86169 4.195841,1.44088 8.891907,1.55982 13.093102,0.078 2.628282,-0.99821 5.062212,-2.92448 6.045378,-5.63093 0.979444,-2.61077 0.644076,-5.81843 -1.281285,-7.92084 -1.869427,-2.06317 -4.5874,-3.05258 -7.215975,-3.73092 -2.693164,-0.69954 -5.575624,-0.94085 -8.021149,-2.351 -0.848547,-0.88165 -0.338004,-2.61323 0.889544,-2.82947 2.006674,-0.77949 4.292305,-0.59165 6.201085,0.32892 1.203278,0.63823 2.108988,1.72029 3.238093,2.46981 1.629953,0.83492 3.919946,0.31311 4.814322,-1.34819 1.037506,-1.72112 0.513399,-4.19966 -1.167704,-5.31845 -2.190585,-1.86028 -5.087975,-2.55348 -7.866916,-2.94988 -1.156583,-0.13927 -2.32265,-0.18885 -3.487129,-0.18406 z"/>
	</symbol>
	<symbol id="github" viewBox="0 0 52.916666 52.916666">
		<g
			transform="matrix(0.17710335,0,0,0.17710335,0.66145904,0.66145904)">
			<path
				d="m 188.24082,261.32433 c -0.87452,-11.89476 -1.85236,-26.63016 -1.90976,-32.59633 -0.37986,-4.57925 -0.87452,-16.22669 -11.93233,-23.66535 43.90148,-3.67654 64.79298,-27.94091 66.2947,-60.00502 1.25438,-18.25958 -6.00479,-34.31616 -18.89618,-47.274363 0.65538,-13.860892 -0.41847,-30.287943 -1.31074,-37.507456 -9.89943,-2.850027 -32.98559,9.339031 -39.43703,14.554863 -13.6052,-5.282621 -46.90387,-7.134982 -67.14,0 C 99.563349,64.741306 83.232307,58.509024 74.330538,60.247635 66.112316,78.460258 71.394937,95.675215 72.999969,97.726907 62.415943,107.39887 47.652363,119.30303 51.661812,144.24155 c 6.431607,36.56717 32.159076,56.2909 73.580988,61.11644 -8.83498,1.8054 -10.3273,8.39876 -11.06825,11.25818 -27.817753,11.47628 -35.768818,-7.08698 -39.284651,-11.92295 -11.675615,-14.4505 -22.155283,-10.26051 -22.801261,-10.03301 -0.627194,0.2275 -1.102025,1.13959 -1.035235,1.57685 0.588581,3.11614 6.94505,6.28029 7.258125,6.53597 8.616871,6.42221 11.809193,18.02269 13.775305,21.32876 12.360206,20.32171 41.090057,11.89477 41.365557,12.06592 0.0188,1.77618 -0.19932,16.73073 -0.37047,28.36878 -52.38476,-14.30858 -90.928481,-62.09636 -90.928481,-119.01342 0,-68.213885 55.29324,-123.506082 123.506031,-123.506082 68.21281,0 123.50709,55.292197 123.50709,123.506082 0,53.23112 -33.72654,98.44334 -80.92574,115.80126 z M 145.66,-2.5056465e-6 C 65.219,-2.5056465e-6 0,65.218997 0,145.66 c 0,80.45 65.219,145.66 145.66,145.66 80.441,0 145.66,-65.21 145.66,-145.66 C 291.319,65.218997 226.1,-2.5056465e-6 145.66,-2.5056465e-6 Z"/>
		</g>

	</symbol>
<!-- 	<symbol id="linkin"   viewBox="0 0 52.916666 52.916666">
		
	</symbol> -->
</svg>