<svg xmlns="http://www.w3.org/2000/svg" xmlns:xlink="http://www.w3.org/1999/xlink" viewBox="0 0 264.58333 264.58334"><defs><linearGradient id="b" x1="1130.9852" x2="1124.0784" y1="-332.75211" y2="192.16315" gradientTransform="matrix(.83958 0 0 .84365 -816.81646 343.02227)" gradientUnits="userSpaceOnUse" xlink:href="#a"/><linearGradient id="a"><stop offset="0"/><stop offset="1" stop-opacity="0"/></linearGradient></defs><path fill="url(#b)" d="M88.087461 274.04634c-43.072085-17.5542-72.940885-63.47048-70.326895-110.32428.3261-50.39275 38.46172-96.674623 86.910654-108.292827 23.99958-5.263364 49.99785-4.397769 72.63878 5.844876 41.95402 17.305672 71.43926 61.670731 69.58942 107.436701 1.00062 48.11015-33.17146 94.36824-78.8196 108.33745-12.14462-2.44335-4.25216-20.76737-6.57195-30.09754.81137-9.89327-1.84941-20.8451-5.94123-28.5859 18.81558-1.39531 38.74-10.89735 45.94639-29.53206 5.67335-12.43343 4.34971-26.62794 3.17908-39.84416-1.35722-7.18797-6.14317-12.90809-10.02291-18.87833 3.2636-10.09326 2.05783-21.1242-1.34612-31.019707-11.69374.315423-22.13011 6.067957-31.81671 12.139607-18.76904-4.41243-38.68212-4.28547-57.46682-.0135-9.824659-5.71908-20.078491-12.232209-31.904154-11.477675-4.05552 9.666485-3.59436 20.515545-1.97347 30.565045-6.64283 9.63353-11.92473 20.59615-10.53663 32.70863-1.69172 21.26876 10.00486 44.3783 31.076595 51.01388 6.204212 4.83995 26.065579.42924 15.748829 11.84289-.75614 6.2651-3.24204 10.21257-9.861951 10.31914-12.817988 3.91323-22.696553-6.81472-29.241003-16.3356-2.50653-7.71613-26.48059-10.99633-15.73827-.56953 10.62518 7.25203 12.33135 21.6943 22.77356 28.83933 8.889613 4.54743 19.699464 4.08062 29.236694 2.17543-.25656 8.0235.6642 16.17922-.77578 24.0909-3.355708 5.67084-10.318192 1.10278-14.756509-.34277z" transform="translate(0 -32.41665)"/></svg>